<svg width="866" height="721" viewBox="0 0 866 721" fill="none" xmlns="http://www.w3.org/2000/svg">
<g filter="url(#filter0_d_22_13)">
<mask id="path-1-outside-1_22_13" maskUnits="userSpaceOnUse" x="25.0378" y="25.006" width="813.574" height="668.699" fill="black">
<rect fill="white" x="25.0378" y="25.006" width="813.574" height="668.699"/>
<path d="M52.4163 49.4917L52.4317 67.3837L81.2857 67.3589L81.3 83.9909L52.446 84.0157L52.4627 103.42L85.0967 103.392L85.1115 120.654L30.9315 120.7L30.8555 32.2482L85.0355 32.2016L85.0503 49.4636L52.4163 49.4917ZM120.631 103.991L148.855 103.967L148.869 120.599L99.0995 120.642L99.0234 32.1896L120.569 32.1711L120.631 103.991ZM180.631 49.3814L180.646 67.2734L209.5 67.2486L209.515 83.8806L180.661 83.9054L180.677 103.309L213.311 103.281L213.326 120.543L159.146 120.59L159.07 32.138L213.25 32.0914L213.265 49.3534L180.631 49.3814ZM285.978 60.0008C284.38 57.0622 282.068 54.8382 279.043 53.3288C276.101 51.7353 272.614 50.9403 268.582 50.9438C261.61 50.9498 256.026 53.2646 251.83 57.8882C247.634 62.4278 245.54 68.5196 245.546 76.1636C245.553 84.3116 247.743 90.6937 252.115 95.31C256.57 99.8421 262.662 102.105 270.39 102.098C275.682 102.094 280.133 100.746 283.743 98.0548C287.437 95.3636 290.121 91.4973 291.797 86.4558L264.455 86.4794L264.441 70.6034L311.313 70.563L311.331 90.597C309.739 95.9744 307.013 100.975 303.153 105.598C299.377 110.221 294.551 113.963 288.673 116.825C282.796 119.686 276.161 121.119 268.769 121.126C260.033 121.133 252.219 119.25 245.328 115.476C238.521 111.618 233.182 106.288 229.312 99.4876C225.526 92.6868 223.63 84.9185 223.622 76.1825C223.615 67.4465 225.498 59.6748 229.272 52.8676C233.13 45.9763 238.46 40.6377 245.26 36.8518C252.061 32.982 259.829 31.0433 268.565 31.0358C279.149 31.0267 288.056 33.581 295.284 38.6988C302.596 43.8165 307.432 50.9104 309.792 59.9804L285.978 60.0008ZM378.339 104.777L345.327 104.806L340.049 120.434L317.495 120.454L349.423 31.9743L374.371 31.9528L406.451 120.377L383.645 120.397L378.339 104.777ZM372.781 88.1502L361.791 55.7776L350.983 88.1689L372.781 88.1502ZM495.319 120.301L473.773 120.319L437.69 65.7924L437.737 120.35L416.191 120.369L416.115 31.9169L437.661 31.8984L473.744 86.6774L473.697 31.8674L495.243 31.8489L495.319 120.301ZM507.245 75.9385C507.238 67.2026 509.121 59.4309 512.895 52.6237C516.669 45.7324 521.915 40.3939 528.631 36.6081C535.432 32.7383 543.116 30.7997 551.684 30.7923C562.184 30.7833 571.175 33.5475 578.655 39.0851C586.136 44.6227 591.141 52.1784 593.669 61.7522L569.981 61.7726C568.214 58.0781 565.691 55.2663 562.414 53.3371C559.22 51.4078 555.565 50.445 551.449 50.4485C544.813 50.4542 539.439 52.7689 535.327 57.3924C531.215 62.0159 529.162 68.1917 529.169 75.9197C529.176 83.6477 531.239 89.8199 535.359 94.4364C539.479 99.0528 544.857 101.358 551.493 101.353C555.609 101.349 559.262 100.38 562.452 98.4451C565.727 96.5103 568.244 93.6941 570.005 89.9966L593.693 89.9762C591.181 99.5544 586.19 107.119 578.719 112.669C571.247 118.136 562.262 120.873 551.762 120.882C543.194 120.89 535.506 119.006 528.699 115.232C521.976 111.374 516.721 106.044 512.935 99.2437C509.149 92.4429 507.253 84.6745 507.245 75.9385ZM628.399 48.9963L628.414 66.8883L657.268 66.8635L657.282 83.4955L628.428 83.5203L628.445 102.924L661.079 102.896L661.094 120.158L606.914 120.205L606.838 31.7529L661.018 31.7063L661.033 48.9683L628.399 48.9963ZM82.3761 309.656L52.6065 270.622L52.6401 309.682L31.0941 309.7L31.018 221.248L52.564 221.23L52.5974 260.038L82.048 221.204L107.374 221.182L73.1393 264.556L108.71 309.633L82.3761 309.656ZM198.077 309.557L176.532 309.575L140.449 255.048L140.496 309.606L118.95 309.625L118.873 221.173L140.419 221.154L176.503 275.933L176.455 221.123L198.001 221.105L198.077 309.557ZM255.528 310.389C247.212 310.396 239.567 308.471 232.591 304.613C225.7 300.755 220.193 295.384 216.071 288.499C212.033 281.531 210.011 273.72 210.003 265.068C209.996 256.416 212.005 248.645 216.031 241.753C220.141 234.862 225.639 229.481 232.523 225.611C239.492 221.741 247.134 219.802 255.45 219.795C263.766 219.788 271.37 221.713 278.261 225.572C285.237 229.43 290.701 234.801 294.655 241.685C298.693 248.57 300.716 256.338 300.723 264.99C300.731 273.642 298.721 281.456 294.695 288.431C290.669 295.323 285.214 300.704 278.329 304.574C271.445 308.443 263.844 310.382 255.528 310.389ZM255.511 290.733C262.567 290.727 268.193 288.37 272.389 283.663C276.669 278.955 278.806 272.737 278.799 265.009C278.793 257.197 276.645 250.983 272.357 246.367C268.153 241.666 262.523 239.319 255.467 239.325C248.327 239.331 242.617 241.646 238.337 246.27C234.141 250.893 232.047 257.153 232.053 265.049C232.06 272.861 234.165 279.117 238.369 283.818C242.657 288.434 248.371 290.739 255.511 290.733ZM434.388 220.901L411.406 309.373L385.324 309.395L371.162 251.196L356.596 309.42L330.514 309.443L308.01 221.01L331.068 220.99L343.85 285.365L359.544 220.966L383.232 220.945L398.408 285.318L411.204 220.921L434.388 220.901ZM477.274 310.198C470.806 310.204 465.01 309.159 459.884 307.063C454.758 304.968 450.639 301.863 447.528 297.75C444.5 293.637 442.9 288.682 442.727 282.886L465.659 282.866C465.998 286.142 467.134 288.661 469.067 290.423C471.001 292.102 473.522 292.94 476.63 292.937C479.822 292.934 482.341 292.218 484.188 290.788C486.034 289.275 486.957 287.216 486.954 284.612C486.953 282.428 486.195 280.623 484.682 279.196C483.253 277.769 481.446 276.595 479.261 275.673C477.16 274.75 474.135 273.703 470.186 272.53C464.473 270.771 459.809 269.011 456.196 267.251C452.582 265.49 449.472 262.888 446.865 259.447C444.258 256.005 442.952 251.512 442.947 245.968C442.94 237.736 445.917 231.307 451.877 226.682C457.837 221.973 465.605 219.614 475.181 219.606C484.925 219.598 492.781 221.943 498.749 226.642C504.717 231.257 507.914 237.722 508.341 246.038L485.031 246.058C484.861 243.202 483.809 240.977 481.876 239.382C479.942 237.704 477.463 236.866 474.439 236.869C471.835 236.871 469.736 237.587 468.141 239.016C466.546 240.362 465.75 242.336 465.752 244.94C465.755 247.796 467.101 250.021 469.79 251.615C472.479 253.209 476.681 254.927 482.395 256.77C488.108 258.697 492.73 260.541 496.259 262.302C499.873 264.063 502.983 266.622 505.59 269.98C508.197 273.338 509.502 277.663 509.507 282.955C509.511 287.995 508.213 292.574 505.613 296.692C503.096 300.81 499.403 304.089 494.533 306.53C489.663 308.97 483.91 310.193 477.274 310.198ZM110.385 498.632L88.8386 498.651L52.7557 444.124L52.8026 498.682L31.2566 498.7L31.1806 410.248L52.7265 410.23L88.8097 465.009L88.7625 410.199L110.309 410.18L110.385 498.632ZM167.835 499.465C159.519 499.472 151.874 497.546 144.898 493.688C138.007 489.83 132.501 484.459 128.379 477.575C124.341 470.606 122.318 462.796 122.31 454.144C122.303 445.492 124.312 437.72 128.338 430.829C132.448 423.937 137.946 418.556 144.831 414.686C151.799 410.816 159.442 408.878 167.758 408.871C176.074 408.863 183.677 410.789 190.568 414.647C197.544 418.505 203.008 423.876 206.962 430.761C211 437.645 213.023 445.414 213.03 454.066C213.038 462.718 211.029 470.531 207.003 477.507C202.976 484.398 197.521 489.779 190.636 493.649C183.752 497.519 176.151 499.457 167.835 499.465ZM167.819 479.809C174.875 479.803 180.5 477.446 184.696 472.738C188.976 468.03 191.113 461.813 191.106 454.085C191.1 446.273 188.952 440.058 184.664 435.442C180.46 430.742 174.83 428.395 167.774 428.401C160.634 428.407 154.924 430.722 150.644 435.345C146.448 439.969 144.354 446.229 144.36 454.125C144.367 461.937 146.473 468.193 150.677 472.893C154.965 477.51 160.679 479.815 167.819 479.809ZM84.9301 642.294C90.0551 643.382 94.1733 645.94 97.2847 649.969C100.396 653.915 101.954 658.449 101.958 663.573C101.965 670.965 99.3659 676.848 94.1616 681.22C89.0413 685.508 81.8611 687.657 72.6212 687.665L31.4192 687.7L31.3431 599.248L71.1591 599.214C80.1471 599.206 87.1628 601.258 92.2064 605.37C97.3339 609.481 99.9007 615.065 99.9068 622.121C99.9113 627.329 98.529 631.656 95.76 635.103C93.0749 638.549 89.465 640.946 84.9301 642.294ZM52.9199 635.013L67.0319 635.001C70.5599 634.998 73.2472 634.24 75.0939 632.726C77.0245 631.129 77.9885 628.818 77.9859 625.794C77.9833 622.77 77.0154 620.461 75.082 618.866C73.2326 617.272 70.5439 616.476 67.0159 616.479L52.9039 616.491L52.9199 635.013ZM68.8262 670.28C72.4382 670.277 75.2095 669.476 77.1401 667.879C79.1547 666.197 80.1606 663.802 80.158 660.694C80.1553 657.586 79.1032 655.151 77.0017 653.389C74.9842 651.627 72.1694 650.747 68.5574 650.75L52.9334 650.763L52.9502 670.293L68.8262 670.28ZM156.309 688.475C147.993 688.482 140.347 686.556 133.372 682.698C126.48 678.84 120.974 673.469 116.852 666.585C112.814 659.616 110.791 651.806 110.784 643.154C110.776 634.502 112.785 626.73 116.811 619.839C120.922 612.947 126.419 607.566 133.304 603.696C140.272 599.826 147.915 597.888 156.231 597.881C164.547 597.873 172.15 599.799 179.042 603.657C186.017 607.515 191.482 612.886 195.435 619.771C199.473 626.655 201.496 634.424 201.503 643.076C201.511 651.728 199.502 659.541 195.476 666.517C191.45 673.408 185.994 678.789 179.11 682.659C172.225 686.529 164.625 688.467 156.309 688.475ZM156.292 668.819C163.348 668.813 168.974 666.456 173.17 661.748C177.449 657.04 179.586 650.823 179.58 643.095C179.573 635.283 177.425 629.068 173.137 624.452C168.933 619.752 163.303 617.405 156.247 617.411C149.107 617.417 143.397 619.732 139.117 624.355C134.921 628.979 132.827 635.239 132.834 643.135C132.84 650.947 134.946 657.203 139.15 661.903C143.438 666.52 149.152 668.825 156.292 668.819ZM234.62 599.073L234.666 651.993C234.67 657.285 235.976 661.358 238.582 664.212C241.189 667.066 245.012 668.49 250.052 668.486C255.092 668.482 258.955 667.05 261.64 664.192C264.326 661.334 265.666 657.259 265.662 651.967L265.616 599.047L287.162 599.028L287.208 651.822C287.215 659.718 285.54 666.397 282.185 671.86C278.83 677.323 274.297 681.443 268.588 684.22C262.962 686.997 256.663 688.388 249.691 688.394C242.719 688.4 236.46 687.062 230.914 684.378C225.451 681.611 221.122 677.499 217.925 672.042C214.728 666.5 213.127 659.782 213.12 651.886L213.074 599.092L234.62 599.073ZM381.496 687.399L359.95 687.417L323.867 632.89L323.914 687.448L302.368 687.467L302.292 599.015L323.838 598.996L359.921 653.775L359.874 598.965L381.42 598.947L381.496 687.399ZM430.176 598.905C439.5 598.897 447.65 600.738 454.625 604.428C461.6 608.118 466.981 613.321 470.766 620.038C474.636 626.671 476.575 634.355 476.582 643.091C476.59 651.743 474.664 659.431 470.806 666.154C467.032 672.877 461.618 678.09 454.566 681.792C447.597 685.494 439.492 687.349 430.252 687.357L397.114 687.385L397.038 598.934L430.176 598.905ZM428.85 668.71C436.998 668.703 443.338 666.472 447.871 662.016C452.403 657.56 454.665 651.258 454.658 643.11C454.651 634.962 452.378 628.622 447.838 624.09C443.298 619.558 436.954 617.295 428.806 617.302L418.6 617.311L418.644 668.719L428.85 668.71ZM543.71 671.635L510.698 671.664L505.419 687.292L482.865 687.312L514.793 598.832L539.741 598.811L571.821 687.235L549.015 687.255L543.71 671.635ZM538.151 655.008L527.162 622.636L516.353 655.027L538.151 655.008ZM626.67 687.188L608.245 653.814L603.079 653.818L603.108 687.208L581.562 687.227L581.485 598.775L617.647 598.744C624.619 598.738 630.543 599.951 635.417 602.383C640.375 604.814 644.074 608.171 646.513 612.453C648.953 616.651 650.175 621.354 650.179 626.562C650.184 632.442 648.509 637.693 645.153 642.316C641.881 646.939 637.012 650.219 630.545 652.157L650.988 687.167L626.67 687.188ZM603.066 638.572L616.422 638.561C620.37 638.557 623.309 637.589 625.239 635.655C627.254 633.722 628.259 630.991 628.256 627.463C628.253 624.103 627.243 621.458 625.225 619.527C623.292 617.597 620.351 616.633 616.403 616.637L603.047 616.648L603.066 638.572ZM685.227 598.686L685.303 687.138L663.757 687.156L663.681 598.704L685.227 598.686ZM722.402 615.916L722.417 633.808L751.271 633.783L751.285 650.415L722.431 650.44L722.448 669.844L755.082 669.816L755.097 687.078L700.917 687.124L700.841 598.672L755.021 598.626L755.036 615.888L722.402 615.916ZM801.09 687.92C794.622 687.926 788.825 686.881 783.699 684.785C778.573 682.689 774.454 679.585 771.343 675.472C768.315 671.358 766.715 666.404 766.542 660.608L789.474 660.588C789.813 663.864 790.949 666.383 792.883 668.145C794.816 669.823 797.337 670.661 800.445 670.659C803.637 670.656 806.156 669.94 808.003 668.51C809.85 666.997 810.772 664.938 810.77 662.334C810.768 660.15 810.01 658.344 808.497 656.918C807.068 655.491 805.261 654.316 803.076 653.394C800.975 652.472 797.95 651.425 794.001 650.252C788.288 648.493 783.624 646.733 780.011 644.972C776.397 643.211 773.287 640.61 770.68 637.168C768.073 633.726 766.767 629.234 766.762 623.69C766.755 615.458 769.732 609.029 775.692 604.404C781.652 599.695 789.42 597.336 798.996 597.328C808.74 597.319 816.596 599.665 822.564 604.364C828.532 608.978 831.729 615.444 832.156 623.759L808.847 623.779C808.676 620.924 807.624 618.698 805.691 617.104C803.757 615.426 801.279 614.588 798.255 614.59C795.651 614.593 793.551 615.309 791.956 616.738C790.362 618.083 789.565 620.058 789.568 622.662C789.57 625.518 790.916 627.743 793.605 629.336C796.295 630.93 800.496 632.649 806.21 634.492C811.923 636.419 816.545 638.263 820.074 640.024C823.688 641.785 826.798 644.344 829.405 647.702C832.012 651.059 833.318 655.384 833.322 660.676C833.327 665.716 832.029 670.295 829.428 674.414C826.912 678.532 823.218 681.811 818.349 684.251C813.479 686.691 807.726 687.914 801.09 687.92Z"/>
</mask>
<path d="M52.4163 49.4917L52.4317 67.3837L81.2857 67.3589L81.3 83.9909L52.446 84.0157L52.4627 103.42L85.0967 103.392L85.1115 120.654L30.9315 120.7L30.8555 32.2482L85.0355 32.2016L85.0503 49.4636L52.4163 49.4917ZM120.631 103.991L148.855 103.967L148.869 120.599L99.0995 120.642L99.0234 32.1896L120.569 32.1711L120.631 103.991ZM180.631 49.3814L180.646 67.2734L209.5 67.2486L209.515 83.8806L180.661 83.9054L180.677 103.309L213.311 103.281L213.326 120.543L159.146 120.59L159.07 32.138L213.25 32.0914L213.265 49.3534L180.631 49.3814ZM285.978 60.0008C284.38 57.0622 282.068 54.8382 279.043 53.3288C276.101 51.7353 272.614 50.9403 268.582 50.9438C261.61 50.9498 256.026 53.2646 251.83 57.8882C247.634 62.4278 245.54 68.5196 245.546 76.1636C245.553 84.3116 247.743 90.6937 252.115 95.31C256.57 99.8421 262.662 102.105 270.39 102.098C275.682 102.094 280.133 100.746 283.743 98.0548C287.437 95.3636 290.121 91.4973 291.797 86.4558L264.455 86.4794L264.441 70.6034L311.313 70.563L311.331 90.597C309.739 95.9744 307.013 100.975 303.153 105.598C299.377 110.221 294.551 113.963 288.673 116.825C282.796 119.686 276.161 121.119 268.769 121.126C260.033 121.133 252.219 119.25 245.328 115.476C238.521 111.618 233.182 106.288 229.312 99.4876C225.526 92.6868 223.63 84.9185 223.622 76.1825C223.615 67.4465 225.498 59.6748 229.272 52.8676C233.13 45.9763 238.46 40.6377 245.26 36.8518C252.061 32.982 259.829 31.0433 268.565 31.0358C279.149 31.0267 288.056 33.581 295.284 38.6988C302.596 43.8165 307.432 50.9104 309.792 59.9804L285.978 60.0008ZM378.339 104.777L345.327 104.806L340.049 120.434L317.495 120.454L349.423 31.9743L374.371 31.9528L406.451 120.377L383.645 120.397L378.339 104.777ZM372.781 88.1502L361.791 55.7776L350.983 88.1689L372.781 88.1502ZM495.319 120.301L473.773 120.319L437.69 65.7924L437.737 120.35L416.191 120.369L416.115 31.9169L437.661 31.8984L473.744 86.6774L473.697 31.8674L495.243 31.8489L495.319 120.301ZM507.245 75.9385C507.238 67.2026 509.121 59.4309 512.895 52.6237C516.669 45.7324 521.915 40.3939 528.631 36.6081C535.432 32.7383 543.116 30.7997 551.684 30.7923C562.184 30.7833 571.175 33.5475 578.655 39.0851C586.136 44.6227 591.141 52.1784 593.669 61.7522L569.981 61.7726C568.214 58.0781 565.691 55.2663 562.414 53.3371C559.22 51.4078 555.565 50.445 551.449 50.4485C544.813 50.4542 539.439 52.7689 535.327 57.3924C531.215 62.0159 529.162 68.1917 529.169 75.9197C529.176 83.6477 531.239 89.8199 535.359 94.4364C539.479 99.0528 544.857 101.358 551.493 101.353C555.609 101.349 559.262 100.38 562.452 98.4451C565.727 96.5103 568.244 93.6941 570.005 89.9966L593.693 89.9762C591.181 99.5544 586.19 107.119 578.719 112.669C571.247 118.136 562.262 120.873 551.762 120.882C543.194 120.89 535.506 119.006 528.699 115.232C521.976 111.374 516.721 106.044 512.935 99.2437C509.149 92.4429 507.253 84.6745 507.245 75.9385ZM628.399 48.9963L628.414 66.8883L657.268 66.8635L657.282 83.4955L628.428 83.5203L628.445 102.924L661.079 102.896L661.094 120.158L606.914 120.205L606.838 31.7529L661.018 31.7063L661.033 48.9683L628.399 48.9963ZM82.3761 309.656L52.6065 270.622L52.6401 309.682L31.0941 309.7L31.018 221.248L52.564 221.23L52.5974 260.038L82.048 221.204L107.374 221.182L73.1393 264.556L108.71 309.633L82.3761 309.656ZM198.077 309.557L176.532 309.575L140.449 255.048L140.496 309.606L118.95 309.625L118.873 221.173L140.419 221.154L176.503 275.933L176.455 221.123L198.001 221.105L198.077 309.557ZM255.528 310.389C247.212 310.396 239.567 308.471 232.591 304.613C225.7 300.755 220.193 295.384 216.071 288.499C212.033 281.531 210.011 273.72 210.003 265.068C209.996 256.416 212.005 248.645 216.031 241.753C220.141 234.862 225.639 229.481 232.523 225.611C239.492 221.741 247.134 219.802 255.45 219.795C263.766 219.788 271.37 221.713 278.261 225.572C285.237 229.43 290.701 234.801 294.655 241.685C298.693 248.57 300.716 256.338 300.723 264.99C300.731 273.642 298.721 281.456 294.695 288.431C290.669 295.323 285.214 300.704 278.329 304.574C271.445 308.443 263.844 310.382 255.528 310.389ZM255.511 290.733C262.567 290.727 268.193 288.37 272.389 283.663C276.669 278.955 278.806 272.737 278.799 265.009C278.793 257.197 276.645 250.983 272.357 246.367C268.153 241.666 262.523 239.319 255.467 239.325C248.327 239.331 242.617 241.646 238.337 246.27C234.141 250.893 232.047 257.153 232.053 265.049C232.06 272.861 234.165 279.117 238.369 283.818C242.657 288.434 248.371 290.739 255.511 290.733ZM434.388 220.901L411.406 309.373L385.324 309.395L371.162 251.196L356.596 309.42L330.514 309.443L308.01 221.01L331.068 220.99L343.85 285.365L359.544 220.966L383.232 220.945L398.408 285.318L411.204 220.921L434.388 220.901ZM477.274 310.198C470.806 310.204 465.01 309.159 459.884 307.063C454.758 304.968 450.639 301.863 447.528 297.75C444.5 293.637 442.9 288.682 442.727 282.886L465.659 282.866C465.998 286.142 467.134 288.661 469.067 290.423C471.001 292.102 473.522 292.94 476.63 292.937C479.822 292.934 482.341 292.218 484.188 290.788C486.034 289.275 486.957 287.216 486.954 284.612C486.953 282.428 486.195 280.623 484.682 279.196C483.253 277.769 481.446 276.595 479.261 275.673C477.16 274.75 474.135 273.703 470.186 272.53C464.473 270.771 459.809 269.011 456.196 267.251C452.582 265.49 449.472 262.888 446.865 259.447C444.258 256.005 442.952 251.512 442.947 245.968C442.94 237.736 445.917 231.307 451.877 226.682C457.837 221.973 465.605 219.614 475.181 219.606C484.925 219.598 492.781 221.943 498.749 226.642C504.717 231.257 507.914 237.722 508.341 246.038L485.031 246.058C484.861 243.202 483.809 240.977 481.876 239.382C479.942 237.704 477.463 236.866 474.439 236.869C471.835 236.871 469.736 237.587 468.141 239.016C466.546 240.362 465.75 242.336 465.752 244.94C465.755 247.796 467.101 250.021 469.79 251.615C472.479 253.209 476.681 254.927 482.395 256.77C488.108 258.697 492.73 260.541 496.259 262.302C499.873 264.063 502.983 266.622 505.59 269.98C508.197 273.338 509.502 277.663 509.507 282.955C509.511 287.995 508.213 292.574 505.613 296.692C503.096 300.81 499.403 304.089 494.533 306.53C489.663 308.97 483.91 310.193 477.274 310.198ZM110.385 498.632L88.8386 498.651L52.7557 444.124L52.8026 498.682L31.2566 498.7L31.1806 410.248L52.7265 410.23L88.8097 465.009L88.7625 410.199L110.309 410.18L110.385 498.632ZM167.835 499.465C159.519 499.472 151.874 497.546 144.898 493.688C138.007 489.83 132.501 484.459 128.379 477.575C124.341 470.606 122.318 462.796 122.31 454.144C122.303 445.492 124.312 437.72 128.338 430.829C132.448 423.937 137.946 418.556 144.831 414.686C151.799 410.816 159.442 408.878 167.758 408.871C176.074 408.863 183.677 410.789 190.568 414.647C197.544 418.505 203.008 423.876 206.962 430.761C211 437.645 213.023 445.414 213.03 454.066C213.038 462.718 211.029 470.531 207.003 477.507C202.976 484.398 197.521 489.779 190.636 493.649C183.752 497.519 176.151 499.457 167.835 499.465ZM167.819 479.809C174.875 479.803 180.5 477.446 184.696 472.738C188.976 468.03 191.113 461.813 191.106 454.085C191.1 446.273 188.952 440.058 184.664 435.442C180.46 430.742 174.83 428.395 167.774 428.401C160.634 428.407 154.924 430.722 150.644 435.345C146.448 439.969 144.354 446.229 144.36 454.125C144.367 461.937 146.473 468.193 150.677 472.893C154.965 477.51 160.679 479.815 167.819 479.809ZM84.9301 642.294C90.0551 643.382 94.1733 645.94 97.2847 649.969C100.396 653.915 101.954 658.449 101.958 663.573C101.965 670.965 99.3659 676.848 94.1616 681.22C89.0413 685.508 81.8611 687.657 72.6212 687.665L31.4192 687.7L31.3431 599.248L71.1591 599.214C80.1471 599.206 87.1628 601.258 92.2064 605.37C97.3339 609.481 99.9007 615.065 99.9068 622.121C99.9113 627.329 98.529 631.656 95.76 635.103C93.0749 638.549 89.465 640.946 84.9301 642.294ZM52.9199 635.013L67.0319 635.001C70.5599 634.998 73.2472 634.24 75.0939 632.726C77.0245 631.129 77.9885 628.818 77.9859 625.794C77.9833 622.77 77.0154 620.461 75.082 618.866C73.2326 617.272 70.5439 616.476 67.0159 616.479L52.9039 616.491L52.9199 635.013ZM68.8262 670.28C72.4382 670.277 75.2095 669.476 77.1401 667.879C79.1547 666.197 80.1606 663.802 80.158 660.694C80.1553 657.586 79.1032 655.151 77.0017 653.389C74.9842 651.627 72.1694 650.747 68.5574 650.75L52.9334 650.763L52.9502 670.293L68.8262 670.28ZM156.309 688.475C147.993 688.482 140.347 686.556 133.372 682.698C126.48 678.84 120.974 673.469 116.852 666.585C112.814 659.616 110.791 651.806 110.784 643.154C110.776 634.502 112.785 626.73 116.811 619.839C120.922 612.947 126.419 607.566 133.304 603.696C140.272 599.826 147.915 597.888 156.231 597.881C164.547 597.873 172.15 599.799 179.042 603.657C186.017 607.515 191.482 612.886 195.435 619.771C199.473 626.655 201.496 634.424 201.503 643.076C201.511 651.728 199.502 659.541 195.476 666.517C191.45 673.408 185.994 678.789 179.11 682.659C172.225 686.529 164.625 688.467 156.309 688.475ZM156.292 668.819C163.348 668.813 168.974 666.456 173.17 661.748C177.449 657.04 179.586 650.823 179.58 643.095C179.573 635.283 177.425 629.068 173.137 624.452C168.933 619.752 163.303 617.405 156.247 617.411C149.107 617.417 143.397 619.732 139.117 624.355C134.921 628.979 132.827 635.239 132.834 643.135C132.84 650.947 134.946 657.203 139.15 661.903C143.438 666.52 149.152 668.825 156.292 668.819ZM234.62 599.073L234.666 651.993C234.67 657.285 235.976 661.358 238.582 664.212C241.189 667.066 245.012 668.49 250.052 668.486C255.092 668.482 258.955 667.05 261.64 664.192C264.326 661.334 265.666 657.259 265.662 651.967L265.616 599.047L287.162 599.028L287.208 651.822C287.215 659.718 285.54 666.397 282.185 671.86C278.83 677.323 274.297 681.443 268.588 684.22C262.962 686.997 256.663 688.388 249.691 688.394C242.719 688.4 236.46 687.062 230.914 684.378C225.451 681.611 221.122 677.499 217.925 672.042C214.728 666.5 213.127 659.782 213.12 651.886L213.074 599.092L234.62 599.073ZM381.496 687.399L359.95 687.417L323.867 632.89L323.914 687.448L302.368 687.467L302.292 599.015L323.838 598.996L359.921 653.775L359.874 598.965L381.42 598.947L381.496 687.399ZM430.176 598.905C439.5 598.897 447.65 600.738 454.625 604.428C461.6 608.118 466.981 613.321 470.766 620.038C474.636 626.671 476.575 634.355 476.582 643.091C476.59 651.743 474.664 659.431 470.806 666.154C467.032 672.877 461.618 678.09 454.566 681.792C447.597 685.494 439.492 687.349 430.252 687.357L397.114 687.385L397.038 598.934L430.176 598.905ZM428.85 668.71C436.998 668.703 443.338 666.472 447.871 662.016C452.403 657.56 454.665 651.258 454.658 643.11C454.651 634.962 452.378 628.622 447.838 624.09C443.298 619.558 436.954 617.295 428.806 617.302L418.6 617.311L418.644 668.719L428.85 668.71ZM543.71 671.635L510.698 671.664L505.419 687.292L482.865 687.312L514.793 598.832L539.741 598.811L571.821 687.235L549.015 687.255L543.71 671.635ZM538.151 655.008L527.162 622.636L516.353 655.027L538.151 655.008ZM626.67 687.188L608.245 653.814L603.079 653.818L603.108 687.208L581.562 687.227L581.485 598.775L617.647 598.744C624.619 598.738 630.543 599.951 635.417 602.383C640.375 604.814 644.074 608.171 646.513 612.453C648.953 616.651 650.175 621.354 650.179 626.562C650.184 632.442 648.509 637.693 645.153 642.316C641.881 646.939 637.012 650.219 630.545 652.157L650.988 687.167L626.67 687.188ZM603.066 638.572L616.422 638.561C620.37 638.557 623.309 637.589 625.239 635.655C627.254 633.722 628.259 630.991 628.256 627.463C628.253 624.103 627.243 621.458 625.225 619.527C623.292 617.597 620.351 616.633 616.403 616.637L603.047 616.648L603.066 638.572ZM685.227 598.686L685.303 687.138L663.757 687.156L663.681 598.704L685.227 598.686ZM722.402 615.916L722.417 633.808L751.271 633.783L751.285 650.415L722.431 650.44L722.448 669.844L755.082 669.816L755.097 687.078L700.917 687.124L700.841 598.672L755.021 598.626L755.036 615.888L722.402 615.916ZM801.09 687.92C794.622 687.926 788.825 686.881 783.699 684.785C778.573 682.689 774.454 679.585 771.343 675.472C768.315 671.358 766.715 666.404 766.542 660.608L789.474 660.588C789.813 663.864 790.949 666.383 792.883 668.145C794.816 669.823 797.337 670.661 800.445 670.659C803.637 670.656 806.156 669.94 808.003 668.51C809.85 666.997 810.772 664.938 810.77 662.334C810.768 660.15 810.01 658.344 808.497 656.918C807.068 655.491 805.261 654.316 803.076 653.394C800.975 652.472 797.95 651.425 794.001 650.252C788.288 648.493 783.624 646.733 780.011 644.972C776.397 643.211 773.287 640.61 770.68 637.168C768.073 633.726 766.767 629.234 766.762 623.69C766.755 615.458 769.732 609.029 775.692 604.404C781.652 599.695 789.42 597.336 798.996 597.328C808.74 597.319 816.596 599.665 822.564 604.364C828.532 608.978 831.729 615.444 832.156 623.759L808.847 623.779C808.676 620.924 807.624 618.698 805.691 617.104C803.757 615.426 801.279 614.588 798.255 614.59C795.651 614.593 793.551 615.309 791.956 616.738C790.362 618.083 789.565 620.058 789.568 622.662C789.57 625.518 790.916 627.743 793.605 629.336C796.295 630.93 800.496 632.649 806.21 634.492C811.923 636.419 816.545 638.263 820.074 640.024C823.688 641.785 826.798 644.344 829.405 647.702C832.012 651.059 833.318 655.384 833.322 660.676C833.327 665.716 832.029 670.295 829.428 674.414C826.912 678.532 823.218 681.811 818.349 684.251C813.479 686.691 807.726 687.914 801.09 687.92Z" fill="#EF5007"/>
<path d="M52.4163 49.4917L52.412 44.4917L47.412 44.496L47.4163 49.496L52.4163 49.4917ZM52.4317 67.3837L47.4317 67.388L47.436 72.388L52.436 72.3837L52.4317 67.3837ZM81.2857 67.3589L86.2857 67.3546L86.2814 62.3546L81.2814 62.3589L81.2857 67.3589ZM81.3 83.9909L81.3043 88.9909L86.3043 88.9866L86.3 83.9866L81.3 83.9909ZM52.446 84.0157L52.4417 79.0157L47.4417 79.02L47.446 84.02L52.446 84.0157ZM52.4627 103.42L47.4627 103.424L47.467 108.424L52.467 108.42L52.4627 103.42ZM85.0967 103.392L90.0967 103.387L90.0924 98.3873L85.0924 98.3916L85.0967 103.392ZM85.1115 120.654L85.1158 125.654L90.1158 125.649L90.1115 120.649L85.1115 120.654ZM30.9315 120.7L25.9315 120.705L25.9358 125.705L30.9358 125.7L30.9315 120.7ZM30.8555 32.2482L30.8512 27.2482L25.8512 27.2525L25.8555 32.2525L30.8555 32.2482ZM85.0355 32.2016L90.0354 32.1973L90.0311 27.1973L85.0312 27.2016L85.0355 32.2016ZM85.0503 49.4636L85.0546 54.4636L90.0546 54.4593L90.0503 49.4593L85.0503 49.4636ZM47.4163 49.496L47.4317 67.388L57.4317 67.3794L57.4163 49.4874L47.4163 49.496ZM52.436 72.3837L81.29 72.3589L81.2814 62.3589L52.4274 62.3837L52.436 72.3837ZM76.2857 67.3632L76.3 83.9952L86.3 83.9866L86.2857 67.3546L76.2857 67.3632ZM81.2957 78.9909L52.4417 79.0157L52.4503 89.0157L81.3043 88.9909L81.2957 78.9909ZM47.446 84.02L47.4627 103.424L57.4627 103.415L57.446 84.0114L47.446 84.02ZM52.467 108.42L85.101 108.392L85.0924 98.3916L52.4584 98.4197L52.467 108.42ZM80.0967 103.396L80.1115 120.658L90.1115 120.649L90.0967 103.387L80.0967 103.396ZM85.1072 115.654L30.9272 115.7L30.9358 125.7L85.1158 125.654L85.1072 115.654ZM35.9315 120.696L35.8555 32.2439L25.8555 32.2525L25.9315 120.705L35.9315 120.696ZM30.8598 37.2482L85.0398 37.2016L85.0312 27.2016L30.8512 27.2482L30.8598 37.2482ZM80.0355 32.2059L80.0503 49.4679L90.0503 49.4593L90.0354 32.1973L80.0355 32.2059ZM85.046 44.4636L52.412 44.4917L52.4206 54.4917L85.0546 54.4636L85.046 44.4636ZM120.631 103.991L115.631 103.995L115.635 108.995L120.635 108.991L120.631 103.991ZM148.855 103.967L153.855 103.962L153.851 98.9625L148.851 98.9668L148.855 103.967ZM148.869 120.599L148.874 125.599L153.874 125.594L153.869 120.594L148.869 120.599ZM99.0995 120.642L94.0995 120.646L94.1038 125.646L99.1038 125.642L99.0995 120.642ZM99.0234 32.1896L99.0191 27.1896L94.0191 27.1939L94.0234 32.1939L99.0234 32.1896ZM120.569 32.1711L125.569 32.1668L125.565 27.1668L120.565 27.1711L120.569 32.1711ZM120.635 108.991L148.859 108.967L148.851 98.9668L120.627 98.9911L120.635 108.991ZM143.855 103.971L143.869 120.603L153.869 120.594L153.855 103.962L143.855 103.971ZM148.865 115.599L99.0952 115.642L99.1038 125.642L148.874 125.599L148.865 115.599ZM104.099 120.637L104.023 32.1853L94.0234 32.1939L94.0995 120.646L104.099 120.637ZM99.0277 37.1896L120.574 37.1711L120.565 27.1711L99.0191 27.1896L99.0277 37.1896ZM115.569 32.1754L115.631 103.995L125.631 103.987L125.569 32.1668L115.569 32.1754ZM180.631 49.3814L180.627 44.3814L175.627 44.3857L175.631 49.3857L180.631 49.3814ZM180.646 67.2734L175.646 67.2777L175.651 72.2777L180.651 72.2734L180.646 67.2734ZM209.5 67.2486L214.5 67.2443L214.496 62.2443L209.496 62.2486L209.5 67.2486ZM209.515 83.8806L209.519 88.8806L214.519 88.8763L214.515 83.8763L209.515 83.8806ZM180.661 83.9054L180.656 78.9054L175.656 78.9097L175.661 83.9097L180.661 83.9054ZM180.677 103.309L175.677 103.314L175.682 108.314L180.682 108.309L180.677 103.309ZM213.311 103.281L218.311 103.277L218.307 98.277L213.307 98.2813L213.311 103.281ZM213.326 120.543L213.331 125.543L218.331 125.539L218.326 120.539L213.326 120.543ZM159.146 120.59L154.146 120.594L154.151 125.594L159.151 125.59L159.146 120.59ZM159.07 32.138L159.066 27.138L154.066 27.1423L154.07 32.1423L159.07 32.138ZM213.25 32.0914L218.25 32.0871L218.246 27.0871L213.246 27.0914L213.25 32.0914ZM213.265 49.3534L213.269 54.3534L218.269 54.3491L218.265 49.3491L213.265 49.3534ZM175.631 49.3857L175.646 67.2777L185.646 67.2691L185.631 49.3771L175.631 49.3857ZM180.651 72.2734L209.505 72.2486L209.496 62.2486L180.642 62.2734L180.651 72.2734ZM204.5 67.2529L204.515 83.8849L214.515 83.8763L214.5 67.2443L204.5 67.2529ZM209.51 78.8806L180.656 78.9054L180.665 88.9054L209.519 88.8806L209.51 78.8806ZM175.661 83.9097L175.677 103.314L185.677 103.305L185.661 83.9011L175.661 83.9097ZM180.682 108.309L213.316 108.281L213.307 98.2813L180.673 98.3094L180.682 108.309ZM208.311 103.286L208.326 120.548L218.326 120.539L218.311 103.277L208.311 103.286ZM213.322 115.543L159.142 115.59L159.151 125.59L213.331 125.543L213.322 115.543ZM164.146 120.586L164.07 32.1337L154.07 32.1423L154.146 120.594L164.146 120.586ZM159.075 37.138L213.255 37.0914L213.246 27.0914L159.066 27.138L159.075 37.138ZM208.25 32.0957L208.265 49.3577L218.265 49.3491L218.25 32.0871L208.25 32.0957ZM213.261 44.3534L180.627 44.3814L180.635 54.3814L213.269 54.3534L213.261 44.3534ZM285.978 60.0008L281.586 62.3901L283.008 65.0034L285.983 65.0008L285.978 60.0008ZM279.043 53.3288L276.661 57.7251L276.735 57.7652L276.81 57.8028L279.043 53.3288ZM251.83 57.8882L255.502 61.2821L255.518 61.2653L255.533 61.2484L251.83 57.8882ZM252.115 95.31L248.484 98.7482L248.516 98.7821L248.549 98.8154L252.115 95.31ZM283.743 98.0548L280.799 94.0136L280.776 94.0298L280.754 94.0462L283.743 98.0548ZM291.797 86.4558L296.542 88.0329L298.73 81.4499L291.793 81.4558L291.797 86.4558ZM264.455 86.4794L259.455 86.4837L259.459 91.4837L264.459 91.4794L264.455 86.4794ZM264.441 70.6034L264.437 65.6034L259.437 65.6077L259.441 70.6077L264.441 70.6034ZM311.313 70.563L316.313 70.5587L316.309 65.5588L311.309 65.5631L311.313 70.563ZM311.331 90.597L316.125 92.0159L316.331 91.3193L316.331 90.5927L311.331 90.597ZM303.153 105.598L299.315 102.394L299.298 102.414L299.281 102.435L303.153 105.598ZM288.673 116.825L286.485 112.329L288.673 116.825ZM245.328 115.476L242.863 119.826L242.894 119.844L242.926 119.861L245.328 115.476ZM229.312 99.4876L224.943 101.92L224.955 101.94L224.967 101.96L229.312 99.4876ZM229.272 52.8676L224.909 50.4251L224.904 50.4341L224.899 50.4431L229.272 52.8676ZM245.26 36.8518L247.692 41.2205L247.713 41.2091L247.733 41.1975L245.26 36.8518ZM295.284 38.6988L292.395 42.7796L292.406 42.7874L292.417 42.7952L295.284 38.6988ZM309.792 59.9804L309.797 64.9804L316.258 64.9748L314.631 58.7214L309.792 59.9804ZM290.37 57.6116C288.277 53.763 285.206 50.8162 281.275 48.8547L276.81 57.8028C278.929 58.8602 280.483 60.3614 281.586 62.3901L290.37 57.6116ZM281.424 48.9325C277.614 46.8683 273.273 45.9398 268.578 45.9438L268.587 55.9438C271.956 55.9409 274.588 56.6023 276.661 57.7251L281.424 48.9325ZM268.578 45.9438C260.38 45.9508 253.387 48.7333 248.128 54.528L255.533 61.2484C258.666 57.7959 262.841 55.9487 268.587 55.9438L268.578 45.9438ZM248.159 54.4943C242.917 60.1651 240.539 67.5765 240.546 76.1679L250.546 76.1593C250.54 69.4628 252.352 64.6905 255.502 61.2821L248.159 54.4943ZM240.546 76.1679C240.554 85.2199 243.007 92.9646 248.484 98.7482L255.745 91.8718C252.478 88.4229 250.552 83.4033 250.546 76.1593L240.546 76.1679ZM248.549 98.8154C254.143 104.505 261.634 107.106 270.395 107.098L270.386 97.0983C263.691 97.104 258.998 95.1792 255.68 91.8046L248.549 98.8154ZM270.395 107.098C276.567 107.093 282.115 105.505 286.731 102.063L280.754 94.0462C278.151 95.9869 274.798 97.0945 270.386 97.0983L270.395 107.098ZM286.687 102.096C291.354 98.6956 294.593 93.8973 296.542 88.0329L287.052 84.8788C285.65 89.0972 283.519 92.0316 280.799 94.0136L286.687 102.096ZM291.793 81.4558L264.451 81.4794L264.459 91.4794L291.801 91.4558L291.793 81.4558ZM269.455 86.4751L269.441 70.5991L259.441 70.6077L259.455 86.4837L269.455 86.4751ZM264.446 75.6034L311.318 75.563L311.309 65.5631L264.437 65.6034L264.446 75.6034ZM306.313 70.5673L306.331 90.6013L316.331 90.5927L316.313 70.5587L306.313 70.5673ZM306.536 89.1782C305.152 93.854 302.771 98.2548 299.315 102.394L306.992 108.803C311.256 103.695 314.326 98.0948 316.125 92.0159L306.536 89.1782ZM299.281 102.435C296.005 106.446 291.774 109.754 286.485 112.329L290.862 121.32C297.328 118.173 302.75 113.997 307.026 108.761L299.281 102.435ZM286.485 112.329C281.372 114.818 275.499 116.12 268.765 116.126L268.773 126.126C276.822 126.119 284.219 124.553 290.862 121.32L286.485 112.329ZM268.765 116.126C260.774 116.133 253.804 114.417 247.73 111.09L242.926 119.861C250.635 124.083 259.292 126.134 268.773 126.126L268.765 116.126ZM247.793 111.126C241.771 107.712 237.082 103.032 233.658 97.0147L224.967 101.96C229.282 109.545 235.271 115.523 242.863 119.826L247.793 111.126ZM233.681 97.0556C230.357 91.0846 228.629 84.1703 228.622 76.1782L218.622 76.1868C218.63 85.6666 220.696 94.2891 224.943 101.92L233.681 97.0556ZM228.622 76.1782C228.615 68.186 230.331 61.2688 233.645 55.2921L224.899 50.4431C220.665 58.0809 218.614 66.7069 218.622 76.1868L228.622 76.1782ZM233.635 55.3101C237.047 49.2148 241.714 44.5487 247.692 41.2205L242.828 32.4831C235.205 36.7267 229.213 42.7377 224.909 50.4251L233.635 55.3101ZM247.733 41.1975C253.697 37.804 260.596 36.0427 268.57 36.0358L268.561 26.0358C259.062 26.044 250.425 28.16 242.787 32.5062L247.733 41.1975ZM268.57 36.0358C278.324 36.0274 286.167 38.37 292.395 42.7796L298.173 34.6181C289.944 28.792 279.975 26.026 268.561 26.0358L268.57 36.0358ZM292.417 42.7952C298.704 47.1954 302.876 53.2569 304.953 61.2393L314.631 58.7214C311.988 48.5638 306.489 40.4377 298.151 34.6024L292.417 42.7952ZM309.788 54.9804L285.974 55.0008L285.983 65.0008L309.797 64.9804L309.788 54.9804ZM378.339 104.777L383.074 103.169L381.921 99.7743L378.335 99.7774L378.339 104.777ZM345.327 104.806L345.323 99.8058L341.738 99.8089L340.59 103.206L345.327 104.806ZM340.049 120.434L340.053 125.434L343.639 125.431L344.786 122.034L340.049 120.434ZM317.495 120.454L312.792 118.757L310.373 125.46L317.499 125.454L317.495 120.454ZM349.423 31.9743L349.418 26.9743L345.91 26.9773L344.72 30.2771L349.423 31.9743ZM374.371 31.9528L379.071 30.2476L377.875 26.9498L374.366 26.9528L374.371 31.9528ZM406.451 120.377L406.455 125.377L413.581 125.371L411.151 118.672L406.451 120.377ZM383.645 120.397L378.91 122.005L380.064 125.4L383.649 125.397L383.645 120.397ZM372.781 88.1502L372.785 93.1502L379.757 93.1442L377.516 86.5429L372.781 88.1502ZM361.791 55.7776L366.526 54.1703L361.75 40.1033L357.048 54.195L361.791 55.7776ZM350.983 88.1689L346.24 86.5863L344.042 93.1749L350.987 93.1689L350.983 88.1689ZM378.335 99.7774L345.323 99.8058L345.332 109.806L378.344 109.777L378.335 99.7774ZM340.59 103.206L335.312 118.834L344.786 122.034L350.064 106.406L340.59 103.206ZM340.045 115.434L317.491 115.454L317.499 125.454L340.053 125.434L340.045 115.434ZM322.198 122.151L354.126 33.6714L344.72 30.2771L312.792 118.757L322.198 122.151ZM349.427 36.9743L374.375 36.9528L374.366 26.9528L349.418 26.9743L349.427 36.9743ZM369.67 33.658L401.751 122.082L411.151 118.672L379.071 30.2476L369.67 33.658ZM406.446 115.377L383.64 115.397L383.649 125.397L406.455 125.377L406.446 115.377ZM388.379 118.789L383.074 103.169L373.605 106.386L378.91 122.005L388.379 118.789ZM377.516 86.5429L366.526 54.1703L357.057 57.3849L368.046 89.7575L377.516 86.5429ZM357.048 54.195L346.24 86.5863L355.726 89.7515L366.534 57.3602L357.048 54.195ZM350.987 93.1689L372.785 93.1502L372.777 83.1502L350.979 83.1689L350.987 93.1689ZM495.319 120.301L495.323 125.301L500.323 125.297L500.319 120.297L495.319 120.301ZM473.773 120.319L469.603 123.079L471.088 125.322L473.777 125.319L473.773 120.319ZM437.69 65.7924L441.86 63.0331L432.676 49.1546L432.69 65.7967L437.69 65.7924ZM437.737 120.35L437.741 125.35L442.741 125.346L442.737 120.346L437.737 120.35ZM416.191 120.369L411.191 120.373L411.195 125.373L416.195 125.369L416.191 120.369ZM416.115 31.9169L416.111 26.9169L411.111 26.9212L411.115 31.9212L416.115 31.9169ZM437.661 31.8984L441.837 29.1479L440.353 26.8961L437.657 26.8984L437.661 31.8984ZM473.744 86.6774L469.569 89.4278L478.759 103.379L478.744 86.6731L473.744 86.6774ZM473.697 31.8674L473.693 26.8674L468.693 26.8717L468.697 31.8717L473.697 31.8674ZM495.243 31.8489L500.243 31.8446L500.239 26.8446L495.239 26.8489L495.243 31.8489ZM495.315 115.301L473.769 115.319L473.777 125.319L495.323 125.301L495.315 115.301ZM477.943 117.56L441.86 63.0331L433.521 68.5516L469.603 123.079L477.943 117.56ZM432.69 65.7967L432.737 120.355L442.737 120.346L442.69 65.7881L432.69 65.7967ZM437.733 115.35L416.187 115.369L416.195 125.369L437.741 125.35L437.733 115.35ZM421.191 120.365L421.115 31.9126L411.115 31.9212L411.191 120.373L421.191 120.365ZM416.119 36.9169L437.665 36.8984L437.657 26.8984L416.111 26.9169L416.119 36.9169ZM433.486 34.6488L469.569 89.4278L477.92 83.9269L441.837 29.1479L433.486 34.6488ZM478.744 86.6731L478.697 31.8631L468.697 31.8717L468.744 86.6817L478.744 86.6731ZM473.701 36.8674L495.247 36.8489L495.239 26.8489L473.693 26.8674L473.701 36.8674ZM490.243 31.8532L490.319 120.305L500.319 120.297L500.243 31.8446L490.243 31.8532ZM512.895 52.6237L517.268 55.0481L517.274 55.0368L517.28 55.0254L512.895 52.6237ZM528.631 36.6081L531.086 40.9639L531.095 40.9589L531.104 40.9538L528.631 36.6081ZM578.655 39.0851L581.63 35.0664L581.63 35.0664L578.655 39.0851ZM593.669 61.7522L593.673 66.7522L600.159 66.7466L598.503 60.4756L593.669 61.7522ZM569.981 61.7726L565.47 63.9301L566.831 66.7753L569.985 66.7726L569.981 61.7726ZM562.414 53.3371L559.828 57.6168L559.853 57.6316L559.877 57.6461L562.414 53.3371ZM535.327 57.3924L539.063 60.7152L539.063 60.7152L535.327 57.3924ZM562.452 98.4451L559.909 94.1404L559.884 94.155L559.86 94.1698L562.452 98.4451ZM570.005 89.9966L570.001 84.9966L566.847 84.9993L565.491 87.8468L570.005 89.9966ZM593.693 89.9762L598.53 91.2445L600.175 84.9706L593.689 84.9762L593.693 89.9762ZM578.719 112.669L581.671 116.704L581.686 116.694L581.7 116.683L578.719 112.669ZM528.699 115.232L526.21 119.569L526.242 119.587L526.274 119.605L528.699 115.232ZM512.935 99.2437L517.304 96.8117L517.304 96.8117L512.935 99.2437ZM512.245 75.9342C512.238 67.9421 513.954 61.0249 517.268 55.0481L508.522 50.1992C504.288 57.837 502.237 66.463 502.245 75.9428L512.245 75.9342ZM517.28 55.0254C520.615 48.9365 525.199 44.2822 531.086 40.9639L526.176 32.2524C518.63 36.5057 512.723 42.5284 508.51 50.222L517.28 55.0254ZM531.104 40.9538C537.082 37.552 543.902 35.799 551.689 35.7923L551.68 25.7923C542.331 25.8004 533.782 27.9246 526.158 32.2625L531.104 40.9538ZM551.689 35.7923C561.26 35.7841 569.171 38.285 575.681 43.1039L581.63 35.0664C573.179 28.8101 563.109 25.7825 551.68 25.7923L551.689 35.7923ZM575.681 43.1039C582.187 47.9203 586.577 54.4784 588.835 63.0288L598.503 60.4756C595.705 49.8784 590.085 41.3251 581.63 35.0664L575.681 43.1039ZM593.665 56.7522L569.977 56.7726L569.985 66.7726L593.673 66.7522L593.665 56.7522ZM574.491 59.6151C572.33 55.0953 569.152 51.5012 564.95 49.0281L559.877 57.6461C562.231 59.0314 564.098 61.061 565.47 63.9301L574.491 59.6151ZM564.999 49.0574C560.945 46.6084 556.377 45.4443 551.445 45.4485L551.453 55.4485C554.754 55.4457 557.495 56.2073 559.828 57.6168L564.999 49.0574ZM551.445 45.4485C543.499 45.4554 536.726 48.2962 531.591 54.0696L539.063 60.7152C542.153 57.2415 546.127 55.4531 551.453 55.4485L551.445 45.4485ZM531.591 54.0696C526.475 59.8217 524.162 67.2866 524.169 75.924L534.169 75.9154C534.163 69.0968 535.955 64.2101 539.063 60.7152L531.591 54.0696ZM524.169 75.924C524.177 84.5614 526.503 92.0223 531.629 97.7656L539.089 91.1071C535.975 87.6176 534.175 82.734 534.169 75.9154L524.169 75.924ZM531.629 97.7656C536.773 103.53 543.552 106.359 551.497 106.353L551.489 96.3525C546.162 96.3571 542.185 94.5755 539.089 91.1071L531.629 97.7656ZM551.497 106.353C556.429 106.348 560.995 105.176 565.045 102.72L559.86 94.1698C557.529 95.5833 554.789 96.3497 551.489 96.3525L551.497 106.353ZM564.996 102.75C569.194 100.269 572.365 96.6699 574.519 92.1463L565.491 87.8468C564.123 90.7183 562.26 92.7511 559.909 94.1404L564.996 102.75ZM570.01 94.9966L593.697 94.9762L593.689 84.9762L570.001 84.9966L570.01 94.9966ZM588.857 88.7079C586.613 97.2622 582.235 103.828 575.737 108.655L581.7 116.683C590.145 110.409 595.749 101.847 598.53 91.2445L588.857 88.7079ZM575.766 108.634C569.263 113.392 561.346 115.874 551.757 115.882L551.766 125.882C563.178 125.872 573.232 122.879 581.671 116.704L575.766 108.634ZM551.757 115.882C543.952 115.889 537.114 114.181 531.123 110.859L526.274 119.605C533.898 123.832 542.436 125.89 551.766 125.882L551.757 115.882ZM531.188 110.895C525.256 107.491 520.65 102.822 517.304 96.8117L508.566 101.676C512.792 109.267 518.695 115.256 526.21 119.569L531.188 110.895ZM517.304 96.8117C513.98 90.8407 512.252 83.9264 512.245 75.9342L502.245 75.9428C502.253 85.4227 504.319 94.0452 508.566 101.676L517.304 96.8117ZM628.399 48.9963L628.394 43.9963L623.394 44.0006L623.399 49.0006L628.399 48.9963ZM628.414 66.8883L623.414 66.8926L623.418 71.8926L628.418 71.8883L628.414 66.8883ZM657.268 66.8635L662.268 66.8592L662.264 61.8592L657.264 61.8635L657.268 66.8635ZM657.282 83.4955L657.287 88.4955L662.287 88.4912L662.282 83.4912L657.282 83.4955ZM628.428 83.5203L628.424 78.5203L623.424 78.5246L623.428 83.5246L628.428 83.5203ZM628.445 102.924L623.445 102.929L623.449 107.929L628.449 107.924L628.445 102.924ZM661.079 102.896L666.079 102.892L666.075 97.892L661.075 97.8963L661.079 102.896ZM661.094 120.158L661.098 125.158L666.098 125.154L666.094 120.154L661.094 120.158ZM606.914 120.205L601.914 120.209L601.918 125.209L606.918 125.205L606.914 120.205ZM606.838 31.7529L606.833 26.7529L601.833 26.7572L601.838 31.7572L606.838 31.7529ZM661.018 31.7063L666.018 31.702L666.013 26.702L661.013 26.7063L661.018 31.7063ZM661.033 48.9683L661.037 53.9683L666.037 53.964L666.033 48.964L661.033 48.9683ZM623.399 49.0006L623.414 66.8926L633.414 66.884L633.399 48.992L623.399 49.0006ZM628.418 71.8883L657.272 71.8635L657.264 61.8635L628.41 61.8883L628.418 71.8883ZM652.268 66.8678L652.282 83.4998L662.282 83.4912L662.268 66.8592L652.268 66.8678ZM657.278 78.4955L628.424 78.5203L628.433 88.5203L657.287 88.4955L657.278 78.4955ZM623.428 83.5246L623.445 102.929L633.445 102.92L633.428 83.516L623.428 83.5246ZM628.449 107.924L661.083 107.896L661.075 97.8963L628.441 97.9243L628.449 107.924ZM656.079 102.901L656.094 120.163L666.094 120.154L666.079 102.892L656.079 102.901ZM661.089 115.158L606.909 115.205L606.918 125.205L661.098 125.158L661.089 115.158ZM611.914 120.201L611.838 31.7486L601.838 31.7572L601.914 120.209L611.914 120.201ZM606.842 36.7529L661.022 36.7063L661.013 26.7063L606.833 26.7529L606.842 36.7529ZM656.018 31.7106L656.033 48.9726L666.033 48.964L666.018 31.702L656.018 31.7106ZM661.028 43.9683L628.394 43.9963L628.403 53.9963L661.037 53.9683L661.028 43.9683ZM82.3761 309.656L78.4003 312.688L79.9028 314.658L82.3804 314.656L82.3761 309.656ZM52.6065 270.622L56.5822 267.59L47.5937 255.804L47.6065 270.626L52.6065 270.622ZM52.6401 309.682L52.6444 314.682L57.6444 314.677L57.6401 309.677L52.6401 309.682ZM31.0941 309.7L26.0941 309.704L26.0984 314.704L31.0984 314.7L31.0941 309.7ZM31.018 221.248L31.0137 216.248L26.0137 216.252L26.018 221.252L31.018 221.248ZM52.564 221.23L57.564 221.225L57.5597 216.225L52.5597 216.23L52.564 221.23ZM52.5974 260.038L47.5974 260.042L47.6101 274.888L56.5813 263.059L52.5974 260.038ZM82.048 221.204L82.0437 216.204L79.5631 216.206L78.0641 218.183L82.048 221.204ZM107.374 221.182L111.299 224.28L117.697 216.174L107.37 216.182L107.374 221.182ZM73.1393 264.556L69.2145 261.458L66.7697 264.556L69.2142 267.653L73.1393 264.556ZM108.71 309.633L108.714 314.633L119.018 314.625L112.635 306.536L108.71 309.633ZM86.3518 306.624L56.5822 267.59L48.6308 273.654L78.4003 312.688L86.3518 306.624ZM47.6065 270.626L47.6401 309.686L57.6401 309.677L57.6065 270.617L47.6065 270.626ZM52.6358 304.682L31.0898 304.7L31.0984 314.7L52.6444 314.682L52.6358 304.682ZM36.0941 309.696L36.018 221.244L26.018 221.252L26.0941 309.704L36.0941 309.696ZM31.0223 226.248L52.5683 226.23L52.5597 216.23L31.0137 216.248L31.0223 226.248ZM47.564 221.234L47.5974 260.042L57.5974 260.033L57.564 221.225L47.564 221.234ZM56.5813 263.059L86.0319 224.226L78.0641 218.183L48.6135 257.016L56.5813 263.059ZM82.0523 226.204L107.378 226.182L107.37 216.182L82.0437 216.204L82.0523 226.204ZM103.449 218.085L69.2145 261.458L77.064 267.654L111.299 224.28L103.449 218.085ZM69.2142 267.653L104.785 312.731L112.635 306.536L77.0644 261.459L69.2142 267.653ZM108.706 304.633L82.3718 304.656L82.3804 314.656L108.714 314.633L108.706 304.633ZM198.077 309.557L198.082 314.557L203.082 314.552L203.077 309.552L198.077 309.557ZM176.532 309.575L172.362 312.334L173.846 314.577L176.536 314.575L176.532 309.575ZM140.449 255.048L144.618 252.289L135.434 238.41L135.449 255.052L140.449 255.048ZM140.496 309.606L140.5 314.606L145.5 314.602L145.496 309.602L140.496 309.606ZM118.95 309.625L113.95 309.629L113.954 314.629L118.954 314.625L118.95 309.625ZM118.873 221.173L118.869 216.173L113.869 216.177L113.873 221.177L118.873 221.173ZM140.419 221.154L144.595 218.404L143.112 216.152L140.415 216.154L140.419 221.154ZM176.503 275.933L172.327 278.684L181.517 292.635L181.503 275.929L176.503 275.933ZM176.455 221.123L176.451 216.123L171.451 216.127L171.455 221.127L176.455 221.123ZM198.001 221.105L203.001 221.1L202.997 216.1L197.997 216.105L198.001 221.105ZM198.073 304.557L176.527 304.575L176.536 314.575L198.082 314.557L198.073 304.557ZM180.701 306.816L144.618 252.289L136.279 257.807L172.362 312.334L180.701 306.816ZM135.449 255.052L135.496 309.61L145.496 309.602L145.449 255.044L135.449 255.052ZM140.491 304.606L118.945 304.625L118.954 314.625L140.5 314.606L140.491 304.606ZM123.95 309.62L123.873 221.168L113.873 221.177L113.95 309.629L123.95 309.62ZM118.878 226.173L140.424 226.154L140.415 216.154L118.869 216.173L118.878 226.173ZM136.244 223.905L172.327 278.684L180.678 273.183L144.595 218.404L136.244 223.905ZM181.503 275.929L181.455 221.119L171.455 221.127L171.503 275.937L181.503 275.929ZM176.46 226.123L198.006 226.105L197.997 216.105L176.451 216.123L176.46 226.123ZM193.001 221.109L193.077 309.561L203.077 309.552L203.001 221.1L193.001 221.109ZM232.591 304.613L230.149 308.976L230.16 308.982L230.171 308.988L232.591 304.613ZM216.071 288.499L211.745 291.006L211.763 291.037L211.782 291.068L216.071 288.499ZM216.031 241.753L211.737 239.192L211.725 239.211L211.714 239.231L216.031 241.753ZM232.523 225.611L230.096 221.24L230.085 221.246L230.073 221.252L232.523 225.611ZM278.261 225.572L275.819 229.934L275.83 229.941L275.841 229.947L278.261 225.572ZM294.655 241.685L290.319 244.176L290.331 244.195L290.342 244.215L294.655 241.685ZM294.695 288.431L299.013 290.954L299.019 290.942L299.026 290.931L294.695 288.431ZM278.329 304.574L280.779 308.932L280.779 308.932L278.329 304.574ZM272.389 283.663L268.69 280.299L268.673 280.317L268.657 280.336L272.389 283.663ZM272.357 246.367L268.63 249.7L268.662 249.735L268.694 249.769L272.357 246.367ZM238.337 246.27L234.668 242.873L234.651 242.891L234.635 242.91L238.337 246.27ZM238.369 283.818L234.643 287.151L234.674 287.186L234.706 287.221L238.369 283.818ZM255.524 305.389C248.018 305.396 241.212 303.667 235.011 300.237L230.171 308.988C237.921 313.275 246.407 315.397 255.533 315.389L255.524 305.389ZM235.034 300.25C228.917 296.826 224.042 292.078 220.361 285.931L211.782 291.068C216.345 298.689 222.483 304.684 230.149 308.976L235.034 300.25ZM220.398 285.992C216.833 279.84 215.01 272.905 215.003 265.064L205.003 265.073C205.011 274.536 207.234 283.221 211.745 291.006L220.398 285.992ZM215.003 265.064C214.997 257.223 216.808 250.336 220.349 244.275L211.714 239.231C207.203 246.953 204.995 255.61 205.003 265.073L215.003 265.064ZM220.326 244.314C223.996 238.16 228.863 233.404 234.973 229.969L230.073 221.252C222.415 225.557 216.287 231.563 211.737 239.192L220.326 244.314ZM234.951 229.982C241.146 226.542 247.949 224.802 255.455 224.795L255.446 214.795C246.32 214.803 237.839 216.94 230.096 221.24L234.951 229.982ZM255.455 224.795C262.961 224.789 269.715 226.517 275.819 229.934L280.704 221.209C273.025 216.91 264.572 214.787 255.446 214.795L255.455 224.795ZM275.841 229.947C282.021 233.365 286.822 238.086 290.319 244.176L298.991 239.195C294.581 231.516 288.452 225.494 280.681 221.196L275.841 229.947ZM290.342 244.215C293.894 250.27 295.717 257.153 295.723 264.995L305.723 264.986C305.715 255.523 303.493 246.87 298.968 239.156L290.342 244.215ZM295.723 264.995C295.73 272.835 293.919 279.774 290.365 285.932L299.026 290.931C303.524 283.138 305.731 274.449 305.723 264.986L295.723 264.995ZM290.378 285.909C286.795 292.042 281.981 296.785 275.879 300.215L280.779 308.932C288.447 304.622 294.543 298.604 299.013 290.954L290.378 285.909ZM275.879 300.215C269.781 303.643 263.03 305.383 255.524 305.389L255.533 315.389C264.658 315.381 273.108 313.244 280.779 308.932L275.879 300.215ZM255.516 295.733C263.807 295.726 270.86 292.893 276.122 286.989L268.657 280.336C265.527 283.847 261.327 285.728 255.507 285.733L255.516 295.733ZM276.089 287.026C281.378 281.208 283.807 273.697 283.799 265.005L273.799 265.013C273.805 271.777 271.96 276.702 268.69 280.299L276.089 287.026ZM283.799 265.005C283.792 256.249 281.36 248.712 276.021 242.964L268.694 249.769C271.93 253.254 273.793 258.146 273.799 265.013L283.799 265.005ZM276.084 243.033C270.812 237.138 263.755 234.318 255.463 234.325L255.472 244.325C261.292 244.32 265.495 246.194 268.63 249.7L276.084 243.033ZM255.463 234.325C247.136 234.332 240.024 237.088 234.668 242.873L242.006 249.666C245.211 246.205 249.519 244.33 255.472 244.325L255.463 234.325ZM234.635 242.91C229.399 248.679 227.046 256.255 227.053 265.054L237.053 265.045C237.047 258.051 238.884 253.108 242.04 249.63L234.635 242.91ZM227.053 265.054C227.061 273.788 229.437 281.33 234.643 287.151L242.096 280.485C238.894 276.904 237.059 271.934 237.053 265.045L227.053 265.054ZM234.706 287.221C240.072 292.997 247.189 295.74 255.516 295.733L255.507 285.733C249.554 285.738 245.243 283.871 242.033 280.415L234.706 287.221ZM434.388 220.901L439.228 222.158L440.854 215.896L434.384 215.901L434.388 220.901ZM411.406 309.373L411.411 314.373L415.274 314.37L416.246 310.63L411.406 309.373ZM385.324 309.395L380.466 310.578L381.396 314.399L385.329 314.395L385.324 309.395ZM371.162 251.196L376.02 250.013L366.312 249.982L371.162 251.196ZM356.596 309.42L356.601 314.42L360.5 314.417L361.447 310.634L356.596 309.42ZM330.514 309.443L325.669 310.676L326.628 314.446L330.519 314.443L330.514 309.443ZM308.01 221.01L308.006 216.01L301.58 216.015L303.165 222.243L308.01 221.01ZM331.068 220.99L335.972 220.016L335.172 215.987L331.064 215.99L331.068 220.99ZM343.85 285.365L338.945 286.339L348.707 286.549L343.85 285.365ZM359.544 220.966L359.54 215.966L355.616 215.969L354.686 219.782L359.544 220.966ZM383.232 220.945L388.099 219.798L387.19 215.942L383.228 215.945L383.232 220.945ZM398.408 285.318L393.541 286.465L403.312 286.293L398.408 285.318ZM411.204 220.921L411.2 215.921L407.099 215.925L406.3 219.947L411.204 220.921ZM429.549 219.644L406.567 308.116L416.246 310.63L439.228 222.158L429.549 219.644ZM411.402 304.373L385.32 304.395L385.329 314.395L411.411 314.373L411.402 304.373ZM390.182 308.213L376.02 250.013L366.304 252.378L380.466 310.578L390.182 308.213ZM366.312 249.982L351.746 308.207L361.447 310.634L376.013 252.409L366.312 249.982ZM356.592 304.42L330.51 304.443L330.519 314.443L356.601 314.42L356.592 304.42ZM335.36 308.21L312.856 219.777L303.165 222.243L325.669 310.676L335.36 308.21ZM308.015 226.01L331.073 225.99L331.064 215.99L308.006 216.01L308.015 226.01ZM326.164 221.964L338.945 286.339L348.754 284.391L335.972 220.016L326.164 221.964ZM348.707 286.549L364.402 222.15L354.686 219.782L338.992 284.181L348.707 286.549ZM359.548 225.966L383.236 225.945L383.228 215.945L359.54 215.966L359.548 225.966ZM378.366 222.093L393.541 286.465L403.274 284.171L388.099 219.798L378.366 222.093ZM403.312 286.293L416.108 221.896L406.3 219.947L393.503 284.344L403.312 286.293ZM411.208 225.921L434.392 225.901L434.384 215.901L411.2 215.921L411.208 225.921ZM459.884 307.063L457.992 311.692L457.992 311.692L459.884 307.063ZM447.528 297.75L443.501 300.714L443.52 300.74L443.54 300.766L447.528 297.75ZM442.727 282.886L442.723 277.886L437.576 277.891L437.729 283.035L442.727 282.886ZM465.659 282.866L470.632 282.352L470.168 277.863L465.655 277.866L465.659 282.866ZM469.067 290.423L465.699 294.119L465.744 294.16L465.79 294.199L469.067 290.423ZM484.188 290.788L487.248 294.742L487.303 294.7L487.357 294.656L484.188 290.788ZM484.682 279.196L481.149 282.735L481.2 282.785L481.252 282.834L484.682 279.196ZM479.261 275.673L477.251 280.251L477.284 280.265L477.317 280.279L479.261 275.673ZM470.186 272.53L468.715 277.309L468.739 277.317L468.763 277.324L470.186 272.53ZM446.865 259.447L450.851 256.428L450.851 256.428L446.865 259.447ZM451.877 226.682L454.942 230.632L454.959 230.619L454.976 230.605L451.877 226.682ZM498.749 226.642L495.656 230.57L495.673 230.584L495.69 230.597L498.749 226.642ZM508.341 246.038L508.346 251.038L513.604 251.033L513.335 245.781L508.341 246.038ZM485.031 246.058L480.04 246.356L480.321 251.062L485.036 251.058L485.031 246.058ZM481.876 239.382L478.598 243.158L478.646 243.2L478.694 243.24L481.876 239.382ZM468.141 239.016L471.365 242.838L471.423 242.79L471.478 242.74L468.141 239.016ZM469.79 251.615L472.339 247.313L472.339 247.313L469.79 251.615ZM482.395 256.77L483.992 252.032L483.961 252.022L483.93 252.011L482.395 256.77ZM496.259 262.302L494.027 266.776L494.048 266.787L494.069 266.797L496.259 262.302ZM505.59 269.98L501.64 273.046L501.64 273.046L505.59 269.98ZM505.613 296.692L501.385 294.022L501.366 294.054L501.346 294.085L505.613 296.692ZM494.533 306.53L492.293 302.059L492.293 302.059L494.533 306.53ZM477.27 305.198C471.345 305.204 466.207 304.247 461.776 302.435L457.992 311.692C463.812 314.071 470.268 315.204 477.279 315.198L477.27 305.198ZM461.776 302.435C457.417 300.653 454.046 298.079 451.515 294.734L443.54 300.766C447.233 305.648 452.099 309.282 457.992 311.692L461.776 302.435ZM451.555 294.786C449.208 291.598 447.872 287.66 447.725 282.737L437.729 283.035C437.928 289.704 439.792 295.675 443.501 300.714L451.555 294.786ZM442.731 287.886L465.663 287.866L465.655 277.866L442.723 277.886L442.731 287.886ZM460.685 283.381C461.117 287.55 462.641 291.331 465.699 294.119L472.436 286.728C471.627 285.991 470.879 284.734 470.632 282.352L460.685 283.381ZM465.79 294.199C468.819 296.828 472.59 297.94 476.634 297.937L476.625 287.937C474.454 287.939 473.183 287.375 472.345 286.648L465.79 294.199ZM476.634 297.937C480.531 297.934 484.255 297.059 487.248 294.742L481.127 286.835C480.427 287.377 479.112 287.935 476.625 287.937L476.634 297.937ZM487.357 294.656C490.478 292.097 491.958 288.557 491.954 284.608L481.954 284.616C481.956 285.875 481.591 286.452 481.018 286.921L487.357 294.656ZM491.954 284.608C491.951 281.126 490.681 277.98 488.112 275.558L481.252 282.834C481.709 283.265 481.954 283.731 481.954 284.616L491.954 284.608ZM488.214 275.657C486.257 273.704 483.881 272.196 481.205 271.066L477.317 280.279C479.01 280.994 480.248 281.835 481.149 282.735L488.214 275.657ZM481.271 271.094C478.885 270.047 475.628 268.931 471.609 267.737L468.763 277.324C472.642 278.476 475.434 279.454 477.251 280.251L481.271 271.094ZM471.657 267.752C466.084 266.036 461.685 264.364 458.386 262.756L454.005 271.745C457.933 273.659 462.861 275.507 468.715 277.309L471.657 267.752ZM458.386 262.756C455.53 261.364 453.019 259.291 450.851 256.428L442.879 262.466C445.924 266.486 449.634 269.615 454.005 271.745L458.386 262.756ZM450.851 256.428C449.067 254.073 447.951 250.73 447.947 245.964L437.947 245.972C437.953 252.293 439.449 257.937 442.879 262.466L450.851 256.428ZM447.947 245.964C447.941 239.116 450.326 234.214 454.942 230.632L448.811 222.732C441.507 228.4 437.939 236.356 437.947 245.972L447.947 245.964ZM454.976 230.605C459.846 226.758 466.434 224.614 475.185 224.606L475.176 214.606C464.775 214.615 455.827 217.189 448.777 222.759L454.976 230.605ZM475.185 224.606C484.127 224.598 490.794 226.742 495.656 230.57L501.842 222.713C494.768 217.144 485.722 214.597 475.176 214.606L475.185 224.606ZM495.69 230.597C500.376 234.221 502.987 239.265 503.348 246.294L513.335 245.781C512.841 236.179 509.057 228.292 501.807 222.687L495.69 230.597ZM508.337 241.038L485.027 241.058L485.036 251.058L508.346 251.038L508.337 241.038ZM490.022 245.76C489.782 241.733 488.218 238.132 485.057 235.525L478.694 243.24C479.4 243.822 479.94 244.67 480.04 246.356L490.022 245.76ZM485.153 235.607C482.149 232.999 478.435 231.865 474.435 231.869L474.444 241.869C476.492 241.867 477.735 242.409 478.598 243.158L485.153 235.607ZM474.435 231.869C470.879 231.872 467.503 232.874 464.804 235.293L471.478 242.74C471.969 242.3 472.791 241.87 474.444 241.869L474.435 231.869ZM464.917 235.194C461.923 237.72 460.749 241.263 460.752 244.945L470.752 244.936C470.751 243.409 471.17 243.003 471.365 242.838L464.917 235.194ZM460.752 244.945C460.756 249.758 463.207 253.526 467.241 255.916L472.339 247.313C470.994 246.516 470.753 245.835 470.752 244.936L460.752 244.945ZM467.241 255.916C470.422 257.801 475.052 259.655 480.86 261.529L483.93 252.011C478.309 250.198 474.537 248.616 472.339 247.313L467.241 255.916ZM480.797 261.508C486.394 263.396 490.78 265.156 494.027 266.776L498.491 257.828C494.68 255.926 489.823 253.999 483.992 252.032L480.797 261.508ZM494.069 266.797C496.955 268.203 499.475 270.257 501.64 273.046L509.539 266.914C506.491 262.987 502.791 259.923 498.45 257.807L494.069 266.797ZM501.64 273.046C503.415 275.332 504.503 278.499 504.507 282.959L514.507 282.95C514.502 276.827 512.979 271.344 509.539 266.914L501.64 273.046ZM504.507 282.959C504.511 287.087 503.462 290.733 501.385 294.022L509.841 299.362C512.965 294.414 514.512 288.902 514.507 282.95L504.507 282.959ZM501.346 294.085C499.378 297.305 496.437 299.983 492.293 302.059L496.773 311C502.369 308.196 506.814 304.315 509.879 299.299L501.346 294.085ZM492.293 302.059C488.253 304.084 483.297 305.193 477.27 305.198L477.279 315.198C484.524 315.192 491.074 313.855 496.773 311L492.293 302.059ZM110.385 498.632L110.389 503.632L115.389 503.628L115.385 498.628L110.385 498.632ZM88.8386 498.651L84.6689 501.41L86.1532 503.653L88.8429 503.651L88.8386 498.651ZM52.7557 444.124L56.9254 441.364L47.7414 427.486L47.7557 444.128L52.7557 444.124ZM52.8026 498.682L52.8069 503.682L57.8069 503.677L57.8026 498.677L52.8026 498.682ZM31.2566 498.7L26.2566 498.704L26.2609 503.704L31.2609 503.7L31.2566 498.7ZM31.1806 410.248L31.1763 405.248L26.1763 405.252L26.1806 410.252L31.1806 410.248ZM52.7265 410.23L56.9021 407.479L55.4188 405.227L52.7222 405.23L52.7265 410.23ZM88.8097 465.009L84.6341 467.759L93.824 481.71L93.8097 465.004L88.8097 465.009ZM88.7625 410.199L88.7582 405.199L83.7582 405.203L83.7625 410.203L88.7625 410.199ZM110.309 410.18L115.309 410.176L115.304 405.176L110.304 405.18L110.309 410.18ZM110.38 493.632L88.8343 493.651L88.8429 503.651L110.389 503.632L110.38 493.632ZM93.0083 495.891L56.9254 441.364L48.586 446.883L84.6689 501.41L93.0083 495.891ZM47.7557 444.128L47.8026 498.686L57.8026 498.677L57.7557 444.119L47.7557 444.128ZM52.7983 493.682L31.2523 493.7L31.2609 503.7L52.8069 503.682L52.7983 493.682ZM36.2566 498.696L36.1806 410.244L26.1806 410.252L26.2566 498.704L36.2566 498.696ZM31.1849 415.248L52.7308 415.23L52.7222 405.23L31.1763 405.248L31.1849 415.248ZM48.551 412.98L84.6341 467.759L92.9852 462.258L56.9021 407.479L48.551 412.98ZM93.8097 465.004L93.7625 410.194L83.7625 410.203L83.8097 465.013L93.8097 465.004ZM88.7668 415.199L110.313 415.18L110.304 405.18L88.7582 405.199L88.7668 415.199ZM105.309 410.184L105.385 498.636L115.385 498.628L115.309 410.176L105.309 410.184ZM144.898 493.688L142.456 498.051L142.467 498.057L142.478 498.064L144.898 493.688ZM128.379 477.575L124.052 480.081L124.07 480.112L124.089 480.143L128.379 477.575ZM128.338 430.829L124.044 428.267L124.033 428.287L124.021 428.306L128.338 430.829ZM144.831 414.686L142.403 410.315L142.392 410.321L142.381 410.328L144.831 414.686ZM190.568 414.647L188.126 419.01L188.137 419.016L188.149 419.022L190.568 414.647ZM206.962 430.761L202.627 433.251L202.638 433.271L202.649 433.291L206.962 430.761ZM207.003 477.507L211.32 480.029L211.326 480.018L211.333 480.006L207.003 477.507ZM190.636 493.649L193.086 498.008L193.086 498.008L190.636 493.649ZM184.696 472.738L180.997 469.375L180.98 469.393L180.964 469.411L184.696 472.738ZM184.664 435.442L180.938 438.775L180.969 438.81L181.001 438.845L184.664 435.442ZM150.644 435.345L146.975 431.949L146.958 431.967L146.942 431.985L150.644 435.345ZM150.677 472.893L146.95 476.227L146.981 476.262L147.013 476.296L150.677 472.893ZM167.831 494.465C160.325 494.471 153.519 492.743 147.318 489.313L142.478 498.064C150.228 502.35 158.714 504.472 167.84 504.465L167.831 494.465ZM147.341 489.326C141.224 485.901 136.349 481.154 132.668 475.006L124.089 480.143C128.652 487.764 134.79 493.759 142.456 498.051L147.341 489.326ZM132.705 475.068C129.14 468.916 127.317 461.98 127.31 454.139L117.31 454.148C117.319 463.611 119.541 472.296 124.052 480.081L132.705 475.068ZM127.31 454.139C127.304 446.298 129.115 439.412 132.656 433.351L124.021 428.306C119.51 436.028 117.302 444.685 117.31 454.148L127.31 454.139ZM132.633 433.39C136.303 427.235 141.17 422.48 147.281 419.045L142.381 410.328C134.722 414.633 128.594 420.639 124.044 428.267L132.633 433.39ZM147.258 419.058C153.453 415.617 160.256 413.877 167.762 413.871L167.753 403.871C158.627 403.878 150.146 406.015 142.403 410.315L147.258 419.058ZM167.762 413.871C175.268 413.864 182.022 415.593 188.126 419.01L193.011 410.284C185.332 405.985 176.879 403.863 167.753 403.871L167.762 413.871ZM188.149 419.022C194.329 422.44 199.129 427.161 202.627 433.251L211.298 428.271C206.888 420.591 200.759 414.57 192.988 410.272L188.149 419.022ZM202.649 433.291C206.201 439.345 208.024 446.229 208.03 454.07L218.03 454.061C218.022 444.599 215.8 435.946 211.275 428.231L202.649 433.291ZM208.03 454.07C208.037 461.911 206.226 468.85 202.672 475.008L211.333 480.006C215.831 472.213 218.039 463.525 218.03 454.061L208.03 454.07ZM202.685 474.985C199.102 481.118 194.288 485.861 188.186 489.29L193.086 498.008C200.754 493.697 206.851 487.679 211.32 480.029L202.685 474.985ZM188.186 489.29C182.089 492.718 175.337 494.458 167.831 494.465L167.84 504.465C176.965 504.457 185.415 502.32 193.086 498.008L188.186 489.29ZM167.823 484.809C176.115 484.801 183.167 481.969 188.429 476.065L180.964 469.411C177.834 472.922 173.635 474.804 167.814 474.809L167.823 484.809ZM188.396 476.102C193.685 470.284 196.114 462.773 196.106 454.08L186.106 454.089C186.112 460.853 184.267 465.777 180.997 469.375L188.396 476.102ZM196.106 454.08C196.099 445.324 193.667 437.788 188.328 432.039L181.001 438.845C184.237 442.329 186.101 447.221 186.106 454.089L196.106 454.08ZM188.391 432.109C183.119 426.214 176.062 423.393 167.77 423.401L167.779 433.401C173.599 433.396 177.802 435.27 180.938 438.775L188.391 432.109ZM167.77 423.401C159.443 423.408 152.331 426.163 146.975 431.949L154.314 438.742C157.518 435.28 161.826 433.406 167.779 433.401L167.77 423.401ZM146.942 431.985C141.706 437.755 139.353 445.331 139.36 454.129L149.36 454.12C149.354 447.127 151.191 442.183 154.347 438.706L146.942 431.985ZM139.36 454.129C139.368 462.864 141.744 470.406 146.95 476.227L154.403 469.56C151.201 465.98 149.366 461.01 149.36 454.12L139.36 454.129ZM147.013 476.296C152.379 482.073 159.496 484.816 167.823 484.809L167.814 474.809C161.861 474.814 157.55 472.947 154.34 469.491L147.013 476.296ZM84.9301 642.294L83.5056 637.501L83.8922 647.185L84.9301 642.294ZM97.2847 649.969L93.3273 653.025L93.3429 653.045L93.3587 653.066L97.2847 649.969ZM94.1616 681.22L97.372 685.053L97.378 685.048L94.1616 681.22ZM31.4192 687.7L26.4192 687.704L26.4235 692.704L31.4235 692.7L31.4192 687.7ZM31.3431 599.248L31.3388 594.248L26.3388 594.252L26.3431 599.252L31.3431 599.248ZM92.2064 605.37L89.047 609.245L89.0627 609.258L89.0785 609.27L92.2064 605.37ZM95.76 635.103L91.8622 631.971L91.8387 632L91.8157 632.03L95.76 635.103ZM52.9199 635.013L47.9199 635.018L47.9242 640.018L52.9242 640.013L52.9199 635.013ZM75.0939 632.726L78.2634 636.593L78.2725 636.586L78.2816 636.578L75.0939 632.726ZM75.082 618.866L71.8171 622.653L71.8586 622.689L71.9009 622.724L75.082 618.866ZM52.9039 616.491L52.8996 611.491L47.8996 611.496L47.9039 616.496L52.9039 616.491ZM77.1401 667.879L80.3279 671.731L80.3361 671.724L80.3444 671.717L77.1401 667.879ZM77.0017 653.389L73.7124 657.154L73.7504 657.188L73.789 657.22L77.0017 653.389ZM52.9334 650.763L52.9291 645.763L47.9291 645.768L47.9334 650.768L52.9334 650.763ZM52.9502 670.293L47.9502 670.298L47.9545 675.298L52.9545 675.293L52.9502 670.293ZM83.8922 647.185C87.894 648.034 90.9633 649.964 93.3273 653.025L101.242 646.913C97.3832 641.916 92.2161 638.729 85.9681 637.403L83.8922 647.185ZM93.3587 653.066C95.7606 656.111 96.955 659.551 96.9584 663.578L106.958 663.569C106.953 657.347 105.032 651.718 101.211 646.873L93.3587 653.066ZM96.9584 663.578C96.9637 669.638 94.9098 674.061 90.9453 677.392L97.378 685.048C103.822 679.634 106.966 672.293 106.958 663.569L96.9584 663.578ZM90.9512 677.387C87.0212 680.678 81.1311 682.657 72.6169 682.665L72.6255 692.665C82.5912 692.656 91.0614 690.339 97.372 685.053L90.9512 677.387ZM72.6169 682.665L31.4149 682.7L31.4235 692.7L72.6255 692.665L72.6169 682.665ZM36.4192 687.696L36.3431 599.244L26.3431 599.252L26.4192 687.704L36.4192 687.696ZM31.3474 604.248L71.1634 604.214L71.1548 594.214L31.3388 594.248L31.3474 604.248ZM71.1634 604.214C79.4342 604.207 85.1845 606.096 89.047 609.245L95.3657 601.494C89.1412 596.42 80.8599 594.205 71.1548 594.214L71.1634 604.214ZM89.0785 609.27C92.9274 612.357 94.9019 616.457 94.9068 622.125L104.907 622.117C104.9 613.673 101.74 606.606 95.3343 601.469L89.0785 609.27ZM94.9068 622.125C94.9105 626.405 93.7947 629.566 91.8622 631.971L99.6577 638.234C103.263 633.747 104.912 628.253 104.907 622.117L94.9068 622.125ZM91.8157 632.03C89.8247 634.585 87.1291 636.424 83.5056 637.501L86.3547 647.087C91.8008 645.468 96.3252 642.513 99.7042 638.176L91.8157 632.03ZM52.9242 640.013L67.0362 640.001L67.0276 630.001L52.9156 630.013L52.9242 640.013ZM67.0362 640.001C71.1857 639.998 75.1844 639.117 78.2634 636.593L71.9244 628.859C71.31 629.363 69.934 629.999 67.0276 630.001L67.0362 640.001ZM78.2816 636.578C81.5998 633.833 82.9895 629.965 82.9859 625.79L72.9859 625.798C72.9876 627.671 72.4493 628.425 71.9062 628.874L78.2816 636.578ZM82.9859 625.79C82.9824 621.614 81.586 617.749 78.2631 615.009L71.9009 622.724C72.4448 623.172 72.9843 623.926 72.9859 625.798L82.9859 625.79ZM78.3468 615.079C75.2578 612.416 71.2155 611.476 67.0116 611.479L67.0202 621.479C69.8723 621.477 71.2074 622.128 71.8171 622.653L78.3468 615.079ZM67.0116 611.479L52.8996 611.491L52.9082 621.491L67.0202 621.479L67.0116 611.479ZM47.9039 616.496L47.9199 635.018L57.9199 635.009L57.9039 616.487L47.9039 616.496ZM68.8305 675.28C73.1037 675.276 77.1796 674.336 80.3279 671.731L73.9524 664.027C73.2394 664.617 71.7727 665.277 68.8219 665.28L68.8305 675.28ZM80.3444 671.717C83.7119 668.906 85.1616 664.979 85.158 660.69L75.158 660.698C75.1596 662.625 74.5975 663.488 73.9359 664.04L80.3444 671.717ZM85.158 660.69C85.1542 656.325 83.6065 652.402 80.2143 649.557L73.789 657.22C74.5999 657.9 75.1564 658.847 75.158 660.698L85.158 660.69ZM80.291 649.623C77.0849 646.823 72.9505 645.746 68.5531 645.75L68.5617 655.75C71.3883 655.748 72.8834 656.43 73.7124 657.154L80.291 649.623ZM68.5531 645.75L52.9291 645.763L52.9377 655.763L68.5617 655.75L68.5531 645.75ZM47.9334 650.768L47.9502 670.298L57.9502 670.289L57.9334 650.759L47.9334 650.768ZM52.9545 675.293L68.8305 675.28L68.8219 665.28L52.9459 665.293L52.9545 675.293ZM133.372 682.698L130.929 687.061L130.94 687.067L130.952 687.074L133.372 682.698ZM116.852 666.585L112.526 669.091L112.543 669.122L112.562 669.153L116.852 666.585ZM116.811 619.839L112.517 617.277L112.506 617.297L112.494 617.316L116.811 619.839ZM133.304 603.696L130.876 599.325L130.865 599.331L130.854 599.338L133.304 603.696ZM179.042 603.657L176.599 608.02L176.61 608.026L176.622 608.032L179.042 603.657ZM195.435 619.771L191.1 622.261L191.111 622.281L191.123 622.301L195.435 619.771ZM195.476 666.517L199.793 669.039L199.8 669.028L199.806 669.016L195.476 666.517ZM179.11 682.659L181.56 687.018L181.56 687.018L179.11 682.659ZM173.17 661.748L169.47 658.385L169.453 658.403L169.437 658.421L173.17 661.748ZM173.137 624.452L169.411 627.785L169.442 627.82L169.474 627.855L173.137 624.452ZM139.117 624.355L135.448 620.959L135.431 620.977L135.415 620.995L139.117 624.355ZM139.15 661.903L135.423 665.237L135.454 665.272L135.486 665.306L139.15 661.903ZM156.304 683.475C148.798 683.481 141.992 681.752 135.792 678.323L130.952 687.074C138.702 691.36 147.187 693.482 156.313 693.475L156.304 683.475ZM135.814 678.335C129.697 674.911 124.822 670.164 121.142 664.016L112.562 669.153C117.125 676.774 123.263 682.769 130.929 687.061L135.814 678.335ZM121.178 664.078C117.613 657.926 115.79 650.99 115.784 643.149L105.784 643.158C105.792 652.621 108.014 661.306 112.526 669.091L121.178 664.078ZM115.784 643.149C115.777 635.308 117.588 628.422 121.129 622.361L112.494 617.316C107.983 625.038 105.775 633.695 105.784 643.158L115.784 643.149ZM121.106 622.4C124.776 616.245 129.643 611.49 135.754 608.055L130.854 599.338C123.195 603.643 117.067 609.649 112.517 617.277L121.106 622.4ZM135.731 608.068C141.926 604.627 148.729 602.887 156.235 602.881L156.226 592.881C147.1 592.888 138.619 595.025 130.876 599.325L135.731 608.068ZM156.235 602.881C163.741 602.874 170.495 604.603 176.599 608.02L181.484 599.294C173.805 594.995 165.352 592.873 156.226 592.881L156.235 602.881ZM176.622 608.032C182.802 611.45 187.602 616.171 191.1 622.261L199.771 617.281C195.361 609.601 189.232 603.58 181.462 599.282L176.622 608.032ZM191.123 622.301C194.674 628.355 196.497 635.239 196.503 643.08L206.503 643.071C206.495 633.609 204.273 624.956 199.748 617.241L191.123 622.301ZM196.503 643.08C196.51 650.921 194.699 657.86 191.145 664.017L199.806 669.016C204.304 661.223 206.512 652.535 206.503 643.071L196.503 643.08ZM191.158 663.995C187.576 670.128 182.761 674.871 176.66 678.3L181.56 687.018C189.227 682.707 195.324 676.689 199.793 669.039L191.158 663.995ZM176.66 678.3C170.562 681.728 163.811 683.468 156.304 683.475L156.313 693.475C165.438 693.467 173.888 691.33 181.56 687.018L176.66 678.3ZM156.296 673.819C164.588 673.811 171.64 670.979 176.902 665.075L169.437 658.421C166.307 661.932 162.108 663.814 156.287 663.819L156.296 673.819ZM176.869 665.112C182.158 659.294 184.587 651.783 184.58 643.09L174.58 643.099C174.585 649.862 172.741 654.787 169.47 658.385L176.869 665.112ZM184.58 643.09C184.572 634.334 182.141 626.798 176.801 621.049L169.474 627.855C172.71 631.339 174.574 636.231 174.58 643.099L184.58 643.09ZM176.864 621.119C171.592 615.224 164.535 612.403 156.243 612.411L156.252 622.411C162.072 622.406 166.275 624.28 169.411 627.785L176.864 621.119ZM156.243 612.411C147.916 612.418 140.804 615.173 135.448 620.959L142.787 627.752C145.991 624.29 150.299 622.416 156.252 622.411L156.243 612.411ZM135.415 620.995C130.179 626.765 127.826 634.341 127.834 643.139L137.834 643.13C137.828 636.137 139.664 631.193 142.82 627.716L135.415 620.995ZM127.834 643.139C127.841 651.874 130.217 659.416 135.423 665.237L142.876 658.57C139.674 654.99 137.839 650.02 137.834 643.13L127.834 643.139ZM135.486 665.306C140.852 671.083 147.969 673.826 156.296 673.819L156.287 663.819C150.334 663.824 146.023 661.957 142.813 658.5L135.486 665.306ZM234.62 599.073L239.62 599.069L239.616 594.069L234.616 594.073L234.62 599.073ZM238.582 664.212L234.891 667.584L234.891 667.584L238.582 664.212ZM261.64 664.192L265.284 667.616L265.284 667.616L261.64 664.192ZM265.616 599.047L265.612 594.047L260.612 594.051L260.616 599.051L265.616 599.047ZM287.162 599.028L292.162 599.024L292.158 594.024L287.158 594.028L287.162 599.028ZM282.185 671.86L286.446 674.477L286.446 674.477L282.185 671.86ZM268.588 684.22L266.401 679.724L266.388 679.73L266.375 679.736L268.588 684.22ZM230.914 684.378L228.654 688.839L228.695 688.859L228.736 688.879L230.914 684.378ZM217.925 672.042L213.594 674.54L213.602 674.554L213.611 674.569L217.925 672.042ZM213.074 599.092L213.07 594.092L208.07 594.096L208.074 599.096L213.074 599.092ZM229.62 599.078L229.666 651.997L239.666 651.989L239.62 599.069L229.62 599.078ZM229.666 651.997C229.671 658.071 231.176 663.516 234.891 667.584L242.274 660.84C240.776 659.2 239.67 656.499 239.666 651.989L229.666 651.997ZM234.891 667.584C238.712 671.768 244.062 673.491 250.056 673.486L250.048 663.486C245.962 663.489 243.665 662.363 242.274 660.84L234.891 667.584ZM250.056 673.486C256.06 673.481 261.404 671.746 265.284 667.616L257.996 660.768C256.506 662.355 254.124 663.482 250.048 663.486L250.056 673.486ZM265.284 667.616C269.11 663.544 270.667 658.074 270.662 651.962L260.662 651.971C260.666 656.443 259.542 659.123 257.996 660.768L265.284 667.616ZM270.662 651.962L270.616 599.042L260.616 599.051L260.662 651.971L270.662 651.962ZM265.621 604.047L287.167 604.028L287.158 594.028L265.612 594.047L265.621 604.047ZM282.162 599.032L282.208 651.826L292.208 651.818L292.162 599.024L282.162 599.032ZM282.208 651.826C282.214 659.011 280.695 664.733 277.924 669.244L286.446 674.477C290.386 668.061 292.215 660.425 292.208 651.818L282.208 651.826ZM277.924 669.244C275.062 673.904 271.246 677.367 266.401 679.724L270.774 688.716C277.349 685.519 282.597 680.743 286.446 674.477L277.924 669.244ZM266.375 679.736C261.509 682.138 255.979 683.389 249.687 683.394L249.696 693.394C257.347 693.388 264.415 691.856 270.801 688.704L266.375 679.736ZM249.687 683.394C243.371 683.4 237.873 682.191 233.091 679.877L228.736 688.879C235.047 691.933 242.068 693.401 249.696 693.394L249.687 683.394ZM233.173 679.918C228.596 677.599 224.968 674.172 222.239 669.514L213.611 674.569C217.276 680.826 222.306 685.623 228.654 688.839L233.173 679.918ZM222.256 669.543C219.588 664.919 218.126 659.105 218.12 651.881L208.12 651.89C208.127 660.458 209.868 668.082 213.594 674.54L222.256 669.543ZM218.12 651.881L218.074 599.087L208.074 599.096L208.12 651.89L218.12 651.881ZM213.079 604.092L234.625 604.073L234.616 594.073L213.07 594.092L213.079 604.092ZM381.496 687.399L381.501 692.399L386.501 692.395L386.496 687.395L381.496 687.399ZM359.95 687.417L355.781 690.177L357.265 692.42L359.955 692.417L359.95 687.417ZM323.867 632.89L328.037 630.131L318.853 616.253L318.867 632.895L323.867 632.89ZM323.914 687.448L323.919 692.448L328.919 692.444L328.914 687.444L323.914 687.448ZM302.368 687.467L297.368 687.471L297.373 692.471L302.373 692.467L302.368 687.467ZM302.292 599.015L302.288 594.015L297.288 594.019L297.292 599.019L302.292 599.015ZM323.838 598.996L328.014 596.246L326.53 593.994L323.834 593.996L323.838 598.996ZM359.921 653.775L355.746 656.526L364.936 670.477L364.921 653.771L359.921 653.775ZM359.874 598.965L359.87 593.965L354.87 593.97L354.874 598.97L359.874 598.965ZM381.42 598.947L386.42 598.943L386.416 593.943L381.416 593.947L381.42 598.947ZM381.492 682.399L359.946 682.417L359.955 692.417L381.501 692.399L381.492 682.399ZM364.12 684.658L328.037 630.131L319.698 635.65L355.781 690.177L364.12 684.658ZM318.867 632.895L318.914 687.453L328.914 687.444L328.867 632.886L318.867 632.895ZM323.91 682.448L302.364 682.467L302.373 692.467L323.919 692.448L323.91 682.448ZM307.368 687.463L307.292 599.011L297.292 599.019L297.368 687.471L307.368 687.463ZM302.297 604.015L323.843 603.996L323.834 593.996L302.288 594.015L302.297 604.015ZM319.663 601.747L355.746 656.526L364.097 651.025L328.014 596.246L319.663 601.747ZM364.921 653.771L364.874 598.961L354.874 598.97L354.921 653.78L364.921 653.771ZM359.879 603.965L381.424 603.947L381.416 593.947L359.87 593.965L359.879 603.965ZM376.42 598.951L376.496 687.403L386.496 687.395L386.42 598.943L376.42 598.951ZM454.625 604.428L456.963 600.008L456.963 600.008L454.625 604.428ZM470.766 620.038L466.411 622.493L466.429 622.526L466.448 622.558L470.766 620.038ZM470.806 666.154L466.469 663.665L466.458 663.686L466.446 663.707L470.806 666.154ZM454.566 681.792L452.242 677.365L452.231 677.371L452.22 677.376L454.566 681.792ZM397.114 687.385L392.114 687.39L392.119 692.39L397.119 692.385L397.114 687.385ZM397.038 598.934L397.034 593.934L392.034 593.938L392.038 598.938L397.038 598.934ZM418.6 617.311L418.596 612.311L413.596 612.315L413.6 617.315L418.6 617.311ZM418.644 668.719L413.644 668.723L413.649 673.723L418.649 673.719L418.644 668.719ZM430.181 603.905C438.836 603.898 446.154 605.603 452.287 608.848L456.963 600.008C449.146 595.873 440.164 593.896 430.172 593.905L430.181 603.905ZM452.287 608.848C458.436 612.101 463.107 616.632 466.411 622.493L475.122 617.583C470.854 610.011 464.764 604.135 456.963 600.008L452.287 608.848ZM466.448 622.558C469.813 628.327 471.575 635.12 471.582 643.095L481.582 643.087C481.574 633.591 479.459 625.015 475.085 617.518L466.448 622.558ZM471.582 643.095C471.589 650.977 469.843 657.786 466.469 663.665L475.143 668.643C479.485 661.075 481.59 652.51 481.582 643.087L471.582 643.095ZM466.446 663.707C463.161 669.558 458.469 674.096 452.242 677.365L456.889 686.219C464.768 682.084 470.902 676.197 475.166 668.602L466.446 663.707ZM452.22 677.376C446.086 680.635 438.811 682.35 430.248 682.357L430.257 692.357C440.173 692.348 449.107 690.353 456.911 686.208L452.22 677.376ZM430.248 682.357L397.11 682.385L397.119 692.385L430.257 692.357L430.248 682.357ZM402.114 687.381L402.038 598.929L392.038 598.938L392.114 687.39L402.114 687.381ZM397.043 603.934L430.181 603.905L430.172 593.905L397.034 593.934L397.043 603.934ZM428.855 673.71C437.927 673.702 445.667 671.194 451.376 665.581L444.365 658.45C441.01 661.749 436.07 663.704 428.846 663.71L428.855 673.71ZM451.376 665.581C457.116 659.938 459.666 652.198 459.658 643.106L449.658 643.114C449.664 650.318 447.69 655.182 444.365 658.45L451.376 665.581ZM459.658 643.106C459.65 634.008 457.085 626.256 451.37 620.551L444.305 627.628C447.67 630.988 449.652 635.916 449.658 643.114L459.658 643.106ZM451.37 620.551C445.656 614.846 437.899 612.294 428.802 612.302L428.81 622.302C436.009 622.296 440.941 624.269 444.305 627.628L451.37 620.551ZM428.802 612.302L418.596 612.311L418.604 622.311L428.81 622.302L428.802 612.302ZM413.6 617.315L413.644 668.723L423.644 668.715L423.6 617.307L413.6 617.315ZM418.649 673.719L428.855 673.71L428.846 663.71L418.64 663.719L418.649 673.719ZM543.71 671.635L548.444 670.027L547.291 666.632L543.705 666.635L543.71 671.635ZM510.698 671.664L510.693 666.664L507.108 666.667L505.961 670.064L510.698 671.664ZM505.419 687.292L505.423 692.292L509.009 692.289L510.156 688.892L505.419 687.292ZM482.865 687.312L478.162 685.615L475.743 692.318L482.869 692.312L482.865 687.312ZM514.793 598.832L514.789 593.832L511.281 593.835L510.09 597.135L514.793 598.832ZM539.741 598.811L544.441 597.106L543.245 593.808L539.737 593.811L539.741 598.811ZM571.821 687.235L571.825 692.235L578.952 692.229L576.521 685.53L571.821 687.235ZM549.015 687.255L544.281 688.863L545.434 692.258L549.019 692.255L549.015 687.255ZM538.151 655.008L538.156 660.008L545.127 660.002L542.886 653.401L538.151 655.008ZM527.162 622.636L531.896 621.028L527.121 606.961L522.419 621.053L527.162 622.636ZM516.353 655.027L511.611 653.444L509.412 660.033L516.358 660.027L516.353 655.027ZM543.705 666.635L510.693 666.664L510.702 676.664L543.714 676.635L543.705 666.635ZM505.961 670.064L500.682 685.692L510.156 688.892L515.435 673.264L505.961 670.064ZM505.415 682.292L482.861 682.312L482.869 692.312L505.423 692.292L505.415 682.292ZM487.568 689.009L519.496 600.529L510.09 597.135L478.162 685.615L487.568 689.009ZM514.797 603.832L539.745 603.811L539.737 593.811L514.789 593.832L514.797 603.832ZM535.041 600.516L567.121 688.94L576.521 685.53L544.441 597.106L535.041 600.516ZM571.817 682.235L549.011 682.255L549.019 692.255L571.825 692.235L571.817 682.235ZM553.75 685.647L548.444 670.027L538.975 673.244L544.281 688.863L553.75 685.647ZM542.886 653.401L531.896 621.028L522.427 624.243L533.417 656.615L542.886 653.401ZM522.419 621.053L511.611 653.444L521.096 656.61L531.905 624.218L522.419 621.053ZM516.358 660.027L538.156 660.008L538.147 650.008L516.349 650.027L516.358 660.027ZM626.67 687.188L622.292 689.605L623.72 692.191L626.674 692.188L626.67 687.188ZM608.245 653.814L612.622 651.397L611.194 648.811L608.241 648.814L608.245 653.814ZM603.079 653.818L603.075 648.818L598.075 648.823L598.079 653.823L603.079 653.818ZM603.108 687.208L603.112 692.208L608.112 692.204L608.108 687.204L603.108 687.208ZM581.562 687.227L576.562 687.231L576.566 692.231L581.566 692.227L581.562 687.227ZM581.485 598.775L581.481 593.775L576.481 593.779L576.485 598.779L581.485 598.775ZM635.417 602.383L633.184 606.857L633.2 606.864L633.215 606.872L635.417 602.383ZM646.513 612.453L642.169 614.928L642.18 614.947L642.19 614.965L646.513 612.453ZM645.153 642.316L641.107 639.379L641.089 639.403L641.072 639.428L645.153 642.316ZM630.545 652.157L629.11 647.367L623.024 649.191L626.228 654.678L630.545 652.157ZM650.988 687.167L650.992 692.167L659.692 692.16L655.305 684.646L650.988 687.167ZM603.066 638.572L598.066 638.577L598.07 643.577L603.07 643.572L603.066 638.572ZM625.239 635.655L621.777 632.048L621.738 632.085L621.701 632.123L625.239 635.655ZM625.225 619.527L621.693 623.066L621.73 623.103L621.769 623.14L625.225 619.527ZM603.047 616.648L603.043 611.648L598.043 611.653L598.047 616.653L603.047 616.648ZM631.047 684.772L612.622 651.397L603.868 656.23L622.292 689.605L631.047 684.772ZM608.241 648.814L603.075 648.818L603.083 658.818L608.249 658.814L608.241 648.814ZM598.079 653.823L598.108 687.213L608.108 687.204L608.079 653.814L598.079 653.823ZM603.103 682.208L581.557 682.227L581.566 692.227L603.112 692.208L603.103 682.208ZM586.562 687.223L586.485 598.771L576.485 598.779L576.562 687.231L586.562 687.223ZM581.49 603.775L617.652 603.744L617.643 593.744L581.481 593.775L581.49 603.775ZM617.652 603.744C624.058 603.738 629.172 604.854 633.184 606.857L637.649 597.908C631.913 595.047 625.181 593.737 617.643 593.744L617.652 603.744ZM633.215 606.872C637.386 608.917 640.284 611.62 642.169 614.928L650.858 609.978C647.863 604.722 643.364 600.711 637.618 597.893L633.215 606.872ZM642.19 614.965C644.155 618.346 645.176 622.173 645.179 626.566L655.179 626.558C655.174 620.535 653.751 614.956 650.836 609.941L642.19 614.965ZM645.179 626.566C645.184 631.423 643.823 635.637 641.107 639.379L649.199 645.254C653.195 639.749 655.185 633.461 655.179 626.558L645.179 626.566ZM641.072 639.428C638.562 642.973 634.72 645.686 629.11 647.367L631.981 656.946C639.304 654.752 645.2 650.905 649.234 645.205L641.072 639.428ZM626.228 654.678L646.67 689.688L655.305 684.646L634.863 649.636L626.228 654.678ZM650.983 682.167L626.665 682.188L626.674 692.188L650.992 692.167L650.983 682.167ZM603.07 643.572L616.426 643.561L616.417 633.561L603.061 633.572L603.07 643.572ZM616.426 643.561C621.108 643.557 625.562 642.409 628.778 639.188L621.701 632.123C621.056 632.769 619.631 633.558 616.417 633.561L616.426 643.561ZM628.702 639.262C631.944 636.15 633.26 631.969 633.256 627.458L623.256 627.467C623.258 630.013 622.563 631.293 621.777 632.048L628.702 639.262ZM633.256 627.458C633.252 623.034 631.881 618.975 628.682 615.914L621.769 623.14C622.605 623.94 623.254 625.172 623.256 627.467L633.256 627.458ZM628.758 615.989C625.537 612.773 621.081 611.633 616.399 611.637L616.407 621.637C619.621 621.634 621.047 622.421 621.693 623.066L628.758 615.989ZM616.399 611.637L603.043 611.648L603.051 621.648L616.407 621.637L616.399 611.637ZM598.047 616.653L598.066 638.577L608.066 638.568L608.047 616.644L598.047 616.653ZM685.227 598.686L690.227 598.681L690.222 593.681L685.222 593.686L685.227 598.686ZM685.303 687.138L685.307 692.138L690.307 692.133L690.303 687.133L685.303 687.138ZM663.757 687.156L658.757 687.16L658.761 692.16L663.761 692.156L663.757 687.156ZM663.681 598.704L663.676 593.704L658.676 593.709L658.681 598.709L663.681 598.704ZM680.227 598.69L680.303 687.142L690.303 687.133L690.227 598.681L680.227 598.69ZM685.299 682.138L663.753 682.156L663.761 692.156L685.307 692.138L685.299 682.138ZM668.757 687.152L668.681 598.7L658.681 598.709L658.757 687.16L668.757 687.152ZM663.685 603.704L685.231 603.686L685.222 593.686L663.676 593.704L663.685 603.704ZM722.402 615.916L722.397 610.916L717.397 610.92L717.402 615.92L722.402 615.916ZM722.417 633.808L717.417 633.812L717.421 638.812L722.421 638.808L722.417 633.808ZM751.271 633.783L756.271 633.779L756.267 628.779L751.267 628.783L751.271 633.783ZM751.285 650.415L751.29 655.415L756.29 655.411L756.285 650.411L751.285 650.415ZM722.431 650.44L722.427 645.44L717.427 645.444L717.431 650.444L722.431 650.44ZM722.448 669.844L717.448 669.848L717.452 674.848L722.452 674.844L722.448 669.844ZM755.082 669.816L760.082 669.811L760.078 664.811L755.078 664.816L755.082 669.816ZM755.097 687.078L755.101 692.078L760.101 692.073L760.097 687.073L755.097 687.078ZM700.917 687.124L695.917 687.129L695.921 692.129L700.921 692.124L700.917 687.124ZM700.841 598.672L700.837 593.672L695.837 593.677L695.841 598.677L700.841 598.672ZM755.021 598.626L760.021 598.621L760.017 593.621L755.017 593.626L755.021 598.626ZM755.036 615.888L755.04 620.888L760.04 620.883L760.036 615.883L755.036 615.888ZM717.402 615.92L717.417 633.812L727.417 633.803L727.402 615.911L717.402 615.92ZM722.421 638.808L751.275 638.783L751.267 628.783L722.413 628.808L722.421 638.808ZM746.271 633.787L746.285 650.419L756.285 650.411L756.271 633.779L746.271 633.787ZM751.281 645.415L722.427 645.44L722.436 655.44L751.29 655.415L751.281 645.415ZM717.431 650.444L717.448 669.848L727.448 669.839L727.431 650.435L717.431 650.444ZM722.452 674.844L755.086 674.816L755.078 664.816L722.444 664.844L722.452 674.844ZM750.082 669.82L750.097 687.082L760.097 687.073L760.082 669.811L750.082 669.82ZM755.093 682.078L700.913 682.124L700.921 692.124L755.101 692.078L755.093 682.078ZM705.917 687.12L705.841 598.668L695.841 598.677L695.917 687.129L705.917 687.12ZM700.845 603.672L755.025 603.626L755.017 593.626L700.837 593.672L700.845 603.672ZM750.021 598.63L750.036 615.892L760.036 615.883L760.021 598.621L750.021 598.63ZM755.031 610.888L722.397 610.916L722.406 620.916L755.04 620.888L755.031 610.888ZM783.699 684.785L781.807 689.413L781.807 689.413L783.699 684.785ZM771.343 675.472L767.316 678.435L767.336 678.462L767.355 678.488L771.343 675.472ZM766.542 660.608L766.538 655.608L761.391 655.612L761.544 660.757L766.542 660.608ZM789.474 660.588L794.448 660.074L793.983 655.584L789.47 655.588L789.474 660.588ZM792.883 668.145L789.514 671.84L789.559 671.881L789.605 671.921L792.883 668.145ZM808.003 668.51L811.064 672.464L811.119 672.421L811.172 672.377L808.003 668.51ZM808.497 656.918L804.965 660.456L805.015 660.507L805.067 660.556L808.497 656.918ZM803.076 653.394L801.066 657.973L801.099 657.987L801.132 658.001L803.076 653.394ZM794.001 650.252L792.53 655.031L792.554 655.038L792.578 655.045L794.001 650.252ZM770.68 637.168L774.666 634.149L774.666 634.149L770.68 637.168ZM775.692 604.404L778.757 608.354L778.774 608.341L778.792 608.327L775.692 604.404ZM822.564 604.364L819.471 608.292L819.488 608.306L819.505 608.319L822.564 604.364ZM832.156 623.759L832.161 628.759L837.42 628.755L837.15 623.503L832.156 623.759ZM808.847 623.779L803.855 624.077L804.136 628.783L808.851 628.779L808.847 623.779ZM805.691 617.104L802.413 620.88L802.461 620.921L802.51 620.962L805.691 617.104ZM791.956 616.738L795.18 620.56L795.238 620.511L795.294 620.461L791.956 616.738ZM793.605 629.336L796.154 625.035L796.154 625.035L793.605 629.336ZM806.21 634.492L807.808 629.754L807.776 629.743L807.745 629.733L806.21 634.492ZM820.074 640.024L817.842 644.498L817.863 644.508L817.884 644.518L820.074 640.024ZM829.405 647.702L825.456 650.768L825.456 650.768L829.405 647.702ZM829.428 674.414L825.2 671.744L825.181 671.775L825.162 671.807L829.428 674.414ZM818.349 684.251L816.109 679.781L816.109 679.781L818.349 684.251ZM801.085 682.92C795.16 682.925 790.023 681.969 785.591 680.157L781.807 689.413C787.627 691.793 794.083 692.926 801.094 692.92L801.085 682.92ZM785.591 680.157C781.232 678.375 777.861 675.8 775.331 672.455L767.355 678.488C771.048 683.37 775.914 687.004 781.807 689.413L785.591 680.157ZM775.37 672.508C773.023 669.32 771.687 665.382 771.54 660.459L761.544 660.757C761.743 667.426 763.607 673.397 767.316 678.435L775.37 672.508ZM766.546 665.608L789.478 665.588L789.47 655.588L766.538 655.608L766.546 665.608ZM784.501 661.102C784.932 665.272 786.456 669.053 789.514 671.84L796.251 664.45C795.442 663.712 794.694 662.455 794.448 660.074L784.501 661.102ZM789.605 671.921C792.634 674.55 796.405 675.662 800.449 675.659L800.441 665.659C798.269 665.66 796.998 665.097 796.16 664.369L789.605 671.921ZM800.449 675.659C804.347 675.655 808.07 674.781 811.064 672.464L804.942 664.556C804.242 665.098 802.927 665.656 800.441 665.659L800.449 675.659ZM811.172 672.377C814.294 669.819 815.773 666.278 815.77 662.329L805.77 662.338C805.771 663.597 805.406 664.174 804.833 664.643L811.172 672.377ZM815.77 662.329C815.767 658.847 814.496 655.702 811.927 653.28L805.067 660.556C805.524 660.987 805.769 661.452 805.77 662.338L815.77 662.329ZM812.029 653.379C810.072 651.425 807.697 649.917 805.02 648.788L801.132 658.001C802.825 658.716 804.063 659.556 804.965 660.456L812.029 653.379ZM805.086 648.816C802.701 647.769 799.443 646.652 795.425 645.459L792.578 655.045C796.457 656.197 799.25 657.175 801.066 657.973L805.086 648.816ZM795.473 645.474C789.899 643.758 785.5 642.085 782.201 640.477L777.82 649.467C781.748 651.381 786.676 653.229 792.53 655.031L795.473 645.474ZM782.201 640.477C779.345 639.086 776.834 637.012 774.666 634.149L766.694 640.187C769.74 644.208 773.449 647.337 777.82 649.467L782.201 640.477ZM774.666 634.149C772.882 631.794 771.767 628.452 771.762 623.685L761.762 623.694C761.768 630.015 763.264 635.659 766.694 640.187L774.666 634.149ZM771.762 623.685C771.757 616.838 774.142 611.936 778.757 608.354L772.626 600.454C765.322 606.122 761.754 614.078 761.762 623.694L771.762 623.685ZM778.792 608.327C783.661 604.479 790.249 602.335 799 602.328L798.991 592.328C788.59 592.337 779.642 594.91 772.592 600.481L778.792 608.327ZM799 602.328C807.942 602.32 814.609 604.464 819.471 608.292L825.657 600.435C818.583 594.865 809.537 592.319 798.991 592.328L799 602.328ZM819.505 608.319C824.192 611.943 826.802 616.986 827.163 624.016L837.15 623.503C836.657 613.901 832.872 606.014 825.622 600.408L819.505 608.319ZM832.152 618.759L808.842 618.779L808.851 628.779L832.161 628.759L832.152 618.759ZM813.838 623.481C813.597 619.455 812.033 615.853 808.872 613.247L802.51 620.962C803.215 621.543 803.755 622.392 803.855 624.077L813.838 623.481ZM808.968 613.328C805.964 610.721 802.25 609.587 798.25 609.59L798.259 619.59C800.307 619.589 801.55 620.131 802.413 620.88L808.968 613.328ZM798.25 609.59C794.695 609.594 791.318 610.596 788.619 613.015L795.294 620.461C795.784 620.022 796.607 619.592 798.259 619.59L798.25 609.59ZM788.732 612.916C785.738 615.442 784.564 618.985 784.568 622.666L794.568 622.658C794.566 621.131 794.985 620.724 795.18 620.56L788.732 612.916ZM784.568 622.666C784.572 627.479 787.022 631.247 791.056 633.638L796.154 625.035C794.81 624.238 794.568 623.556 794.568 622.658L784.568 622.666ZM791.056 633.638C794.237 635.523 798.868 637.377 804.675 639.25L807.745 629.733C802.125 627.92 798.352 626.338 796.154 625.035L791.056 633.638ZM804.612 639.229C810.209 641.117 814.595 642.878 817.842 644.498L822.307 635.55C818.495 633.648 813.638 631.72 807.808 629.754L804.612 639.229ZM817.884 644.518C820.77 645.925 823.29 647.979 825.456 650.768L833.355 644.635C830.306 640.709 826.606 637.644 822.265 635.529L817.884 644.518ZM825.456 650.768C827.23 653.054 828.318 656.22 828.322 660.681L838.322 660.672C838.317 654.548 836.794 649.065 833.355 644.635L825.456 650.768ZM828.322 660.681C828.326 664.809 827.277 668.455 825.2 671.744L833.656 677.083C836.78 672.136 838.327 666.624 838.322 660.672L828.322 660.681ZM825.162 671.807C823.194 675.027 820.252 677.705 816.109 679.781L820.588 688.721C826.184 685.917 830.63 682.037 833.695 677.021L825.162 671.807ZM816.109 679.781C812.068 681.806 807.112 682.915 801.085 682.92L801.094 692.92C808.339 692.914 814.889 691.577 820.588 688.721L816.109 679.781Z" fill="#FE721A" mask="url(#path-1-outside-1_22_13)"/>
</g>
<defs>
<filter id="filter0_d_22_13" x="0.854614" y="0.550568" width="864.491" height="720.031" filterUnits="userSpaceOnUse" color-interpolation-filters="sRGB">
<feFlood flood-opacity="0" result="BackgroundImageFix"/>
<feColorMatrix in="SourceAlpha" type="matrix" values="0 0 0 0 0 0 0 0 0 0 0 0 0 0 0 0 0 0 127 0" result="hardAlpha"/>
<feMorphology radius="1" operator="dilate" in="SourceAlpha" result="effect1_dropShadow_22_13"/>
<feOffset dx="1" dy="1"/>
<feGaussianBlur stdDeviation="15"/>
<feComposite in2="hardAlpha" operator="out"/>
<feColorMatrix type="matrix" values="0 0 0 0 0.937255 0 0 0 0 0.313726 0 0 0 0 0.027451 0 0 0 1 0"/>
<feBlend mode="normal" in2="BackgroundImageFix" result="effect1_dropShadow_22_13"/>
<feBlend mode="normal" in="SourceGraphic" in2="effect1_dropShadow_22_13" result="shape"/>
</filter>
</defs>
</svg>
