<svg width="546" height="413" viewBox="0 0 546 413" fill="none" xmlns="http://www.w3.org/2000/svg">
<mask id="path-1-outside-1_4_7" maskUnits="userSpaceOnUse" x="15" y="30" width="520" height="362" fill="black">
<rect fill="white" x="15" y="30" width="520" height="362"/>
<path d="M16.7408 87V32.4545H53.495V41.9627H28.2731V54.9599H51.604V64.468H28.2731V77.4918H53.6016V87H16.7408ZM66.4136 87V32.4545H77.9459V77.4918H101.33V87H66.4136ZM112.717 87V32.4545H149.472V41.9627H124.25V54.9599H147.581V64.468H124.25V77.4918H149.578V87H112.717ZM198.559 50.0859C198.186 48.7898 197.662 47.6445 196.987 46.6502C196.312 45.6381 195.487 44.7859 194.51 44.0934C193.551 43.3832 192.451 42.8416 191.208 42.4688C189.983 42.0959 188.624 41.9094 187.133 41.9094C184.345 41.9094 181.895 42.6019 179.782 43.9869C177.687 45.3718 176.053 47.3871 174.881 50.0327C173.709 52.6605 173.123 55.8743 173.123 59.674C173.123 63.4737 173.701 66.7053 174.855 69.3686C176.009 72.032 177.642 74.065 179.755 75.4677C181.868 76.8526 184.363 77.5451 187.239 77.5451C189.849 77.5451 192.078 77.0835 193.924 76.1602C195.789 75.2191 197.209 73.8963 198.186 72.1918C199.18 70.4872 199.677 68.4719 199.677 66.146L202.021 66.4922H187.958V57.8097H210.783V64.6811C210.783 69.4751 209.771 73.5945 207.747 77.0391C205.723 80.4659 202.935 83.1115 199.384 84.9759C195.833 86.8224 191.767 87.7457 187.186 87.7457C182.072 87.7457 177.58 86.6183 173.709 84.3633C169.839 82.0906 166.82 78.8679 164.654 74.6953C162.506 70.505 161.431 65.5334 161.431 59.7805C161.431 55.3594 162.071 51.4176 163.349 47.9553C164.645 44.4751 166.456 41.5277 168.782 39.1129C171.108 36.6982 173.816 34.8604 176.905 33.5998C179.995 32.3391 183.342 31.7088 186.946 31.7088C190.036 31.7088 192.912 32.1616 195.576 33.0671C198.239 33.9549 200.6 35.2156 202.66 36.8491C204.737 38.4826 206.433 40.4268 207.747 42.6818C209.061 44.919 209.904 47.3871 210.277 50.0859H198.559ZM230.913 87H218.555L237.385 32.4545H252.246L271.05 87H258.692L245.029 44.919H244.603L230.913 87ZM230.141 65.56H259.331V74.5621H230.141V65.56ZM326.988 32.4545V87H317.027L293.297 52.6694H292.897V87H281.365V32.4545H291.486L315.03 66.7585H315.509V32.4545H326.988ZM388.393 51.5508H376.727C376.514 50.0415 376.079 48.701 375.422 47.5291C374.765 46.3395 373.922 45.3274 372.892 44.4929C371.862 43.6584 370.673 43.0192 369.323 42.5753C367.992 42.1314 366.545 41.9094 364.982 41.9094C362.159 41.9094 359.7 42.6108 357.605 44.0135C355.509 45.3984 353.885 47.4226 352.731 50.0859C351.577 52.7315 350.999 55.9453 350.999 59.7273C350.999 63.6158 351.577 66.8828 352.731 69.5284C353.903 72.174 355.536 74.1715 357.631 75.521C359.726 76.8704 362.15 77.5451 364.902 77.5451C366.447 77.5451 367.876 77.3409 369.19 76.9325C370.522 76.5241 371.703 75.9293 372.732 75.1481C373.762 74.3491 374.615 73.3814 375.289 72.245C375.982 71.1087 376.461 69.8125 376.727 68.3565L388.393 68.4098C388.091 70.9134 387.336 73.3281 386.129 75.6541C384.939 77.9624 383.333 80.0309 381.308 81.8597C379.302 83.6708 376.905 85.109 374.117 86.1744C371.347 87.2219 368.214 87.7457 364.716 87.7457C359.851 87.7457 355.501 86.6449 351.665 84.4432C347.848 82.2415 344.829 79.0543 342.61 74.8817C340.408 70.7092 339.307 65.6577 339.307 59.7273C339.307 53.7791 340.426 48.7188 342.663 44.5462C344.9 40.3736 347.937 37.1953 351.772 35.0114C355.607 32.8097 359.922 31.7088 364.716 31.7088C367.876 31.7088 370.806 32.1527 373.505 33.0405C376.221 33.9283 378.627 35.2244 380.722 36.929C382.818 38.6158 384.522 40.6843 385.836 43.1346C387.168 45.5849 388.02 48.3903 388.393 51.5508ZM400.413 87V32.4545H437.167V41.9627H411.945V54.9599H435.276V64.468H411.945V77.4918H437.273V87H400.413ZM16.7408 188V133.455H28.2731V157.505H28.9922L48.6211 133.455H62.4439L42.2024 157.877L62.6836 188H48.8874L33.946 165.575L28.2731 172.499V188H16.7408ZM117.823 133.455V188H107.862L84.1316 153.669H83.7321V188H72.1998V133.455H82.3205L105.865 167.759H106.344V133.455H117.823ZM181.225 160.727C181.225 166.675 180.098 171.736 177.843 175.908C175.606 180.081 172.552 183.268 168.681 185.47C164.828 187.654 160.496 188.746 155.684 188.746C150.837 188.746 146.486 187.645 142.633 185.443C138.78 183.241 135.735 180.054 133.498 175.882C131.261 171.709 130.142 166.658 130.142 160.727C130.142 154.779 131.261 149.719 133.498 145.546C135.735 141.374 138.78 138.195 142.633 136.011C146.486 133.81 150.837 132.709 155.684 132.709C160.496 132.709 164.828 133.81 168.681 136.011C172.552 138.195 175.606 141.374 177.843 145.546C180.098 149.719 181.225 154.779 181.225 160.727ZM169.533 160.727C169.533 156.874 168.956 153.625 167.802 150.979C166.666 148.334 165.059 146.327 162.981 144.96C160.904 143.593 158.472 142.909 155.684 142.909C152.896 142.909 150.464 143.593 148.386 144.96C146.309 146.327 144.693 148.334 143.539 150.979C142.403 153.625 141.834 156.874 141.834 160.727C141.834 164.58 142.403 167.83 143.539 170.475C144.693 173.121 146.309 175.127 148.386 176.494C150.464 177.862 152.896 178.545 155.684 178.545C158.472 178.545 160.904 177.862 162.981 176.494C165.059 175.127 166.666 173.121 167.802 170.475C168.956 167.83 169.533 164.58 169.533 160.727ZM203.745 188L188.138 133.455H200.736L209.765 171.354H210.217L220.178 133.455H230.965L240.899 171.434H241.379L250.407 133.455H263.005L247.398 188H236.158L225.771 152.338H225.345L214.985 188H203.745ZM302.004 149.142C301.791 146.993 300.877 145.324 299.261 144.135C297.645 142.945 295.453 142.35 292.683 142.35C290.801 142.35 289.211 142.616 287.915 143.149C286.619 143.664 285.625 144.383 284.932 145.306C284.258 146.23 283.92 147.277 283.92 148.449C283.885 149.426 284.089 150.278 284.533 151.006C284.994 151.734 285.625 152.364 286.424 152.897C287.223 153.412 288.146 153.865 289.194 154.255C290.241 154.628 291.36 154.948 292.55 155.214L297.45 156.386C299.829 156.919 302.013 157.629 304.002 158.517C305.991 159.404 307.713 160.496 309.169 161.793C310.625 163.089 311.752 164.616 312.551 166.374C313.368 168.131 313.785 170.147 313.803 172.419C313.785 175.757 312.933 178.652 311.246 181.102C309.577 183.534 307.162 185.425 304.002 186.775C300.859 188.107 297.068 188.772 292.629 188.772C288.226 188.772 284.391 188.098 281.124 186.748C277.874 185.399 275.335 183.401 273.507 180.756C271.695 178.092 270.746 174.799 270.657 170.875H281.816C281.941 172.703 282.464 174.23 283.388 175.456C284.329 176.663 285.58 177.577 287.143 178.199C288.723 178.803 290.508 179.104 292.496 179.104C294.449 179.104 296.145 178.82 297.583 178.252C299.039 177.684 300.167 176.894 300.966 175.882C301.765 174.87 302.164 173.707 302.164 172.393C302.164 171.168 301.8 170.138 301.072 169.303C300.362 168.469 299.314 167.759 297.93 167.173C296.562 166.587 294.884 166.054 292.896 165.575L286.956 164.083C282.358 162.964 278.727 161.216 276.063 158.836C273.4 156.457 272.077 153.252 272.095 149.222C272.077 145.919 272.956 143.034 274.732 140.566C276.525 138.098 278.984 136.171 282.109 134.786C285.234 133.401 288.785 132.709 292.763 132.709C296.811 132.709 300.344 133.401 303.363 134.786C306.399 136.171 308.76 138.098 310.447 140.566C312.134 143.034 313.004 145.892 313.057 149.142H302.004ZM62.364 234.455V289H52.4031L28.6726 254.669H28.2731V289H16.7408V234.455H26.8615L50.4055 268.759H50.8849V234.455H62.364ZM125.766 261.727C125.766 267.675 124.639 272.736 122.384 276.908C120.147 281.081 117.093 284.268 113.222 286.47C109.369 288.654 105.037 289.746 100.225 289.746C95.3776 289.746 91.0274 288.645 87.1744 286.443C83.3215 284.241 80.2764 281.054 78.0392 276.882C75.8019 272.709 74.6833 267.658 74.6833 261.727C74.6833 255.779 75.8019 250.719 78.0392 246.546C80.2764 242.374 83.3215 239.195 87.1744 237.011C91.0274 234.81 95.3776 233.709 100.225 233.709C105.037 233.709 109.369 234.81 113.222 237.011C117.093 239.195 120.147 242.374 122.384 246.546C124.639 250.719 125.766 255.779 125.766 261.727ZM114.074 261.727C114.074 257.874 113.497 254.625 112.343 251.979C111.207 249.334 109.6 247.327 107.522 245.96C105.445 244.593 103.013 243.909 100.225 243.909C97.4372 243.909 95.0047 244.593 92.9273 245.96C90.8499 247.327 89.2341 249.334 88.08 251.979C86.9436 254.625 86.3754 257.874 86.3754 261.727C86.3754 265.58 86.9436 268.83 88.08 271.475C89.2341 274.121 90.8499 276.127 92.9273 277.494C95.0047 278.862 97.4372 279.545 100.225 279.545C103.013 279.545 105.445 278.862 107.522 277.494C109.6 276.127 111.207 274.121 112.343 271.475C113.497 268.83 114.074 265.58 114.074 261.727ZM16.7408 390V335.455H38.5803C42.593 335.455 45.94 336.049 48.6211 337.239C51.3022 338.429 53.3175 340.08 54.6669 342.193C56.0163 344.288 56.6911 346.703 56.6911 349.437C56.6911 351.568 56.2649 353.441 55.4126 355.057C54.5604 356.655 53.3885 357.969 51.897 358.999C50.4233 360.011 48.7365 360.73 46.8366 361.156V361.689C48.9141 361.777 50.8583 362.363 52.6694 363.446C54.4982 364.529 55.9808 366.048 57.1172 368.001C58.2536 369.936 58.8217 372.244 58.8217 374.925C58.8217 377.82 58.1026 380.403 56.6644 382.676C55.244 384.931 53.1399 386.715 50.3523 388.029C47.5646 389.343 44.1289 390 40.0451 390H16.7408ZM28.2731 380.572H37.6747C40.8885 380.572 43.2322 379.959 44.706 378.734C46.1797 377.491 46.9165 375.84 46.9165 373.78C46.9165 372.271 46.5526 370.939 45.8246 369.785C45.0966 368.631 44.0579 367.725 42.7085 367.069C41.3768 366.412 39.7876 366.083 37.9411 366.083H28.2731V380.572ZM28.2731 358.279H36.8224C38.4027 358.279 39.8054 358.004 41.0305 357.454C42.2734 356.886 43.25 356.087 43.9602 355.057C44.6882 354.027 45.0522 352.793 45.0522 351.355C45.0522 349.384 44.3509 347.795 42.9482 346.587C41.5632 345.38 39.5923 344.776 37.0355 344.776H28.2731V358.279ZM120.2 362.727C120.2 368.675 119.073 373.736 116.818 377.908C114.58 382.081 111.526 385.268 107.656 387.47C103.803 389.654 99.4703 390.746 94.6585 390.746C89.8112 390.746 85.461 389.645 81.608 387.443C77.7551 385.241 74.71 382.054 72.4727 377.882C70.2355 373.709 69.1169 368.658 69.1169 362.727C69.1169 356.779 70.2355 351.719 72.4727 347.546C74.71 343.374 77.7551 340.195 81.608 338.011C85.461 335.81 89.8112 334.709 94.6585 334.709C99.4703 334.709 103.803 335.81 107.656 338.011C111.526 340.195 114.58 343.374 116.818 347.546C119.073 351.719 120.2 356.779 120.2 362.727ZM108.508 362.727C108.508 358.874 107.931 355.625 106.777 352.979C105.64 350.334 104.033 348.327 101.956 346.96C99.8786 345.593 97.4461 344.909 94.6585 344.909C91.8708 344.909 89.4383 345.593 87.3609 346.96C85.2835 348.327 83.6677 350.334 82.5136 352.979C81.3772 355.625 80.809 358.874 80.809 362.727C80.809 366.58 81.3772 369.83 82.5136 372.475C83.6677 375.121 85.2835 377.127 87.3609 378.494C89.4383 379.862 91.8708 380.545 94.6585 380.545C97.4461 380.545 99.8786 379.862 101.956 378.494C104.033 377.127 105.64 375.121 106.777 372.475C107.931 369.83 108.508 366.58 108.508 362.727ZM166.184 335.455H177.716V370.877C177.716 374.854 176.767 378.335 174.867 381.317C172.985 384.3 170.348 386.626 166.957 388.295C163.565 389.947 159.615 390.772 155.105 390.772C150.577 390.772 146.617 389.947 143.226 388.295C139.835 386.626 137.198 384.3 135.316 381.317C133.434 378.335 132.493 374.854 132.493 370.877V335.455H144.025V369.892C144.025 371.969 144.478 373.816 145.383 375.431C146.307 377.047 147.603 378.317 149.272 379.24C150.941 380.163 152.885 380.625 155.105 380.625C157.342 380.625 159.286 380.163 160.937 379.24C162.606 378.317 163.894 377.047 164.799 375.431C165.722 373.816 166.184 371.969 166.184 369.892V335.455ZM236.578 335.455V390H226.617L202.886 355.669H202.487V390H190.955V335.455H201.075L224.619 369.759H225.099V335.455H236.578ZM269.192 390H249.856V335.455H269.352C274.838 335.455 279.561 336.547 283.521 338.73C287.48 340.897 290.525 344.013 292.656 348.079C294.805 352.145 295.879 357.01 295.879 362.674C295.879 368.356 294.805 373.239 292.656 377.322C290.525 381.406 287.463 384.54 283.468 386.724C279.49 388.908 274.732 390 269.192 390ZM261.388 380.119H268.713C272.122 380.119 274.989 379.515 277.315 378.308C279.659 377.083 281.417 375.192 282.589 372.635C283.778 370.06 284.373 366.74 284.373 362.674C284.373 358.643 283.778 355.35 282.589 352.793C281.417 350.236 279.668 348.354 277.342 347.147C275.016 345.939 272.148 345.336 268.739 345.336H261.388V380.119ZM314.497 390H302.139L320.969 335.455H335.83L354.634 390H342.276L328.613 347.919H328.187L314.497 390ZM313.725 368.56H342.915V377.562H313.725V368.56ZM364.949 390V335.455H386.469C390.588 335.455 394.104 336.191 397.016 337.665C399.945 339.121 402.174 341.19 403.701 343.871C405.245 346.534 406.018 349.668 406.018 353.272C406.018 356.895 405.236 360.011 403.674 362.621C402.111 365.213 399.848 367.202 396.882 368.587C393.935 369.972 390.366 370.664 386.176 370.664H371.767V361.396H384.311C386.513 361.396 388.342 361.094 389.798 360.49C391.254 359.886 392.337 358.981 393.047 357.773C393.775 356.566 394.139 355.066 394.139 353.272C394.139 351.461 393.775 349.934 393.047 348.691C392.337 347.449 391.245 346.507 389.771 345.868C388.315 345.211 386.478 344.883 384.258 344.883H376.481V390H364.949ZM394.405 365.178L407.962 390H395.231L381.968 365.178H394.405ZM429.45 335.455V390H417.918V335.455H429.45ZM442.688 390V335.455H479.442V344.963H454.22V357.96H477.551V367.468H454.22V380.492H479.549V390H442.688ZM521.951 351.142C521.738 348.993 520.823 347.324 519.207 346.135C517.592 344.945 515.399 344.35 512.629 344.35C510.747 344.35 509.158 344.616 507.862 345.149C506.565 345.664 505.571 346.383 504.879 347.306C504.204 348.23 503.867 349.277 503.867 350.449C503.831 351.426 504.035 352.278 504.479 353.006C504.941 353.734 505.571 354.364 506.37 354.897C507.169 355.412 508.092 355.865 509.14 356.255C510.188 356.628 511.306 356.948 512.496 357.214L517.396 358.386C519.776 358.919 521.96 359.629 523.948 360.517C525.937 361.404 527.659 362.496 529.115 363.793C530.571 365.089 531.699 366.616 532.498 368.374C533.314 370.131 533.732 372.147 533.749 374.419C533.732 377.757 532.879 380.652 531.193 383.102C529.524 385.534 527.109 387.425 523.948 388.775C520.805 390.107 517.015 390.772 512.576 390.772C508.172 390.772 504.337 390.098 501.07 388.748C497.821 387.399 495.282 385.401 493.453 382.756C491.642 380.092 490.692 376.799 490.603 372.875H501.763C501.887 374.703 502.411 376.23 503.334 377.456C504.275 378.663 505.527 379.577 507.089 380.199C508.669 380.803 510.454 381.104 512.443 381.104C514.396 381.104 516.091 380.82 517.53 380.252C518.986 379.684 520.113 378.894 520.912 377.882C521.711 376.87 522.111 375.707 522.111 374.393C522.111 373.168 521.747 372.138 521.019 371.303C520.308 370.469 519.261 369.759 517.876 369.173C516.509 368.587 514.831 368.054 512.842 367.575L506.903 366.083C502.304 364.964 498.673 363.216 496.01 360.836C493.346 358.457 492.024 355.252 492.041 351.222C492.024 347.919 492.902 345.034 494.678 342.566C496.471 340.098 498.93 338.171 502.055 336.786C505.18 335.401 508.732 334.709 512.709 334.709C516.757 334.709 520.291 335.401 523.309 336.786C526.345 338.171 528.707 340.098 530.394 342.566C532.08 345.034 532.95 347.892 533.004 351.142H521.951Z"/>
</mask>
<path d="M16.7408 87H15.7408V88H16.7408V87ZM16.7408 32.4545V31.4545H15.7408V32.4545H16.7408ZM53.495 32.4545H54.495V31.4545H53.495V32.4545ZM53.495 41.9627V42.9627H54.495V41.9627H53.495ZM28.2731 41.9627V40.9627H27.2731V41.9627H28.2731ZM28.2731 54.9599H27.2731V55.9599H28.2731V54.9599ZM51.604 54.9599H52.604V53.9599H51.604V54.9599ZM51.604 64.468V65.468H52.604V64.468H51.604ZM28.2731 64.468V63.468H27.2731V64.468H28.2731ZM28.2731 77.4918H27.2731V78.4918H28.2731V77.4918ZM53.6016 77.4918H54.6016V76.4918H53.6016V77.4918ZM53.6016 87V88H54.6016V87H53.6016ZM17.7408 87V32.4545H15.7408V87H17.7408ZM16.7408 33.4545H53.495V31.4545H16.7408V33.4545ZM52.495 32.4545V41.9627H54.495V32.4545H52.495ZM53.495 40.9627H28.2731V42.9627H53.495V40.9627ZM27.2731 41.9627V54.9599H29.2731V41.9627H27.2731ZM28.2731 55.9599H51.604V53.9599H28.2731V55.9599ZM50.604 54.9599V64.468H52.604V54.9599H50.604ZM51.604 63.468H28.2731V65.468H51.604V63.468ZM27.2731 64.468V77.4918H29.2731V64.468H27.2731ZM28.2731 78.4918H53.6016V76.4918H28.2731V78.4918ZM52.6016 77.4918V87H54.6016V77.4918H52.6016ZM53.6016 86H16.7408V88H53.6016V86ZM66.4136 87H65.4136V88H66.4136V87ZM66.4136 32.4545V31.4545H65.4136V32.4545H66.4136ZM77.9459 32.4545H78.9459V31.4545H77.9459V32.4545ZM77.9459 77.4918H76.9459V78.4918H77.9459V77.4918ZM101.33 77.4918H102.33V76.4918H101.33V77.4918ZM101.33 87V88H102.33V87H101.33ZM67.4136 87V32.4545H65.4136V87H67.4136ZM66.4136 33.4545H77.9459V31.4545H66.4136V33.4545ZM76.9459 32.4545V77.4918H78.9459V32.4545H76.9459ZM77.9459 78.4918H101.33V76.4918H77.9459V78.4918ZM100.33 77.4918V87H102.33V77.4918H100.33ZM101.33 86H66.4136V88H101.33V86ZM112.717 87H111.717V88H112.717V87ZM112.717 32.4545V31.4545H111.717V32.4545H112.717ZM149.472 32.4545H150.472V31.4545H149.472V32.4545ZM149.472 41.9627V42.9627H150.472V41.9627H149.472ZM124.25 41.9627V40.9627H123.25V41.9627H124.25ZM124.25 54.9599H123.25V55.9599H124.25V54.9599ZM147.581 54.9599H148.581V53.9599H147.581V54.9599ZM147.581 64.468V65.468H148.581V64.468H147.581ZM124.25 64.468V63.468H123.25V64.468H124.25ZM124.25 77.4918H123.25V78.4918H124.25V77.4918ZM149.578 77.4918H150.578V76.4918H149.578V77.4918ZM149.578 87V88H150.578V87H149.578ZM113.717 87V32.4545H111.717V87H113.717ZM112.717 33.4545H149.472V31.4545H112.717V33.4545ZM148.472 32.4545V41.9627H150.472V32.4545H148.472ZM149.472 40.9627H124.25V42.9627H149.472V40.9627ZM123.25 41.9627V54.9599H125.25V41.9627H123.25ZM124.25 55.9599H147.581V53.9599H124.25V55.9599ZM146.581 54.9599V64.468H148.581V54.9599H146.581ZM147.581 63.468H124.25V65.468H147.581V63.468ZM123.25 64.468V77.4918H125.25V64.468H123.25ZM124.25 78.4918H149.578V76.4918H124.25V78.4918ZM148.578 77.4918V87H150.578V77.4918H148.578ZM149.578 86H112.717V88H149.578V86ZM198.559 50.0859L197.597 50.3624L197.806 51.0859H198.559V50.0859ZM196.987 46.6502L196.155 47.2049L196.16 47.2117L196.987 46.6502ZM194.51 44.0934L193.915 44.897L193.923 44.9031L193.932 44.9091L194.51 44.0934ZM191.208 42.4688L190.916 43.4254L190.92 43.4266L191.208 42.4688ZM179.782 43.9869L179.234 43.1505L179.23 43.1526L179.782 43.9869ZM174.881 50.0327L175.795 50.44L175.796 50.4377L174.881 50.0327ZM179.755 75.4677L179.202 76.3008L179.207 76.304L179.755 75.4677ZM193.924 76.1602L194.371 77.0546L194.375 77.0529L193.924 76.1602ZM198.186 72.1918L197.322 71.6879L197.318 71.6946L198.186 72.1918ZM199.677 66.146L199.823 65.1567L198.677 64.9874V66.146H199.677ZM202.021 66.4922V67.4922L202.167 65.5029L202.021 66.4922ZM187.958 66.4922H186.958V67.4922H187.958V66.4922ZM187.958 57.8097V56.8097H186.958V57.8097H187.958ZM210.783 57.8097H211.783V56.8097H210.783V57.8097ZM207.747 77.0391L208.608 77.5476L208.609 77.5457L207.747 77.0391ZM199.384 84.9759L199.846 85.8631L199.849 85.8613L199.384 84.9759ZM173.709 84.3633L173.203 85.2256L173.206 85.2273L173.709 84.3633ZM164.654 74.6953L163.764 75.1516L163.767 75.1561L164.654 74.6953ZM163.349 47.9553L162.412 47.6062L162.411 47.6089L163.349 47.9553ZM168.782 39.1129L169.502 39.8067L169.502 39.8067L168.782 39.1129ZM176.905 33.5998L176.528 32.6739L176.528 32.6739L176.905 33.5998ZM195.576 33.0671L195.254 34.0139L195.259 34.0158L195.576 33.0671ZM202.66 36.8491L202.039 37.6326L202.042 37.6352L202.66 36.8491ZM207.747 42.6818L206.883 43.1853L206.885 43.1882L207.747 42.6818ZM210.277 50.0859V51.0859H211.425L211.268 49.9491L210.277 50.0859ZM199.52 49.8095C199.121 48.4241 198.555 47.1804 197.815 46.0887L196.16 47.2117C196.768 48.1087 197.25 49.1554 197.597 50.3624L199.52 49.8095ZM197.819 46.0955C197.078 44.9833 196.167 44.042 195.089 43.2777L193.932 44.9091C194.807 45.5297 195.547 46.293 196.155 47.2049L197.819 46.0955ZM195.105 43.2898C194.046 42.505 192.839 41.9141 191.495 41.5109L190.92 43.4266C192.062 43.7691 193.057 44.2613 193.915 44.897L195.105 43.2898ZM191.499 41.5121C190.165 41.1062 188.707 40.9094 187.133 40.9094V42.9094C188.541 42.9094 189.8 43.0856 190.916 43.4254L191.499 41.5121ZM187.133 40.9094C184.171 40.9094 181.526 41.6479 179.234 43.1505L180.33 44.8232C182.263 43.556 184.519 42.9094 187.133 42.9094V40.9094ZM179.23 43.1526C176.953 44.6583 175.204 46.8345 173.967 49.6277L175.796 50.4377C176.902 47.9397 178.421 46.0853 180.333 44.8211L179.23 43.1526ZM173.968 49.6254C172.724 52.4155 172.123 55.7768 172.123 59.674H174.123C174.123 55.9718 174.695 52.9055 175.795 50.44L173.968 49.6254ZM172.123 59.674C172.123 63.5702 172.715 66.945 173.937 69.7662L175.772 68.971C174.687 66.4655 174.123 63.3772 174.123 59.674H172.123ZM173.937 69.7662C175.157 72.5806 176.906 74.7764 179.202 76.3008L180.308 74.6346C178.379 73.3536 176.861 71.4833 175.772 68.971L173.937 69.7662ZM179.207 76.304C181.505 77.81 184.196 78.5451 187.239 78.5451V76.5451C184.53 76.5451 182.232 75.8952 180.303 74.6313L179.207 76.304ZM187.239 78.5451C189.965 78.5451 192.354 78.0632 194.371 77.0546L193.477 75.2657C191.801 76.1037 189.734 76.5451 187.239 76.5451V78.5451ZM194.375 77.0529C196.402 76.0295 197.973 74.5742 199.053 72.6889L197.318 71.6946C196.445 73.2184 195.175 74.4087 193.474 75.2674L194.375 77.0529ZM199.049 72.6956C200.148 70.8128 200.677 68.6171 200.677 66.146H198.677C198.677 68.3268 198.212 70.1616 197.322 71.6879L199.049 72.6956ZM199.531 67.1352L201.875 67.4815L202.167 65.5029L199.823 65.1567L199.531 67.1352ZM202.021 65.4922H187.958V67.4922H202.021V65.4922ZM188.958 66.4922V57.8097H186.958V66.4922H188.958ZM187.958 58.8097H210.783V56.8097H187.958V58.8097ZM209.783 57.8097V64.6811H211.783V57.8097H209.783ZM209.783 64.6811C209.783 69.3327 208.802 73.2695 206.885 76.5324L208.609 77.5457C210.74 73.9194 211.783 69.6176 211.783 64.6811H209.783ZM206.886 76.5305C204.957 79.7961 202.307 82.3118 198.919 84.0905L199.849 85.8613C203.563 83.9112 206.489 81.1358 208.608 77.5476L206.886 76.5305ZM198.923 84.0886C195.534 85.851 191.63 86.7457 187.186 86.7457V88.7457C191.904 88.7457 196.132 87.7938 199.845 85.8631L198.923 84.0886ZM187.186 86.7457C182.224 86.7457 177.91 85.6532 174.213 83.4992L173.206 85.2273C177.25 87.5833 181.921 88.7457 187.186 88.7457V86.7457ZM174.216 83.5009C170.515 81.3282 167.625 78.2484 165.542 74.2346L163.767 75.1561C166.015 79.4874 169.162 82.853 173.203 85.2256L174.216 83.5009ZM165.544 74.2391C163.482 70.2178 162.431 65.4094 162.431 59.7805H160.431C160.431 65.6574 161.529 70.7921 163.764 75.1516L165.544 74.2391ZM162.431 59.7805C162.431 55.4548 163.057 51.6336 164.287 48.3016L162.411 47.6089C161.084 51.2017 160.431 55.2639 160.431 59.7805H162.431ZM164.286 48.3043C165.54 44.9388 167.281 42.1125 169.502 39.8067L168.062 38.4192C165.631 40.9429 163.751 44.0114 162.412 47.6062L164.286 48.3043ZM169.502 39.8067C171.732 37.4918 174.323 35.7334 177.283 34.5257L176.528 32.6739C173.308 33.9875 170.484 35.9045 168.062 38.4192L169.502 39.8067ZM177.283 34.5257C180.243 33.3178 183.461 32.7088 186.946 32.7088V30.7088C183.223 30.7088 179.746 31.3605 176.528 32.6739L177.283 34.5257ZM186.946 32.7088C189.937 32.7088 192.704 33.1469 195.254 34.0139L195.897 32.1203C193.121 31.1763 190.135 30.7088 186.946 30.7088V32.7088ZM195.259 34.0158C197.82 34.8692 200.076 36.0763 202.039 37.6326L203.281 36.0656C201.124 34.3548 198.658 33.0406 195.892 32.1184L195.259 34.0158ZM202.042 37.6352C204.022 39.1918 205.633 41.0406 206.883 43.1853L208.611 42.1784C207.233 39.8131 205.453 37.7734 203.278 36.063L202.042 37.6352ZM206.885 43.1882C208.129 45.3063 208.931 47.6477 209.287 50.2228L211.268 49.9491C210.878 47.1264 209.993 44.5318 208.609 42.1754L206.885 43.1882ZM210.277 49.0859H198.559V51.0859H210.277V49.0859ZM230.913 87V88H231.639L231.864 87.3094L230.913 87ZM218.555 87L217.61 86.6737L217.152 88H218.555V87ZM237.385 32.4545V31.4545H236.672L236.44 32.1282L237.385 32.4545ZM252.246 32.4545L253.192 32.1286L252.959 31.4545H252.246V32.4545ZM271.05 87V88H272.452L271.995 86.6741L271.05 87ZM258.692 87L257.741 87.3088L257.965 88H258.692V87ZM245.029 44.919L245.98 44.6102L245.755 43.919H245.029V44.919ZM244.603 44.919V43.919H243.876L243.652 44.6097L244.603 44.919ZM230.141 65.56V64.56H229.141V65.56H230.141ZM259.331 65.56H260.331V64.56H259.331V65.56ZM259.331 74.5621V75.5621H260.331V74.5621H259.331ZM230.141 74.5621H229.141V75.5621H230.141V74.5621ZM230.913 86H218.555V88H230.913V86ZM219.5 87.3263L238.33 32.7809L236.44 32.1282L217.61 86.6737L219.5 87.3263ZM237.385 33.4545H252.246V31.4545H237.385V33.4545ZM251.301 32.7804L270.104 87.3259L271.995 86.6741L253.192 32.1286L251.301 32.7804ZM271.05 86H258.692V88H271.05V86ZM259.643 86.6912L245.98 44.6102L244.078 45.2278L257.741 87.3088L259.643 86.6912ZM245.029 43.919H244.603V45.919H245.029V43.919ZM243.652 44.6097L229.962 86.6906L231.864 87.3094L245.553 45.2284L243.652 44.6097ZM230.141 66.56H259.331V64.56H230.141V66.56ZM258.331 65.56V74.5621H260.331V65.56H258.331ZM259.331 73.5621H230.141V75.5621H259.331V73.5621ZM231.141 74.5621V65.56H229.141V74.5621H231.141ZM326.988 32.4545H327.988V31.4545H326.988V32.4545ZM326.988 87V88H327.988V87H326.988ZM317.027 87L316.204 87.5686L316.503 88H317.027V87ZM293.297 52.6694L294.119 52.1008L293.821 51.6694H293.297V52.6694ZM292.897 52.6694V51.6694H291.897V52.6694H292.897ZM292.897 87V88H293.897V87H292.897ZM281.365 87H280.365V88H281.365V87ZM281.365 32.4545V31.4545H280.365V32.4545H281.365ZM291.486 32.4545L292.31 31.8887L292.012 31.4545H291.486V32.4545ZM315.03 66.7585L314.205 67.3244L314.503 67.7585H315.03V66.7585ZM315.509 66.7585V67.7585H316.509V66.7585H315.509ZM315.509 32.4545V31.4545H314.509V32.4545H315.509ZM325.988 32.4545V87H327.988V32.4545H325.988ZM326.988 86H317.027V88H326.988V86ZM317.85 86.4314L294.119 52.1008L292.474 53.238L316.204 87.5686L317.85 86.4314ZM293.297 51.6694H292.897V53.6694H293.297V51.6694ZM291.897 52.6694V87H293.897V52.6694H291.897ZM292.897 86H281.365V88H292.897V86ZM282.365 87V32.4545H280.365V87H282.365ZM281.365 33.4545H291.486V31.4545H281.365V33.4545ZM290.661 33.0204L314.205 67.3244L315.854 66.1926L292.31 31.8887L290.661 33.0204ZM315.03 67.7585H315.509V65.7585H315.03V67.7585ZM316.509 66.7585V32.4545H314.509V66.7585H316.509ZM315.509 33.4545H326.988V31.4545H315.509V33.4545ZM388.393 51.5508V52.5508H389.518L389.386 51.4336L388.393 51.5508ZM376.727 51.5508L375.737 51.6906L375.859 52.5508H376.727V51.5508ZM375.422 47.5291L374.547 48.0125L374.55 48.0181L375.422 47.5291ZM372.892 44.4929L372.263 45.2698L372.263 45.2698L372.892 44.4929ZM369.323 42.5753L369.007 43.524L369.011 43.5252L369.323 42.5753ZM357.605 44.0135L358.156 44.8477L358.161 44.8445L357.605 44.0135ZM352.731 50.0859L353.647 50.4858L353.648 50.4835L352.731 50.0859ZM352.731 69.5284L351.814 69.9283L351.816 69.9334L352.731 69.5284ZM357.631 75.521L357.09 76.3617L357.09 76.3617L357.631 75.521ZM369.19 76.9325L368.897 75.9765L368.893 75.9776L369.19 76.9325ZM372.732 75.1481L373.337 75.9448L373.345 75.9382L372.732 75.1481ZM375.289 72.245L374.435 71.7246L374.429 71.7345L375.289 72.245ZM376.727 68.3565L376.732 67.3565L375.894 67.3527L375.744 68.1766L376.727 68.3565ZM388.393 68.4098L389.386 68.5295L389.52 67.4149L388.397 67.4098L388.393 68.4098ZM386.129 75.6541L385.242 75.1934L385.24 75.196L386.129 75.6541ZM381.308 81.8597L381.978 82.602L381.979 82.6017L381.308 81.8597ZM374.117 86.1744L374.471 87.1097L374.474 87.1085L374.117 86.1744ZM351.665 84.4432L351.166 85.3094L351.167 85.3104L351.665 84.4432ZM342.61 74.8817L341.725 75.3484L341.727 75.3514L342.61 74.8817ZM342.663 44.5462L343.544 45.0187L343.544 45.0187L342.663 44.5462ZM351.772 35.0114L352.267 35.8804L352.27 35.8786L351.772 35.0114ZM373.505 33.0405L373.192 33.9904L373.194 33.991L373.505 33.0405ZM380.722 36.929L380.091 37.7047L380.095 37.7079L380.722 36.929ZM385.836 43.1346L384.955 43.6072L384.957 43.6121L385.836 43.1346ZM388.393 50.5508H376.727V52.5508H388.393V50.5508ZM377.718 51.411C377.49 49.7954 377.02 48.3336 376.295 47.0401L374.55 48.0181C375.139 49.0684 375.539 50.2877 375.737 51.6906L377.718 51.411ZM376.298 47.0457C375.58 45.7462 374.654 44.6336 373.522 43.716L372.263 45.2698C373.19 46.0212 373.951 46.9328 374.547 48.0125L376.298 47.0457ZM373.522 43.716C372.391 42.7997 371.092 42.1044 369.636 41.6254L369.011 43.5252C370.253 43.9339 371.334 44.5171 372.263 45.2698L373.522 43.716ZM369.64 41.6266C368.195 41.1451 366.64 40.9094 364.982 40.9094V42.9094C366.449 42.9094 367.788 43.1177 369.007 43.524L369.64 41.6266ZM364.982 40.9094C361.985 40.9094 359.327 41.6567 357.048 43.1825L358.161 44.8445C360.072 43.5649 362.332 42.9094 364.982 42.9094V40.9094ZM357.053 43.1793C354.772 44.687 353.032 46.8754 351.813 49.6883L353.648 50.4835C354.738 47.9698 356.247 46.1098 358.156 44.8477L357.053 43.1793ZM351.814 49.6861C350.591 52.4904 349.999 55.8484 349.999 59.7273H351.999C351.999 56.0422 352.562 52.9726 353.647 50.4858L351.814 49.6861ZM349.999 59.7273C349.999 63.7083 350.589 67.1209 351.814 69.9283L353.647 69.1286C352.564 66.6447 351.999 63.5233 351.999 59.7273H349.999ZM351.816 69.9334C353.054 72.7281 354.805 74.8903 357.09 76.3617L358.173 74.6802C356.267 73.4527 354.751 71.6199 353.645 69.1234L351.816 69.9334ZM357.09 76.3617C359.363 77.8258 361.979 78.5451 364.902 78.5451V76.5451C362.321 76.5451 360.09 75.915 358.173 74.6802L357.09 76.3617ZM364.902 78.5451C366.535 78.5451 368.066 78.3291 369.487 77.8875L368.893 75.9776C367.687 76.3527 366.358 76.5451 364.902 76.5451V78.5451ZM369.483 77.8886C370.919 77.4484 372.206 76.8023 373.337 75.9448L372.128 74.3514C371.199 75.0563 370.125 75.5998 368.897 75.9765L369.483 77.8886ZM373.345 75.9382C374.476 75.0612 375.411 73.9982 376.149 72.7556L374.429 71.7345C373.818 72.7646 373.049 73.637 372.119 74.358L373.345 75.9382ZM376.143 72.7654C376.906 71.5134 377.425 70.0994 377.711 68.5365L375.744 68.1766C375.497 69.5256 375.057 70.704 374.435 71.7247L376.143 72.7654ZM376.723 69.3565L388.388 69.4098L388.397 67.4098L376.732 67.3565L376.723 69.3565ZM387.4 68.2901C387.113 70.6699 386.396 72.9696 385.242 75.1934L387.017 76.1148C388.277 73.6866 389.069 71.1568 389.386 68.5295L387.4 68.2901ZM385.24 75.196C384.108 77.3919 382.577 79.3655 380.638 81.1177L381.979 82.6017C384.088 80.6963 385.77 78.5328 387.018 76.1122L385.24 75.196ZM380.638 81.1174C378.733 82.8376 376.445 84.2144 373.76 85.2403L374.474 87.1085C377.365 86.0037 379.871 84.504 381.978 82.602L380.638 81.1174ZM373.764 85.239C371.125 86.2369 368.114 86.7457 364.716 86.7457V88.7457C368.313 88.7457 371.57 88.207 374.471 87.1097L373.764 85.239ZM364.716 86.7457C360.007 86.7457 355.832 85.6821 352.163 83.5759L351.167 85.3104C355.169 87.6076 359.694 88.7457 364.716 88.7457V86.7457ZM352.165 83.5769C348.522 81.4757 345.631 78.4317 343.493 74.4121L341.727 75.3514C344.028 79.677 347.174 83.0072 351.166 85.3094L352.165 83.5769ZM343.494 74.4151C341.386 70.4186 340.307 65.536 340.307 59.7273H338.307C338.307 65.7794 339.431 70.9997 341.725 75.3484L343.494 74.4151ZM340.307 59.7273C340.307 53.9026 341.403 49.0134 343.544 45.0187L341.782 44.0736C339.449 48.4241 338.307 53.6557 338.307 59.7273H340.307ZM343.544 45.0187C345.7 40.9994 348.607 37.9643 352.267 35.8803L351.277 34.1424C347.266 36.4263 344.101 39.7477 341.782 44.0736L343.544 45.0187ZM352.27 35.8786C355.941 33.7711 360.081 32.7088 364.716 32.7088V30.7088C359.762 30.7088 355.273 31.8482 351.274 34.1441L352.27 35.8786ZM364.716 32.7088C367.782 32.7088 370.605 33.1393 373.192 33.9904L373.817 32.0906C371.007 31.1661 367.971 30.7088 364.716 30.7088V32.7088ZM373.194 33.991C375.801 34.8429 378.097 36.082 380.091 37.7047L381.354 36.1533C379.158 34.3669 376.642 33.0136 373.815 32.09L373.194 33.991ZM380.095 37.7079C382.083 39.3078 383.702 41.2709 384.955 43.6072L386.717 42.662C385.342 40.0977 383.553 37.9237 381.35 36.15L380.095 37.7079ZM384.957 43.6121C386.22 45.936 387.04 48.6161 387.4 51.6679L389.386 51.4336C389 48.1645 388.115 45.2337 386.715 42.6571L384.957 43.6121ZM400.413 87H399.413V88H400.413V87ZM400.413 32.4545V31.4545H399.413V32.4545H400.413ZM437.167 32.4545H438.167V31.4545H437.167V32.4545ZM437.167 41.9627V42.9627H438.167V41.9627H437.167ZM411.945 41.9627V40.9627H410.945V41.9627H411.945ZM411.945 54.9599H410.945V55.9599H411.945V54.9599ZM435.276 54.9599H436.276V53.9599H435.276V54.9599ZM435.276 64.468V65.468H436.276V64.468H435.276ZM411.945 64.468V63.468H410.945V64.468H411.945ZM411.945 77.4918H410.945V78.4918H411.945V77.4918ZM437.273 77.4918H438.273V76.4918H437.273V77.4918ZM437.273 87V88H438.273V87H437.273ZM401.413 87V32.4545H399.413V87H401.413ZM400.413 33.4545H437.167V31.4545H400.413V33.4545ZM436.167 32.4545V41.9627H438.167V32.4545H436.167ZM437.167 40.9627H411.945V42.9627H437.167V40.9627ZM410.945 41.9627V54.9599H412.945V41.9627H410.945ZM411.945 55.9599H435.276V53.9599H411.945V55.9599ZM434.276 54.9599V64.468H436.276V54.9599H434.276ZM435.276 63.468H411.945V65.468H435.276V63.468ZM410.945 64.468V77.4918H412.945V64.468H410.945ZM411.945 78.4918H437.273V76.4918H411.945V78.4918ZM436.273 77.4918V87H438.273V77.4918H436.273ZM437.273 86H400.413V88H437.273V86ZM16.7408 188H15.7408V189H16.7408V188ZM16.7408 133.455V132.455H15.7408V133.455H16.7408ZM28.2731 133.455H29.2731V132.455H28.2731V133.455ZM28.2731 157.505H27.2731V158.505H28.2731V157.505ZM28.9922 157.505V158.505H29.4668L29.7669 158.137L28.9922 157.505ZM48.6211 133.455V132.455H48.1465L47.8464 132.822L48.6211 133.455ZM62.4439 133.455L63.2138 134.093L64.5715 132.455H62.4439V133.455ZM42.2024 157.877L41.4325 157.239L40.9528 157.818L41.3755 158.44L42.2024 157.877ZM62.6836 188V189H64.5728L63.5105 187.438L62.6836 188ZM48.8874 188L48.0552 188.554L48.3521 189H48.8874V188ZM33.946 165.575L34.7782 165.02L34.0289 163.895L33.1725 164.941L33.946 165.575ZM28.2731 172.499L27.4995 171.866L27.2731 172.142V172.499H28.2731ZM28.2731 188V189H29.2731V188H28.2731ZM17.7408 188V133.455H15.7408V188H17.7408ZM16.7408 134.455H28.2731V132.455H16.7408V134.455ZM27.2731 133.455V157.505H29.2731V133.455H27.2731ZM28.2731 158.505H28.9922V156.505H28.2731V158.505ZM29.7669 158.137L49.3958 134.087L47.8464 132.822L28.2175 156.872L29.7669 158.137ZM48.6211 134.455H62.4439V132.455H48.6211V134.455ZM61.674 132.816L41.4325 157.239L42.9724 158.516L63.2138 134.093L61.674 132.816ZM41.3755 158.44L61.8566 188.562L63.5105 187.438L43.0294 157.315L41.3755 158.44ZM62.6836 187H48.8874V189H62.6836V187ZM49.7196 187.446L34.7782 165.02L33.1138 166.129L48.0552 188.554L49.7196 187.446ZM33.1725 164.941L27.4995 171.866L29.0466 173.133L34.7196 166.208L33.1725 164.941ZM27.2731 172.499V188H29.2731V172.499H27.2731ZM28.2731 187H16.7408V189H28.2731V187ZM117.823 133.455H118.823V132.455H117.823V133.455ZM117.823 188V189H118.823V188H117.823ZM107.862 188L107.039 188.569L107.338 189H107.862V188ZM84.1316 153.669L84.9542 153.101L84.656 152.669H84.1316V153.669ZM83.7321 153.669V152.669H82.7321V153.669H83.7321ZM83.7321 188V189H84.7321V188H83.7321ZM72.1998 188H71.1998V189H72.1998V188ZM72.1998 133.455V132.455H71.1998V133.455H72.1998ZM82.3205 133.455L83.145 132.889L82.847 132.455H82.3205V133.455ZM105.865 167.759L105.04 168.324L105.338 168.759H105.865V167.759ZM106.344 167.759V168.759H107.344V167.759H106.344ZM106.344 133.455V132.455H105.344V133.455H106.344ZM116.823 133.455V188H118.823V133.455H116.823ZM117.823 187H107.862V189H117.823V187ZM108.685 187.431L84.9542 153.101L83.309 154.238L107.039 188.569L108.685 187.431ZM84.1316 152.669H83.7321V154.669H84.1316V152.669ZM82.7321 153.669V188H84.7321V153.669H82.7321ZM83.7321 187H72.1998V189H83.7321V187ZM73.1998 188V133.455H71.1998V188H73.1998ZM72.1998 134.455H82.3205V132.455H72.1998V134.455ZM81.496 134.02L105.04 168.324L106.689 167.193L83.145 132.889L81.496 134.02ZM105.865 168.759H106.344V166.759H105.865V168.759ZM107.344 167.759V133.455H105.344V167.759H107.344ZM106.344 134.455H117.823V132.455H106.344V134.455ZM177.843 175.908L176.963 175.433L176.962 175.436L177.843 175.908ZM168.681 185.47L169.174 186.34L169.175 186.339L168.681 185.47ZM142.633 185.443L143.13 184.575L142.633 185.443ZM133.498 175.882L132.617 176.354L132.617 176.354L133.498 175.882ZM133.498 145.546L134.379 146.019L134.379 146.019L133.498 145.546ZM142.633 136.011L143.127 136.881L143.13 136.88L142.633 136.011ZM168.681 136.011L168.185 136.88L168.19 136.882L168.681 136.011ZM177.843 145.546L176.962 146.019L176.963 146.022L177.843 145.546ZM167.802 150.979L166.883 151.374L166.886 151.379L167.802 150.979ZM162.981 144.96L162.432 145.796L162.432 145.796L162.981 144.96ZM148.386 144.96L148.936 145.796L148.936 145.796L148.386 144.96ZM143.539 150.979L142.622 150.58L142.62 150.585L143.539 150.979ZM143.539 170.475L142.62 170.87L142.622 170.875L143.539 170.475ZM148.386 176.494L148.936 175.659L148.936 175.659L148.386 176.494ZM162.981 176.494L162.432 175.659L162.432 175.659L162.981 176.494ZM167.802 170.475L166.886 170.075L166.883 170.08L167.802 170.475ZM180.225 160.727C180.225 166.551 179.122 171.439 176.963 175.433L178.723 176.384C181.074 172.033 182.225 166.8 182.225 160.727H180.225ZM176.962 175.436C174.808 179.453 171.883 182.498 168.187 184.601L169.175 186.339C173.22 184.038 176.404 180.709 178.724 176.381L176.962 175.436ZM168.188 184.6C164.498 186.691 160.338 187.746 155.684 187.746V189.746C160.653 189.746 165.158 188.616 169.174 186.34L168.188 184.6ZM155.684 187.746C150.994 187.746 146.818 186.682 143.13 184.575L142.137 186.311C146.155 188.607 150.679 189.746 155.684 189.746V187.746ZM143.13 184.575C139.451 182.473 136.534 179.428 134.379 175.409L132.617 176.354C134.937 180.681 138.11 184.01 142.137 186.311L143.13 184.575ZM134.379 175.409C132.237 171.414 131.142 166.534 131.142 160.727H129.142C129.142 166.782 130.284 172.004 132.617 176.354L134.379 175.409ZM131.142 160.727C131.142 154.903 132.238 150.013 134.379 146.019L132.617 145.074C130.284 149.424 129.142 154.656 129.142 160.727H131.142ZM134.379 146.019C136.534 142.001 139.449 138.966 143.127 136.881L142.14 135.141C138.112 137.425 134.937 140.747 132.617 145.074L134.379 146.019ZM143.13 136.88C146.818 134.772 150.994 133.709 155.684 133.709V131.709C150.679 131.709 146.155 132.847 142.137 135.143L143.13 136.88ZM155.684 133.709C160.337 133.709 164.496 134.771 168.185 136.88L169.177 135.143C165.16 132.848 160.655 131.709 155.684 131.709V133.709ZM168.19 136.882C171.884 138.967 174.808 142.002 176.962 146.019L178.724 145.074C176.404 140.745 173.219 137.424 169.172 135.14L168.19 136.882ZM176.963 146.022C179.122 150.016 180.225 154.904 180.225 160.727H182.225C182.225 154.655 181.074 149.422 178.723 145.071L176.963 146.022ZM170.533 160.727C170.533 156.78 169.943 153.386 168.719 150.58L166.886 151.379C167.97 153.864 168.533 156.968 168.533 160.727H170.533ZM168.721 150.585C167.52 147.788 165.797 145.616 163.531 144.125L162.432 145.796C164.321 147.039 165.812 148.879 166.883 151.374L168.721 150.585ZM163.531 144.125C161.271 142.638 158.642 141.909 155.684 141.909V143.909C158.301 143.909 160.537 144.548 162.432 145.796L163.531 144.125ZM155.684 141.909C152.725 141.909 150.096 142.638 147.837 144.125L148.936 145.796C150.831 144.548 153.067 143.909 155.684 143.909V141.909ZM147.837 144.125C145.573 145.615 143.841 147.786 142.622 150.58L144.456 151.379C145.545 148.882 147.045 147.04 148.936 145.796L147.837 144.125ZM142.62 150.585C141.415 153.39 140.834 156.782 140.834 160.727H142.834C142.834 156.967 143.39 153.86 144.458 151.374L142.62 150.585ZM140.834 160.727C140.834 164.673 141.415 168.065 142.62 170.87L144.458 170.08C143.39 167.594 142.834 164.488 142.834 160.727H140.834ZM142.622 170.875C143.841 173.669 145.573 175.84 147.837 177.33L148.936 175.659C147.045 174.415 145.545 172.572 144.456 170.075L142.622 170.875ZM147.837 177.33C150.096 178.817 152.725 179.545 155.684 179.545V177.545C153.067 177.545 150.831 176.906 148.936 175.659L147.837 177.33ZM155.684 179.545C158.642 179.545 161.271 178.817 163.531 177.33L162.432 175.659C160.537 176.906 158.301 177.545 155.684 177.545V179.545ZM163.531 177.33C165.797 175.839 167.52 173.666 168.721 170.87L166.883 170.08C165.812 172.575 164.321 174.416 162.432 175.659L163.531 177.33ZM168.719 170.875C169.943 168.069 170.533 164.674 170.533 160.727H168.533C168.533 164.486 167.97 167.59 166.886 170.075L168.719 170.875ZM203.745 188L202.784 188.275L202.991 189H203.745V188ZM188.138 133.455V132.455H186.812L187.177 133.73L188.138 133.455ZM200.736 133.455L201.709 133.223L201.526 132.455H200.736V133.455ZM209.765 171.354L208.792 171.586L208.975 172.354H209.765V171.354ZM210.217 171.354V172.354H210.988L211.184 171.608L210.217 171.354ZM220.178 133.455V132.455H219.407L219.211 133.2L220.178 133.455ZM230.965 133.455L231.932 133.201L231.737 132.455H230.965V133.455ZM240.899 171.434L239.932 171.687L240.127 172.434H240.899V171.434ZM241.379 171.434V172.434H242.169L242.351 171.665L241.379 171.434ZM250.407 133.455V132.455H249.617L249.434 133.223L250.407 133.455ZM263.005 133.455L263.966 133.73L264.331 132.455H263.005V133.455ZM247.398 188V189H248.152L248.359 188.275L247.398 188ZM236.158 188L235.198 188.28L235.408 189H236.158V188ZM225.771 152.338L226.731 152.058L226.522 151.338H225.771V152.338ZM225.345 152.338V151.338H224.594L224.385 152.059L225.345 152.338ZM214.985 188V189H215.736L215.945 188.279L214.985 188ZM204.707 187.725L189.1 133.179L187.177 133.73L202.784 188.275L204.707 187.725ZM188.138 134.455H200.736V132.455H188.138V134.455ZM199.763 133.686L208.792 171.586L210.737 171.122L201.709 133.223L199.763 133.686ZM209.765 172.354H210.217V170.354H209.765V172.354ZM211.184 171.608L221.145 133.709L219.211 133.2L209.25 171.1L211.184 171.608ZM220.178 134.455H230.965V132.455H220.178V134.455ZM229.997 133.708L239.932 171.687L241.867 171.181L231.932 133.201L229.997 133.708ZM240.899 172.434H241.379V170.434H240.899V172.434ZM242.351 171.665L251.38 133.686L249.434 133.223L240.406 171.203L242.351 171.665ZM250.407 134.455H263.005V132.455H250.407V134.455ZM262.044 133.179L246.436 187.725L248.359 188.275L263.966 133.73L262.044 133.179ZM247.398 187H236.158V189H247.398V187ZM237.118 187.72L226.731 152.058L224.811 152.617L235.198 188.28L237.118 187.72ZM225.771 151.338H225.345V153.338H225.771V151.338ZM224.385 152.059L214.024 187.721L215.945 188.279L226.305 152.617L224.385 152.059ZM214.985 187H203.745V189H214.985V187ZM302.004 149.142L301.009 149.24L301.099 150.142H302.004V149.142ZM287.915 143.149L288.285 144.079L288.295 144.074L287.915 143.149ZM284.932 145.306L284.132 144.706L284.125 144.716L284.932 145.306ZM283.92 148.449L284.92 148.486L284.92 148.467V148.449H283.92ZM284.533 151.006L283.679 151.527L283.684 151.534L283.688 151.542L284.533 151.006ZM286.424 152.897L285.869 153.729L285.876 153.733L285.882 153.738L286.424 152.897ZM289.194 154.255L288.844 155.192L288.851 155.195L288.858 155.197L289.194 154.255ZM292.55 155.214L292.782 154.242L292.775 154.24L292.768 154.238L292.55 155.214ZM297.45 156.386L297.218 157.359L297.225 157.36L297.232 157.362L297.45 156.386ZM304.002 158.517L303.594 159.43L303.594 159.43L304.002 158.517ZM309.169 161.793L309.834 161.046L309.834 161.046L309.169 161.793ZM312.551 166.374L311.641 166.787L311.644 166.795L312.551 166.374ZM313.803 172.419L314.803 172.425L314.803 172.412L313.803 172.419ZM311.246 181.102L310.423 180.535L310.422 180.536L311.246 181.102ZM304.002 186.775L304.392 187.696L304.395 187.695L304.002 186.775ZM281.124 186.748L280.74 187.672L280.742 187.672L281.124 186.748ZM273.507 180.756L272.68 181.318L272.684 181.324L273.507 180.756ZM270.657 170.875V169.875H269.634L269.657 170.897L270.657 170.875ZM281.816 170.875L282.814 170.807L282.751 169.875H281.816V170.875ZM283.388 175.456L282.589 176.057L282.594 176.064L282.599 176.07L283.388 175.456ZM287.143 178.199L286.773 179.128L286.786 179.133L287.143 178.199ZM297.583 178.252L297.22 177.321L297.216 177.322L297.583 178.252ZM300.966 175.882L301.751 176.501L301.751 176.501L300.966 175.882ZM301.072 169.303L300.311 169.951L300.319 169.961L301.072 169.303ZM297.93 167.173L297.536 168.092L297.54 168.094L297.93 167.173ZM292.896 165.575L292.652 166.545L292.661 166.547L292.896 165.575ZM286.956 164.083L287.2 163.113L287.193 163.111L286.956 164.083ZM276.063 158.836L275.397 159.582L275.397 159.582L276.063 158.836ZM272.095 149.222L273.095 149.226L273.095 149.216L272.095 149.222ZM274.732 140.566L273.923 139.978L273.92 139.982L274.732 140.566ZM303.363 134.786L302.946 135.695L302.948 135.696L303.363 134.786ZM310.447 140.566L309.622 141.13L309.622 141.13L310.447 140.566ZM313.057 149.142V150.142H314.074L314.057 149.125L313.057 149.142ZM303 149.043C302.761 146.637 301.717 144.701 299.854 143.329L298.668 144.94C300.037 145.948 300.822 147.35 301.009 149.24L303 149.043ZM299.854 143.329C298.012 141.973 295.586 141.35 292.683 141.35V143.35C295.319 143.35 297.279 143.917 298.668 144.94L299.854 143.329ZM292.683 141.35C290.712 141.35 288.986 141.628 287.535 142.224L288.295 144.074C289.437 143.605 290.889 143.35 292.683 143.35V141.35ZM287.546 142.22C286.115 142.788 284.956 143.608 284.132 144.706L285.732 145.906C286.293 145.159 287.124 144.54 288.285 144.078L287.546 142.22ZM284.125 144.716C283.322 145.816 282.92 147.071 282.92 148.449H284.92C284.92 147.484 285.193 146.644 285.74 145.896L284.125 144.716ZM282.921 148.413C282.879 149.556 283.119 150.608 283.679 151.527L285.387 150.485C285.059 149.948 284.89 149.296 284.92 148.486L282.921 148.413ZM283.688 151.542C284.233 152.4 284.967 153.128 285.869 153.729L286.979 152.065C286.282 151.601 285.756 151.068 285.377 150.47L283.688 151.542ZM285.882 153.738C286.751 154.298 287.741 154.781 288.844 155.192L289.543 153.318C288.551 152.949 287.695 152.526 286.966 152.056L285.882 153.738ZM288.858 155.197C289.948 155.585 291.106 155.916 292.331 156.19L292.768 154.238C291.614 153.98 290.535 153.671 289.529 153.313L288.858 155.197ZM292.317 156.187L297.218 157.359L297.683 155.413L292.782 154.242L292.317 156.187ZM297.232 157.362C299.554 157.882 301.673 158.572 303.594 159.43L304.41 157.604C302.353 156.686 300.105 155.956 297.669 155.41L297.232 157.362ZM303.594 159.43C305.5 160.281 307.133 161.319 308.504 162.54L309.834 161.046C308.293 159.674 306.481 158.528 304.41 157.604L303.594 159.43ZM308.504 162.54C309.857 163.744 310.9 165.158 311.641 166.787L313.462 165.96C312.604 164.074 311.393 162.434 309.834 161.046L308.504 162.54ZM311.644 166.795C312.391 168.403 312.786 170.273 312.803 172.427L314.803 172.412C314.784 170.02 314.345 167.86 313.458 165.952L311.644 166.795ZM312.803 172.414C312.786 175.577 311.982 178.27 310.423 180.535L312.07 181.669C313.884 179.034 314.784 175.938 314.803 172.425L312.803 172.414ZM310.422 180.536C308.877 182.788 306.624 184.568 303.609 185.855L304.395 187.695C307.7 186.283 310.278 184.281 312.071 181.668L310.422 180.536ZM303.612 185.854C300.624 187.12 296.973 187.772 292.629 187.772V189.772C297.164 189.772 301.095 189.093 304.392 187.696L303.612 185.854ZM292.629 187.772C288.326 187.772 284.626 187.113 281.506 185.824L280.742 187.672C284.156 189.083 288.126 189.772 292.629 189.772V187.772ZM281.507 185.825C278.418 184.542 276.039 182.66 274.329 180.187L272.684 181.324C274.632 184.143 277.331 186.256 280.74 187.672L281.507 185.825ZM274.333 180.193C272.652 177.721 271.742 174.626 271.657 170.852L269.657 170.897C269.749 174.972 270.738 178.463 272.68 181.318L274.333 180.193ZM270.657 171.875H281.816V169.875H270.657V171.875ZM280.819 170.942C280.953 172.927 281.528 174.649 282.589 176.057L284.186 174.854C283.401 173.812 282.928 172.48 282.814 170.807L280.819 170.942ZM282.599 176.07C283.66 177.432 285.062 178.448 286.773 179.128L287.513 177.27C286.098 176.707 284.998 175.894 284.176 174.841L282.599 176.07ZM286.786 179.133C288.498 179.787 290.407 180.104 292.496 180.104V178.104C290.609 178.104 288.948 177.818 287.5 177.265L286.786 179.133ZM292.496 180.104C294.543 180.104 296.369 179.807 297.951 179.182L297.216 177.322C295.921 177.834 294.355 178.104 292.496 178.104V180.104ZM297.947 179.184C299.533 178.565 300.82 177.68 301.751 176.501L300.181 175.262C299.513 176.108 298.545 176.803 297.22 177.321L297.947 179.184ZM301.751 176.501C302.692 175.309 303.164 173.927 303.164 172.393H301.164C301.164 173.486 300.838 174.43 300.181 175.262L301.751 176.501ZM303.164 172.393C303.164 170.954 302.73 169.682 301.826 168.646L300.319 169.961C300.871 170.593 301.164 171.382 301.164 172.393H303.164ZM301.834 168.655C300.992 167.666 299.797 166.877 298.319 166.252L297.54 168.094C298.832 168.64 299.732 169.271 300.311 169.951L301.834 168.655ZM298.323 166.253C296.89 165.639 295.155 165.09 293.13 164.602L292.661 166.547C294.614 167.017 296.235 167.534 297.536 168.092L298.323 166.253ZM293.139 164.605L287.2 163.113L286.713 165.053L292.652 166.544L293.139 164.605ZM287.193 163.111C282.704 162.019 279.237 160.331 276.73 158.091L275.397 159.582C278.216 162.101 282.012 163.909 286.72 165.055L287.193 163.111ZM276.73 158.091C274.309 155.928 273.078 153.011 273.095 149.226L271.095 149.217C271.076 153.493 272.492 156.986 275.397 159.582L276.73 158.091ZM273.095 149.216C273.078 146.106 273.902 143.431 275.543 141.15L273.92 139.982C272.01 142.636 271.076 145.732 271.095 149.227L273.095 149.216ZM275.541 141.154C277.218 138.845 279.531 137.023 282.514 135.7L281.704 133.872C278.438 135.319 275.832 137.351 273.923 139.978L275.541 141.154ZM282.514 135.7C285.493 134.381 288.902 133.709 292.763 133.709V131.709C288.668 131.709 284.976 132.422 281.704 133.872L282.514 135.7ZM292.763 133.709C296.698 133.709 300.084 134.382 302.946 135.695L303.78 133.877C300.605 132.421 296.924 131.709 292.763 131.709V133.709ZM302.948 135.696C305.838 137.014 308.049 138.829 309.622 141.13L311.273 140.001C309.472 137.366 306.96 135.328 303.778 133.876L302.948 135.696ZM309.622 141.13C311.188 143.422 312.007 146.087 312.057 149.158L314.057 149.125C314.001 145.698 313.08 142.645 311.273 140.001L309.622 141.13ZM313.057 148.142H302.004V150.142H313.057V148.142ZM62.364 234.455H63.364V233.455H62.364V234.455ZM62.364 289V290H63.364V289H62.364ZM52.4031 289L51.5804 289.569L51.8786 290H52.4031V289ZM28.6726 254.669L29.4952 254.101L29.197 253.669H28.6726V254.669ZM28.2731 254.669V253.669H27.2731V254.669H28.2731ZM28.2731 289V290H29.2731V289H28.2731ZM16.7408 289H15.7408V290H16.7408V289ZM16.7408 234.455V233.455H15.7408V234.455H16.7408ZM26.8615 234.455L27.686 233.889L27.388 233.455H26.8615V234.455ZM50.4055 268.759L49.5811 269.324L49.879 269.759H50.4055V268.759ZM50.8849 268.759V269.759H51.8849V268.759H50.8849ZM50.8849 234.455V233.455H49.8849V234.455H50.8849ZM61.364 234.455V289H63.364V234.455H61.364ZM62.364 288H52.4031V290H62.364V288ZM53.2257 288.431L29.4952 254.101L27.85 255.238L51.5804 289.569L53.2257 288.431ZM28.6726 253.669H28.2731V255.669H28.6726V253.669ZM27.2731 254.669V289H29.2731V254.669H27.2731ZM28.2731 288H16.7408V290H28.2731V288ZM17.7408 289V234.455H15.7408V289H17.7408ZM16.7408 235.455H26.8615V233.455H16.7408V235.455ZM26.037 235.02L49.5811 269.324L51.23 268.193L27.686 233.889L26.037 235.02ZM50.4055 269.759H50.8849V267.759H50.4055V269.759ZM51.8849 268.759V234.455H49.8849V268.759H51.8849ZM50.8849 235.455H62.364V233.455H50.8849V235.455ZM122.384 276.908L121.504 276.433L121.503 276.436L122.384 276.908ZM113.222 286.47L113.715 287.34L113.716 287.339L113.222 286.47ZM87.1744 286.443L87.6706 285.575L87.1744 286.443ZM78.0392 276.882L77.1578 277.354L77.1578 277.354L78.0392 276.882ZM78.0392 246.546L78.9205 247.019L78.9205 247.019L78.0392 246.546ZM87.1744 237.011L87.6676 237.881L87.6706 237.88L87.1744 237.011ZM113.222 237.011L112.726 237.88L112.731 237.882L113.222 237.011ZM122.384 246.546L121.503 247.019L121.504 247.022L122.384 246.546ZM112.343 251.979L111.424 252.374L111.427 252.379L112.343 251.979ZM107.522 245.96L106.973 246.796L106.973 246.796L107.522 245.96ZM92.9273 245.96L93.477 246.796L93.477 246.796L92.9273 245.96ZM88.08 251.979L87.1634 251.58L87.1612 251.585L88.08 251.979ZM88.08 271.475L87.1611 271.87L87.1634 271.875L88.08 271.475ZM92.9273 277.494L93.477 276.659L93.477 276.659L92.9273 277.494ZM107.522 277.494L106.973 276.659L106.973 276.659L107.522 277.494ZM112.343 271.475L111.427 271.075L111.424 271.08L112.343 271.475ZM124.766 261.727C124.766 267.551 123.663 272.439 121.504 276.433L123.264 277.384C125.615 273.033 126.766 267.8 126.766 261.727H124.766ZM121.503 276.436C119.349 280.453 116.424 283.498 112.728 285.601L113.716 287.339C117.761 285.038 120.945 281.709 123.265 277.381L121.503 276.436ZM112.729 285.6C109.039 287.691 104.879 288.746 100.225 288.746V290.746C105.194 290.746 109.699 289.616 113.715 287.34L112.729 285.6ZM100.225 288.746C95.5351 288.746 91.3588 287.682 87.6706 285.575L86.6783 287.311C90.6961 289.607 95.2201 290.746 100.225 290.746V288.746ZM87.6706 285.575C83.9916 283.473 81.0752 280.428 78.9205 276.409L77.1578 277.354C79.4776 281.681 82.6513 285.01 86.6783 287.311L87.6706 285.575ZM78.9205 276.409C76.7784 272.414 75.6833 267.534 75.6833 261.727H73.6833C73.6833 267.782 74.8254 273.004 77.1578 277.354L78.9205 276.409ZM75.6833 261.727C75.6833 255.903 76.7786 251.013 78.9205 247.019L77.1578 246.074C74.8252 250.424 73.6833 255.656 73.6833 261.727H75.6833ZM78.9205 247.019C81.0748 243.001 83.9904 239.966 87.6676 237.881L86.6813 236.141C82.6526 238.425 79.4779 241.747 77.1578 246.074L78.9205 247.019ZM87.6706 237.88C91.3588 235.772 95.5351 234.709 100.225 234.709V232.709C95.2201 232.709 90.6961 233.847 86.6783 236.143L87.6706 237.88ZM100.225 234.709C104.878 234.709 109.037 235.771 112.726 237.88L113.718 236.143C109.701 233.848 105.196 232.709 100.225 232.709V234.709ZM112.731 237.882C116.425 239.967 119.349 243.002 121.503 247.019L123.265 246.074C120.945 241.745 117.76 238.424 113.713 236.14L112.731 237.882ZM121.504 247.022C123.663 251.016 124.766 255.904 124.766 261.727H126.766C126.766 255.655 125.615 250.422 123.264 246.071L121.504 247.022ZM115.074 261.727C115.074 257.78 114.484 254.386 113.26 251.58L111.427 252.379C112.511 254.864 113.074 257.968 113.074 261.727H115.074ZM113.262 251.585C112.061 248.788 110.338 246.616 108.072 245.125L106.973 246.796C108.862 248.039 110.353 249.879 111.424 252.374L113.262 251.585ZM108.072 245.125C105.812 243.638 103.183 242.909 100.225 242.909V244.909C102.842 244.909 105.078 245.548 106.973 246.796L108.072 245.125ZM100.225 242.909C97.2663 242.909 94.6375 243.638 92.3775 245.125L93.477 246.796C95.3719 245.548 97.6082 244.909 100.225 244.909V242.909ZM92.3775 245.125C90.1135 246.615 88.3823 248.786 87.1634 251.58L88.9966 252.379C90.0859 249.882 91.5862 248.04 93.477 246.796L92.3775 245.125ZM87.1612 251.585C85.9564 254.39 85.3754 257.782 85.3754 261.727H87.3754C87.3754 257.967 87.9308 254.86 88.9988 252.374L87.1612 251.585ZM85.3754 261.727C85.3754 265.673 85.9564 269.065 87.1612 271.87L88.9988 271.08C87.9308 268.594 87.3754 265.488 87.3754 261.727H85.3754ZM87.1634 271.875C88.3823 274.669 90.1135 276.84 92.3775 278.33L93.477 276.659C91.5862 275.415 90.0859 273.572 88.9966 271.075L87.1634 271.875ZM92.3775 278.33C94.6375 279.817 97.2663 280.545 100.225 280.545V278.545C97.6082 278.545 95.3719 277.906 93.477 276.659L92.3775 278.33ZM100.225 280.545C103.183 280.545 105.812 279.817 108.072 278.33L106.973 276.659C105.078 277.906 102.842 278.545 100.225 278.545V280.545ZM108.072 278.33C110.338 276.839 112.061 274.666 113.262 271.87L111.424 271.08C110.353 273.575 108.862 275.416 106.973 276.659L108.072 278.33ZM113.26 271.875C114.484 269.069 115.074 265.674 115.074 261.727H113.074C113.074 265.486 112.511 268.59 111.427 271.075L113.26 271.875ZM16.7408 390H15.7408V391H16.7408V390ZM16.7408 335.455V334.455H15.7408V335.455H16.7408ZM48.6211 337.239L48.2155 338.153L48.2155 338.153L48.6211 337.239ZM54.6669 342.193L53.8241 342.731L53.8262 342.734L54.6669 342.193ZM55.4126 355.057L56.295 355.527L56.2971 355.523L55.4126 355.057ZM51.897 358.999L52.4631 359.823L52.4652 359.821L51.897 358.999ZM46.8366 361.156L46.6178 360.18L45.8366 360.355V361.156H46.8366ZM46.8366 361.689H45.8366V362.647L46.794 362.688L46.8366 361.689ZM52.6694 363.446L52.1561 364.305L52.1598 364.307L52.6694 363.446ZM57.1172 368.001L56.2528 368.504L56.2548 368.507L57.1172 368.001ZM56.6644 382.676L55.8194 382.141L55.8183 382.143L56.6644 382.676ZM50.3523 388.029L49.9259 387.125L49.9259 387.125L50.3523 388.029ZM28.2731 380.572H27.2731V381.572H28.2731V380.572ZM44.706 378.734L45.3453 379.503L45.3507 379.498L44.706 378.734ZM45.8246 369.785L44.9788 370.319L44.9788 370.319L45.8246 369.785ZM42.7085 367.069L42.266 367.965L42.2707 367.968L42.7085 367.069ZM28.2731 366.083V365.083H27.2731V366.083H28.2731ZM28.2731 358.279H27.2731V359.279H28.2731V358.279ZM41.0305 357.454L41.4404 358.366L41.4463 358.363L41.0305 357.454ZM43.9602 355.057L43.1436 354.48L43.137 354.489L43.9602 355.057ZM42.9482 346.587L42.291 347.341L42.2958 347.345L42.9482 346.587ZM28.2731 344.776V343.776H27.2731V344.776H28.2731ZM17.7408 390V335.455H15.7408V390H17.7408ZM16.7408 336.455H38.5803V334.455H16.7408V336.455ZM38.5803 336.455C42.5017 336.455 45.6999 337.037 48.2155 338.153L49.0267 336.325C46.18 335.062 42.6844 334.455 38.5803 334.455V336.455ZM48.2155 338.153C50.7483 339.277 52.5973 340.81 53.8241 342.731L55.5097 341.655C54.0376 339.35 51.8561 337.58 49.0267 336.325L48.2155 338.153ZM53.8262 342.734C55.0616 344.652 55.6911 346.875 55.6911 349.437H57.6911C57.6911 346.53 56.9711 343.924 55.5076 341.651L53.8262 342.734ZM55.6911 349.437C55.6911 351.432 55.2928 353.141 54.5281 354.59L56.2971 355.523C57.237 353.742 57.6911 351.703 57.6911 349.437H55.6911ZM54.5303 354.586C53.7532 356.043 52.6891 357.236 51.3288 358.176L52.4652 359.821C54.0879 358.701 55.3676 357.266 56.295 355.527L54.5303 354.586ZM51.3309 358.174C49.9712 359.108 48.4044 359.779 46.6178 360.18L47.0555 362.132C49.0686 361.68 50.8753 360.913 52.4631 359.823L51.3309 358.174ZM45.8366 361.156V361.689H47.8366V361.156H45.8366ZM46.794 362.688C48.7027 362.769 50.4855 363.306 52.1561 364.305L53.1826 362.588C51.2311 361.421 49.1254 360.785 46.8793 360.689L46.794 362.688ZM52.1598 364.307C53.8325 365.297 55.1967 366.688 56.2528 368.504L57.9815 367.498C56.765 365.407 55.1639 363.762 53.179 362.586L52.1598 364.307ZM56.2548 368.507C57.285 370.261 57.8217 372.388 57.8217 374.925H59.8217C59.8217 372.101 59.2221 369.611 57.9795 367.494L56.2548 368.507ZM57.8217 374.925C57.8217 377.645 57.1486 380.041 55.8194 382.141L57.5094 383.211C59.0566 380.766 59.8217 377.994 59.8217 374.925H57.8217ZM55.8183 382.143C54.5146 384.212 52.5686 385.879 49.9259 387.125L50.7786 388.934C53.7112 387.551 55.9733 385.649 57.5105 383.209L55.8183 382.143ZM49.9259 387.125C47.3076 388.359 44.0272 389 40.0451 389V391C44.2306 391 47.8217 390.327 50.7786 388.934L49.9259 387.125ZM40.0451 389H16.7408V391H40.0451V389ZM28.2731 381.572H37.6747V379.572H28.2731V381.572ZM37.6747 381.572C40.9767 381.572 43.6052 380.95 45.3452 379.503L44.0667 377.965C42.8592 378.969 40.8003 379.572 37.6747 379.572V381.572ZM45.3507 379.498C47.0667 378.051 47.9165 376.112 47.9165 373.78H45.9165C45.9165 375.568 45.2927 376.931 44.0613 377.97L45.3507 379.498ZM47.9165 373.78C47.9165 372.103 47.5096 370.582 46.6704 369.252L44.9788 370.319C45.5955 371.296 45.9165 372.439 45.9165 373.78H47.9165ZM46.6704 369.252C45.8333 367.925 44.6457 366.899 43.1462 366.169L42.2707 367.968C43.47 368.552 44.3599 369.338 44.9788 370.319L46.6704 369.252ZM43.1509 366.172C41.6522 365.432 39.9045 365.083 37.9411 365.083V367.083C39.6707 367.083 41.1014 367.391 42.266 367.965L43.1509 366.172ZM37.9411 365.083H28.2731V367.083H37.9411V365.083ZM27.2731 366.083V380.572H29.2731V366.083H27.2731ZM28.2731 359.279H36.8224V357.279H28.2731V359.279ZM36.8224 359.279C38.5193 359.279 40.0656 358.984 41.4404 358.366L40.6207 356.542C39.5452 357.025 38.2861 357.279 36.8224 357.279V359.279ZM41.4463 358.363C42.8377 357.727 43.9614 356.817 44.7834 355.625L43.137 354.489C42.5386 355.357 41.7092 356.044 40.6148 356.544L41.4463 358.363ZM44.7768 355.634C45.6404 354.412 46.0522 352.97 46.0522 351.355H44.0522C44.0522 352.616 43.736 353.642 43.1437 354.48L44.7768 355.634ZM46.0522 351.355C46.0522 349.114 45.2397 347.24 43.6005 345.829L42.2958 347.345C43.462 348.349 44.0522 349.654 44.0522 351.355H46.0522ZM43.6053 345.834C41.9779 344.415 39.7396 343.776 37.0355 343.776V345.776C39.4451 345.776 41.1485 346.345 42.291 347.341L43.6053 345.834ZM37.0355 343.776H28.2731V345.776H37.0355V343.776ZM27.2731 344.776V358.279H29.2731V344.776H27.2731ZM116.818 377.908L115.938 377.433L115.936 377.436L116.818 377.908ZM107.656 387.47L108.149 388.34L108.15 388.339L107.656 387.47ZM81.608 387.443L82.1042 386.575L81.608 387.443ZM72.4727 377.882L71.5914 378.354L71.5914 378.354L72.4727 377.882ZM72.4727 347.546L73.3541 348.019L73.3541 348.019L72.4727 347.546ZM81.608 338.011L82.1012 338.881L82.1042 338.88L81.608 338.011ZM107.656 338.011L107.159 338.88L107.164 338.882L107.656 338.011ZM116.818 347.546L115.936 348.019L115.938 348.022L116.818 347.546ZM106.777 352.979L105.858 353.374L105.86 353.379L106.777 352.979ZM101.956 346.96L101.406 347.796L101.406 347.796L101.956 346.96ZM87.3609 346.96L87.9106 347.796L87.9106 347.796L87.3609 346.96ZM82.5136 352.979L81.597 352.58L81.5948 352.585L82.5136 352.979ZM82.5136 372.475L81.5947 372.87L81.597 372.875L82.5136 372.475ZM87.3609 378.494L87.9106 377.659L87.9106 377.659L87.3609 378.494ZM101.956 378.494L101.406 377.659L101.406 377.659L101.956 378.494ZM106.777 372.475L105.86 372.075L105.858 372.08L106.777 372.475ZM119.2 362.727C119.2 368.551 118.096 373.439 115.938 377.433L117.697 378.384C120.049 374.033 121.2 368.8 121.2 362.727H119.2ZM115.936 377.436C113.782 381.453 110.858 384.498 107.161 386.601L108.15 388.339C112.195 386.038 115.379 382.709 117.699 378.381L115.936 377.436ZM107.163 386.6C103.473 388.691 99.3128 389.746 94.6585 389.746V391.746C99.6277 391.746 104.133 390.616 108.149 388.34L107.163 386.6ZM94.6585 389.746C89.9687 389.746 85.7923 388.682 82.1042 386.575L81.1119 388.311C85.1297 390.607 89.6537 391.746 94.6585 391.746V389.746ZM82.1042 386.575C78.4252 384.473 75.5088 381.428 73.3541 377.409L71.5914 378.354C73.9112 382.681 77.0849 386.01 81.1119 388.311L82.1042 386.575ZM73.3541 377.409C71.212 373.414 70.1169 368.534 70.1169 362.727H68.1169C68.1169 368.782 69.259 374.004 71.5914 378.354L73.3541 377.409ZM70.1169 362.727C70.1169 356.903 71.2122 352.013 73.3541 348.019L71.5914 347.074C69.2588 351.424 68.1169 356.656 68.1169 362.727H70.1169ZM73.3541 348.019C75.5084 344.001 78.424 340.966 82.1012 338.881L81.1149 337.141C77.0862 339.425 73.9115 342.747 71.5914 347.074L73.3541 348.019ZM82.1042 338.88C85.7923 336.772 89.9687 335.709 94.6585 335.709V333.709C89.6537 333.709 85.1297 334.847 81.1119 337.143L82.1042 338.88ZM94.6585 335.709C99.3114 335.709 103.47 336.771 107.159 338.88L108.152 337.143C104.135 334.848 99.6292 333.709 94.6585 333.709V335.709ZM107.164 338.882C110.859 340.967 113.783 344.002 115.936 348.019L117.699 347.074C115.378 342.745 112.194 339.424 108.147 337.14L107.164 338.882ZM115.938 348.022C118.096 352.016 119.2 356.904 119.2 362.727H121.2C121.2 356.655 120.049 351.422 117.697 347.071L115.938 348.022ZM109.508 362.727C109.508 358.78 108.918 355.386 107.693 352.58L105.86 353.379C106.944 355.864 107.508 358.968 107.508 362.727H109.508ZM107.696 352.585C106.494 349.788 104.771 347.616 102.506 346.125L101.406 347.796C103.296 349.039 104.786 350.879 105.858 353.374L107.696 352.585ZM102.506 346.125C100.246 344.638 97.6171 343.909 94.6585 343.909V345.909C97.2752 345.909 99.5114 346.548 101.406 347.796L102.506 346.125ZM94.6585 343.909C91.6999 343.909 89.0711 344.638 86.8111 346.125L87.9106 347.796C89.8055 346.548 92.0418 345.909 94.6585 345.909V343.909ZM86.8111 346.125C84.5471 347.615 82.8159 349.786 81.597 352.58L83.4302 353.379C84.5195 350.882 86.0198 349.04 87.9106 347.796L86.8111 346.125ZM81.5948 352.585C80.39 355.39 79.809 358.782 79.809 362.727H81.809C81.809 358.967 82.3644 355.86 83.4324 353.374L81.5948 352.585ZM79.809 362.727C79.809 366.673 80.39 370.065 81.5948 372.87L83.4324 372.08C82.3644 369.594 81.809 366.488 81.809 362.727H79.809ZM81.597 372.875C82.8159 375.669 84.5471 377.84 86.8111 379.33L87.9106 377.659C86.0198 376.415 84.5195 374.572 83.4302 372.075L81.597 372.875ZM86.8111 379.33C89.0711 380.817 91.6999 381.545 94.6585 381.545V379.545C92.0418 379.545 89.8055 378.906 87.9106 377.659L86.8111 379.33ZM94.6585 381.545C97.6171 381.545 100.246 380.817 102.506 379.33L101.406 377.659C99.5114 378.906 97.2752 379.545 94.6585 379.545V381.545ZM102.506 379.33C104.771 377.839 106.494 375.666 107.696 372.87L105.858 372.08C104.786 374.575 103.296 376.416 101.406 377.659L102.506 379.33ZM107.693 372.875C108.918 370.069 109.508 366.674 109.508 362.727H107.508C107.508 366.486 106.944 369.59 105.86 372.075L107.693 372.875ZM166.184 335.455V334.455H165.184V335.455H166.184ZM177.716 335.455H178.716V334.455H177.716V335.455ZM174.867 381.317L174.023 380.78L174.021 380.784L174.867 381.317ZM166.957 388.295L167.394 389.195L167.398 389.193L166.957 388.295ZM143.226 388.295L142.784 389.193L142.788 389.195L143.226 388.295ZM135.316 381.317L134.47 381.851L134.47 381.851L135.316 381.317ZM132.493 335.455V334.455H131.493V335.455H132.493ZM144.025 335.455H145.025V334.455H144.025V335.455ZM145.383 375.431L144.511 375.92L144.515 375.928L145.383 375.431ZM149.272 379.24L148.788 380.115L148.788 380.115L149.272 379.24ZM160.937 379.24L160.453 378.365L160.449 378.367L160.937 379.24ZM164.799 375.431L163.931 374.935L163.927 374.943L164.799 375.431ZM166.184 336.455H177.716V334.455H166.184V336.455ZM176.716 335.455V370.877H178.716V335.455H176.716ZM176.716 370.877C176.716 374.689 175.808 377.977 174.023 380.78L175.71 381.855C177.725 378.692 178.716 375.02 178.716 370.877H176.716ZM174.021 380.784C172.244 383.599 169.753 385.805 166.515 387.398L167.398 389.193C170.943 387.448 173.725 385.001 175.712 381.851L174.021 380.784ZM166.519 387.396C163.288 388.969 159.492 389.772 155.105 389.772V391.772C159.737 391.772 163.842 390.924 167.394 389.195L166.519 387.396ZM155.105 389.772C150.699 389.772 146.894 388.969 143.664 387.396L142.788 389.195C146.341 390.924 150.455 391.772 155.105 391.772V389.772ZM143.668 387.398C140.43 385.805 137.938 383.599 136.162 380.784L134.47 381.851C136.458 385.001 139.24 387.448 142.784 389.193L143.668 387.398ZM136.162 380.784C134.393 377.98 133.493 374.69 133.493 370.877H131.493C131.493 375.018 132.475 378.689 134.47 381.851L136.162 380.784ZM133.493 370.877V335.455H131.493V370.877H133.493ZM132.493 336.455H144.025V334.455H132.493V336.455ZM143.025 335.455V369.892H145.025V335.455H143.025ZM143.025 369.892C143.025 372.119 143.512 374.138 144.511 375.92L146.256 374.943C145.444 373.494 145.025 371.819 145.025 369.892H143.025ZM144.515 375.928C145.532 377.707 146.963 379.105 148.788 380.115L149.756 378.365C148.243 377.528 147.082 376.388 146.252 374.935L144.515 375.928ZM148.788 380.115C150.628 381.133 152.744 381.625 155.105 381.625V379.625C153.027 379.625 151.254 379.194 149.756 378.365L148.788 380.115ZM155.105 381.625C157.481 381.625 159.6 381.134 161.425 380.113L160.449 378.367C158.972 379.193 157.202 379.625 155.105 379.625V381.625ZM161.421 380.115C163.248 379.105 164.672 377.703 165.672 375.92L163.927 374.943C163.115 376.391 161.965 377.529 160.453 378.365L161.421 380.115ZM165.667 375.928C166.687 374.144 167.184 372.122 167.184 369.892H165.184C165.184 371.816 164.758 373.488 163.931 374.935L165.667 375.928ZM167.184 369.892V335.455H165.184V369.892H167.184ZM236.578 335.455H237.578V334.455H236.578V335.455ZM236.578 390V391H237.578V390H236.578ZM226.617 390L225.794 390.569L226.093 391H226.617V390ZM202.886 355.669L203.709 355.101L203.411 354.669H202.886V355.669ZM202.487 355.669V354.669H201.487V355.669H202.487ZM202.487 390V391H203.487V390H202.487ZM190.955 390H189.955V391H190.955V390ZM190.955 335.455V334.455H189.955V335.455H190.955ZM201.075 335.455L201.9 334.889L201.602 334.455H201.075V335.455ZM224.619 369.759L223.795 370.324L224.093 370.759H224.619V369.759ZM225.099 369.759V370.759H226.099V369.759H225.099ZM225.099 335.455V334.455H224.099V335.455H225.099ZM235.578 335.455V390H237.578V335.455H235.578ZM236.578 389H226.617V391H236.578V389ZM227.44 389.431L203.709 355.101L202.064 356.238L225.794 390.569L227.44 389.431ZM202.886 354.669H202.487V356.669H202.886V354.669ZM201.487 355.669V390H203.487V355.669H201.487ZM202.487 389H190.955V391H202.487V389ZM191.955 390V335.455H189.955V390H191.955ZM190.955 336.455H201.075V334.455H190.955V336.455ZM200.251 336.02L223.795 370.324L225.444 369.193L201.9 334.889L200.251 336.02ZM224.619 370.759H225.099V368.759H224.619V370.759ZM226.099 369.759V335.455H224.099V369.759H226.099ZM225.099 336.455H236.578V334.455H225.099V336.455ZM249.856 390H248.856V391H249.856V390ZM249.856 335.455V334.455H248.856V335.455H249.856ZM283.521 338.73L283.038 339.606L283.041 339.608L283.521 338.73ZM292.656 348.079L291.77 348.543L291.772 348.546L292.656 348.079ZM292.656 377.322L291.771 376.857L291.769 376.86L292.656 377.322ZM283.468 386.724L282.988 385.847L282.986 385.848L283.468 386.724ZM261.388 380.119H260.388V381.119H261.388V380.119ZM277.315 378.308L277.776 379.195L277.778 379.194L277.315 378.308ZM282.589 372.635L281.681 372.215L281.68 372.218L282.589 372.635ZM282.589 352.793L281.68 353.21L281.682 353.215L282.589 352.793ZM277.342 347.147L277.803 346.259L277.803 346.259L277.342 347.147ZM261.388 345.336V344.336H260.388V345.336H261.388ZM269.192 389H249.856V391H269.192V389ZM250.856 390V335.455H248.856V390H250.856ZM249.856 336.455H269.352V334.455H249.856V336.455ZM269.352 336.455C274.705 336.455 279.255 337.519 283.038 339.606L284.004 337.855C279.868 335.574 274.971 334.455 269.352 334.455V336.455ZM283.041 339.608C286.824 341.678 289.73 344.648 291.77 348.543L293.542 347.615C291.321 343.377 288.136 340.116 284.001 337.853L283.041 339.608ZM291.772 348.546C293.829 352.438 294.879 357.136 294.879 362.674H296.879C296.879 356.884 295.78 351.851 293.54 347.612L291.772 348.546ZM294.879 362.674C294.879 368.231 293.828 372.946 291.771 376.857L293.541 377.788C295.781 373.531 296.879 368.481 296.879 362.674H294.879ZM291.769 376.86C289.729 380.77 286.807 383.759 282.988 385.847L283.947 387.602C288.118 385.321 291.322 382.042 293.543 377.785L291.769 376.86ZM282.986 385.848C279.186 387.934 274.6 389 269.192 389V391C274.863 391 279.795 389.882 283.949 387.601L282.986 385.848ZM261.388 381.119H268.713V379.119H261.388V381.119ZM268.713 381.119C272.235 381.119 275.271 380.496 277.776 379.195L276.854 377.42C274.707 378.535 272.008 379.119 268.713 379.119V381.119ZM277.778 379.194C280.332 377.859 282.24 375.796 283.498 373.052L281.68 372.218C280.594 374.587 278.986 376.306 276.852 377.422L277.778 379.194ZM283.496 373.054C284.767 370.304 285.373 366.827 285.373 362.674H283.373C283.373 366.653 282.789 369.817 281.681 372.215L283.496 373.054ZM285.373 362.674C285.373 358.556 284.767 355.104 283.495 352.371L281.682 353.215C282.79 355.595 283.373 358.731 283.373 362.674H285.373ZM283.498 352.376C282.24 349.633 280.341 347.577 277.803 346.259L276.881 348.034C278.994 349.131 280.593 350.839 281.68 353.21L283.498 352.376ZM277.803 346.259C275.298 344.959 272.262 344.336 268.739 344.336V346.336C272.035 346.336 274.734 346.92 276.881 348.034L277.803 346.259ZM268.739 344.336H261.388V346.336H268.739V344.336ZM260.388 345.336V380.119H262.388V345.336H260.388ZM314.497 390V391H315.223L315.448 390.309L314.497 390ZM302.139 390L301.194 389.674L300.736 391H302.139V390ZM320.969 335.455V334.455H320.256L320.024 335.128L320.969 335.455ZM335.83 335.455L336.776 335.129L336.543 334.455H335.83V335.455ZM354.634 390V391H356.036L355.579 389.674L354.634 390ZM342.276 390L341.325 390.309L341.549 391H342.276V390ZM328.613 347.919L329.564 347.61L329.339 346.919H328.613V347.919ZM328.187 347.919V346.919H327.46L327.236 347.61L328.187 347.919ZM313.725 368.56V367.56H312.725V368.56H313.725ZM342.915 368.56H343.915V367.56H342.915V368.56ZM342.915 377.562V378.562H343.915V377.562H342.915ZM313.725 377.562H312.725V378.562H313.725V377.562ZM314.497 389H302.139V391H314.497V389ZM303.084 390.326L321.914 335.781L320.024 335.128L301.194 389.674L303.084 390.326ZM320.969 336.455H335.83V334.455H320.969V336.455ZM334.885 335.78L353.688 390.326L355.579 389.674L336.776 335.129L334.885 335.78ZM354.634 389H342.276V391H354.634V389ZM343.227 389.691L329.564 347.61L327.662 348.228L341.325 390.309L343.227 389.691ZM328.613 346.919H328.187V348.919H328.613V346.919ZM327.236 347.61L313.546 389.691L315.448 390.309L329.137 348.228L327.236 347.61ZM313.725 369.56H342.915V367.56H313.725V369.56ZM341.915 368.56V377.562H343.915V368.56H341.915ZM342.915 376.562H313.725V378.562H342.915V376.562ZM314.725 377.562V368.56H312.725V377.562H314.725ZM364.949 390H363.949V391H364.949V390ZM364.949 335.455V334.455H363.949V335.455H364.949ZM397.016 337.665L396.564 338.557L396.57 338.561L397.016 337.665ZM403.701 343.871L402.832 344.366L402.836 344.372L403.701 343.871ZM403.674 362.621L404.53 363.137L404.532 363.134L403.674 362.621ZM396.882 368.587L396.459 367.681L396.457 367.682L396.882 368.587ZM371.767 370.664H370.767V371.664H371.767V370.664ZM371.767 361.396V360.396H370.767V361.396H371.767ZM389.798 360.49L390.181 361.414L390.181 361.414L389.798 360.49ZM393.047 357.773L392.191 357.257L392.185 357.266L393.047 357.773ZM393.047 348.691L392.179 349.188L392.184 349.197L393.047 348.691ZM389.771 345.868L389.36 346.78L389.367 346.783L389.373 346.786L389.771 345.868ZM376.481 344.883V343.883H375.481V344.883H376.481ZM376.481 390V391H377.481V390H376.481ZM394.405 365.178L395.283 364.698L394.999 364.178H394.405V365.178ZM407.962 390V391H409.647L408.84 389.521L407.962 390ZM395.231 390L394.349 390.471L394.632 391H395.231V390ZM381.968 365.178V364.178H380.299L381.086 365.649L381.968 365.178ZM365.949 390V335.455H363.949V390H365.949ZM364.949 336.455H386.469V334.455H364.949V336.455ZM386.469 336.455C390.471 336.455 393.824 337.171 396.564 338.557L397.467 336.773C394.383 335.212 390.705 334.455 386.469 334.455V336.455ZM396.57 338.561C399.334 339.934 401.409 341.868 402.832 344.366L404.57 343.376C402.938 340.511 400.557 338.308 397.461 336.77L396.57 338.561ZM402.836 344.372C404.278 346.859 405.018 349.814 405.018 353.272H407.018C407.018 349.522 406.213 346.209 404.566 343.369L402.836 344.372ZM405.018 353.272C405.018 356.748 404.269 359.68 402.816 362.107L404.532 363.134C406.204 360.342 407.018 357.041 407.018 353.272H405.018ZM402.817 362.105C401.366 364.513 399.26 366.373 396.459 367.681L397.306 369.493C400.435 368.031 402.857 365.913 404.53 363.137L402.817 362.105ZM396.457 367.682C393.675 368.989 390.26 369.664 386.176 369.664V371.664C390.472 371.664 394.195 370.954 397.308 369.492L396.457 367.682ZM386.176 369.664H371.767V371.664H386.176V369.664ZM372.767 370.664V361.396H370.767V370.664H372.767ZM371.767 362.396H384.311V360.396H371.767V362.396ZM384.311 362.396C386.596 362.396 388.566 362.084 390.181 361.414L389.415 359.566C388.118 360.104 386.43 360.396 384.311 360.396V362.396ZM390.181 361.414C391.811 360.738 393.075 359.698 393.909 358.28L392.185 357.266C391.599 358.263 390.697 359.035 389.415 359.566L390.181 361.414ZM393.904 358.29C394.748 356.889 395.139 355.199 395.139 353.272H393.139C393.139 354.933 392.802 356.243 392.191 357.257L393.904 358.29ZM395.139 353.272C395.139 351.329 394.748 349.617 393.91 348.186L392.184 349.197C392.802 350.252 393.139 351.594 393.139 353.272H395.139ZM393.915 348.195C393.085 346.742 391.816 345.665 390.169 344.951L389.373 346.786C390.674 347.35 391.589 348.155 392.179 349.188L393.915 348.195ZM390.183 344.957C388.557 344.223 386.568 343.883 384.258 343.883V345.883C386.387 345.883 388.073 346.199 389.36 346.78L390.183 344.957ZM384.258 343.883H376.481V345.883H384.258V343.883ZM375.481 344.883V390H377.481V344.883H375.481ZM376.481 389H364.949V391H376.481V389ZM393.528 365.657L407.084 390.479L408.84 389.521L395.283 364.698L393.528 365.657ZM407.962 389H395.231V391H407.962V389ZM396.113 389.529L382.85 364.706L381.086 365.649L394.349 390.471L396.113 389.529ZM381.968 366.178H394.405V364.178H381.968V366.178ZM429.45 335.455H430.45V334.455H429.45V335.455ZM429.45 390V391H430.45V390H429.45ZM417.918 390H416.918V391H417.918V390ZM417.918 335.455V334.455H416.918V335.455H417.918ZM428.45 335.455V390H430.45V335.455H428.45ZM429.45 389H417.918V391H429.45V389ZM418.918 390V335.455H416.918V390H418.918ZM417.918 336.455H429.45V334.455H417.918V336.455ZM442.688 390H441.688V391H442.688V390ZM442.688 335.455V334.455H441.688V335.455H442.688ZM479.442 335.455H480.442V334.455H479.442V335.455ZM479.442 344.963V345.963H480.442V344.963H479.442ZM454.22 344.963V343.963H453.22V344.963H454.22ZM454.22 357.96H453.22V358.96H454.22V357.96ZM477.551 357.96H478.551V356.96H477.551V357.96ZM477.551 367.468V368.468H478.551V367.468H477.551ZM454.22 367.468V366.468H453.22V367.468H454.22ZM454.22 380.492H453.22V381.492H454.22V380.492ZM479.549 380.492H480.549V379.492H479.549V380.492ZM479.549 390V391H480.549V390H479.549ZM443.688 390V335.455H441.688V390H443.688ZM442.688 336.455H479.442V334.455H442.688V336.455ZM478.442 335.455V344.963H480.442V335.455H478.442ZM479.442 343.963H454.22V345.963H479.442V343.963ZM453.22 344.963V357.96H455.22V344.963H453.22ZM454.22 358.96H477.551V356.96H454.22V358.96ZM476.551 357.96V367.468H478.551V357.96H476.551ZM477.551 366.468H454.22V368.468H477.551V366.468ZM453.22 367.468V380.492H455.22V367.468H453.22ZM454.22 381.492H479.549V379.492H454.22V381.492ZM478.549 380.492V390H480.549V380.492H478.549ZM479.549 389H442.688V391H479.549V389ZM521.951 351.142L520.956 351.24L521.045 352.142H521.951V351.142ZM507.862 345.149L508.231 346.079L508.242 346.074L507.862 345.149ZM504.879 347.306L504.079 346.706L504.071 346.716L504.879 347.306ZM503.867 350.449L504.866 350.486L504.867 350.467V350.449H503.867ZM504.479 353.006L503.625 353.527L503.63 353.534L503.635 353.542L504.479 353.006ZM506.37 354.897L505.815 355.729L505.822 355.733L505.828 355.738L506.37 354.897ZM509.14 356.255L508.791 357.192L508.798 357.195L508.805 357.197L509.14 356.255ZM512.496 357.214L512.728 356.242L512.721 356.24L512.714 356.238L512.496 357.214ZM517.396 358.386L517.164 359.359L517.171 359.36L517.178 359.362L517.396 358.386ZM523.948 360.517L523.541 361.43L523.541 361.43L523.948 360.517ZM529.115 363.793L529.78 363.046L529.78 363.046L529.115 363.793ZM532.498 368.374L531.587 368.787L531.591 368.795L532.498 368.374ZM533.749 374.419L534.749 374.425L534.749 374.412L533.749 374.419ZM531.193 383.102L530.369 382.535L530.368 382.536L531.193 383.102ZM523.948 388.775L524.338 389.696L524.341 389.695L523.948 388.775ZM501.07 388.748L500.687 389.672L500.688 389.672L501.07 388.748ZM493.453 382.756L492.626 383.318L492.63 383.324L493.453 382.756ZM490.603 372.875V371.875H489.58L489.603 372.897L490.603 372.875ZM501.763 372.875L502.76 372.807L502.697 371.875H501.763V372.875ZM503.334 377.456L502.535 378.057L502.54 378.064L502.545 378.07L503.334 377.456ZM507.089 380.199L506.72 381.128L506.732 381.133L507.089 380.199ZM517.53 380.252L517.166 379.321L517.162 379.322L517.53 380.252ZM520.912 377.882L521.697 378.501L521.697 378.501L520.912 377.882ZM521.019 371.303L520.257 371.951L520.265 371.961L521.019 371.303ZM517.876 369.173L517.482 370.092L517.486 370.094L517.876 369.173ZM512.842 367.575L512.598 368.545L512.608 368.547L512.842 367.575ZM506.903 366.083L507.146 365.113L507.139 365.111L506.903 366.083ZM496.01 360.836L495.343 361.582L495.343 361.582L496.01 360.836ZM492.041 351.222L493.041 351.226L493.041 351.216L492.041 351.222ZM494.678 342.566L493.869 341.978L493.866 341.982L494.678 342.566ZM523.309 336.786L522.892 337.695L522.894 337.696L523.309 336.786ZM530.394 342.566L529.568 343.13L529.568 343.13L530.394 342.566ZM533.004 351.142V352.142H534.02L534.004 351.125L533.004 351.142ZM522.946 351.043C522.707 348.637 521.663 346.701 519.8 345.329L518.615 346.94C519.983 347.948 520.768 349.35 520.956 351.24L522.946 351.043ZM519.8 345.329C517.958 343.973 515.533 343.35 512.629 343.35V345.35C515.265 345.35 517.225 345.917 518.615 346.94L519.8 345.329ZM512.629 343.35C510.659 343.35 508.932 343.628 507.481 344.224L508.242 346.074C509.384 345.605 510.835 345.35 512.629 345.35V343.35ZM507.492 344.22C506.061 344.788 504.903 345.608 504.079 346.706L505.679 347.906C506.24 347.159 507.07 346.54 508.231 346.078L507.492 344.22ZM504.071 346.716C503.268 347.816 502.867 349.071 502.867 350.449H504.867C504.867 349.484 505.14 348.644 505.686 347.896L504.071 346.716ZM502.867 350.413C502.826 351.556 503.065 352.608 503.625 353.527L505.333 352.485C505.005 351.948 504.836 351.296 504.866 350.486L502.867 350.413ZM503.635 353.542C504.179 354.4 504.913 355.128 505.815 355.729L506.925 354.065C506.229 353.601 505.702 353.068 505.324 352.47L503.635 353.542ZM505.828 355.738C506.697 356.298 507.687 356.781 508.791 357.192L509.489 355.318C508.498 354.949 507.641 354.526 506.912 354.056L505.828 355.738ZM508.805 357.197C509.894 357.585 511.052 357.916 512.277 358.19L512.714 356.238C511.561 355.98 510.481 355.671 509.475 355.313L508.805 357.197ZM512.263 358.187L517.164 359.359L517.629 357.413L512.728 356.242L512.263 358.187ZM517.178 359.362C519.5 359.882 521.619 360.572 523.541 361.43L524.356 359.604C522.3 358.686 520.052 357.956 517.615 357.41L517.178 359.362ZM523.541 361.43C525.446 362.281 527.079 363.319 528.45 364.54L529.78 363.046C528.239 361.674 526.427 360.528 524.356 359.604L523.541 361.43ZM528.45 364.54C529.803 365.744 530.846 367.158 531.587 368.787L533.408 367.96C532.551 366.074 531.339 364.434 529.78 363.046L528.45 364.54ZM531.591 368.795C532.338 370.403 532.733 372.273 532.749 374.427L534.749 374.412C534.731 372.02 534.291 369.86 533.404 367.952L531.591 368.795ZM532.749 374.414C532.733 377.577 531.928 380.27 530.369 382.535L532.016 383.669C533.83 381.034 534.731 377.938 534.749 374.425L532.749 374.414ZM530.368 382.536C528.823 384.788 526.571 386.568 523.556 387.855L524.341 389.695C527.647 388.283 530.224 386.281 532.017 383.668L530.368 382.536ZM523.558 387.854C520.57 389.12 516.919 389.772 512.576 389.772V391.772C517.11 391.772 521.041 391.093 524.338 389.696L523.558 387.854ZM512.576 389.772C508.272 389.772 504.572 389.113 501.452 387.824L500.688 389.672C504.102 391.083 508.072 391.772 512.576 391.772V389.772ZM501.454 387.825C498.364 386.542 495.985 384.66 494.275 382.187L492.63 383.324C494.579 386.143 497.277 388.256 500.687 389.672L501.454 387.825ZM494.28 382.193C492.599 379.721 491.688 376.626 491.603 372.852L489.603 372.897C489.696 376.972 490.685 380.463 492.626 383.318L494.28 382.193ZM490.603 373.875H501.763V371.875H490.603V373.875ZM500.765 372.942C500.9 374.927 501.474 376.649 502.535 378.057L504.133 376.854C503.347 375.812 502.874 374.48 502.76 372.807L500.765 372.942ZM502.545 378.07C503.606 379.432 505.009 380.448 506.72 381.128L507.459 379.27C506.045 378.707 504.944 377.894 504.123 376.841L502.545 378.07ZM506.732 381.133C508.445 381.787 510.353 382.104 512.443 382.104V380.104C510.555 380.104 508.894 379.818 507.446 379.265L506.732 381.133ZM512.443 382.104C514.49 382.104 516.315 381.807 517.897 381.182L517.162 379.322C515.867 379.834 514.302 380.104 512.443 380.104V382.104ZM517.893 381.184C519.48 380.565 520.766 379.68 521.697 378.501L520.127 377.262C519.46 378.108 518.491 378.803 517.166 379.321L517.893 381.184ZM521.697 378.501C522.638 377.309 523.111 375.927 523.111 374.393H521.111C521.111 375.486 520.784 376.43 520.127 377.262L521.697 378.501ZM523.111 374.393C523.111 372.954 522.676 371.682 521.772 370.646L520.265 371.961C520.817 372.593 521.111 373.382 521.111 374.393H523.111ZM521.78 370.655C520.938 369.666 519.743 368.877 518.265 368.252L517.486 370.094C518.778 370.64 519.678 371.271 520.257 371.951L521.78 370.655ZM518.27 368.253C516.836 367.639 515.101 367.09 513.076 366.602L512.608 368.547C514.56 369.017 516.181 369.534 517.482 370.092L518.27 368.253ZM513.086 366.605L507.146 365.113L506.659 367.053L512.599 368.544L513.086 366.605ZM507.139 365.111C502.65 364.019 499.183 362.331 496.676 360.091L495.343 361.582C498.163 364.101 501.958 365.909 506.666 367.055L507.139 365.111ZM496.676 360.091C494.255 357.928 493.025 355.011 493.041 351.226L491.041 351.217C491.022 355.493 492.438 358.986 495.343 361.582L496.676 360.091ZM493.041 351.216C493.025 348.106 493.848 345.431 495.49 343.15L493.866 341.982C491.956 344.636 491.023 347.732 491.041 351.227L493.041 351.216ZM495.487 343.154C497.165 340.845 499.477 339.023 502.461 337.7L501.65 335.872C498.384 337.319 495.778 339.351 493.869 341.978L495.487 343.154ZM502.461 337.7C505.439 336.381 508.849 335.709 512.709 335.709V333.709C508.615 333.709 504.922 334.422 501.65 335.872L502.461 337.7ZM512.709 335.709C516.644 335.709 520.03 336.382 522.892 337.695L523.726 335.877C520.551 334.421 516.87 333.709 512.709 333.709V335.709ZM522.894 337.696C525.784 339.014 527.996 340.829 529.568 343.13L531.219 342.001C529.418 339.366 526.906 337.328 523.724 335.876L522.894 337.696ZM529.568 343.13C531.135 345.422 531.953 348.087 532.004 351.158L534.004 351.125C533.947 347.698 533.026 344.645 531.219 342.001L529.568 343.13ZM533.004 350.142H521.951V352.142H533.004V350.142Z" fill="white" mask="url(#path-1-outside-1_4_7)"/>
<path d="M4.74077 78V23.4545H41.495V32.9627H16.2731V45.9599H39.604V55.468H16.2731V68.4918H41.6016V78H4.74077ZM54.4136 78V23.4545H65.9459V68.4918H89.3302V78H54.4136ZM100.717 78V23.4545H137.472V32.9627H112.25V45.9599H135.581V55.468H112.25V68.4918H137.578V78H100.717ZM186.559 41.0859C186.186 39.7898 185.662 38.6445 184.987 37.6502C184.312 36.6381 183.487 35.7859 182.51 35.0934C181.551 34.3832 180.451 33.8416 179.208 33.4688C177.983 33.0959 176.624 32.9094 175.133 32.9094C172.345 32.9094 169.895 33.6019 167.782 34.9869C165.687 36.3718 164.053 38.3871 162.881 41.0327C161.709 43.6605 161.123 46.8743 161.123 50.674C161.123 54.4737 161.701 57.7053 162.855 60.3686C164.009 63.032 165.642 65.065 167.755 66.4677C169.868 67.8526 172.363 68.5451 175.239 68.5451C177.849 68.5451 180.078 68.0835 181.924 67.1602C183.789 66.2191 185.209 64.8963 186.186 63.1918C187.18 61.4872 187.677 59.4719 187.677 57.146L190.021 57.4922H175.958V48.8097H198.783V55.6811C198.783 60.4751 197.771 64.5945 195.747 68.0391C193.723 71.4659 190.935 74.1115 187.384 75.9759C183.833 77.8224 179.767 78.7457 175.186 78.7457C170.072 78.7457 165.58 77.6183 161.709 75.3633C157.839 73.0906 154.82 69.8679 152.654 65.6953C150.506 61.505 149.431 56.5334 149.431 50.7805C149.431 46.3594 150.071 42.4176 151.349 38.9553C152.645 35.4751 154.456 32.5277 156.782 30.1129C159.108 27.6982 161.816 25.8604 164.905 24.5998C167.995 23.3391 171.342 22.7088 174.946 22.7088C178.036 22.7088 180.912 23.1616 183.576 24.0671C186.239 24.9549 188.6 26.2156 190.66 27.8491C192.737 29.4826 194.433 31.4268 195.747 33.6818C197.061 35.919 197.904 38.3871 198.277 41.0859H186.559ZM218.913 78H206.555L225.385 23.4545H240.246L259.05 78H246.692L233.029 35.919H232.603L218.913 78ZM218.141 56.56H247.331V65.5621H218.141V56.56ZM314.988 23.4545V78H305.027L281.297 43.6694H280.897V78H269.365V23.4545H279.486L303.03 57.7585H303.509V23.4545H314.988ZM376.393 42.5508H364.727C364.514 41.0415 364.079 39.701 363.422 38.5291C362.765 37.3395 361.922 36.3274 360.892 35.4929C359.862 34.6584 358.673 34.0192 357.323 33.5753C355.992 33.1314 354.545 32.9094 352.982 32.9094C350.159 32.9094 347.7 33.6108 345.605 35.0135C343.509 36.3984 341.885 38.4226 340.731 41.0859C339.577 43.7315 338.999 46.9453 338.999 50.7273C338.999 54.6158 339.577 57.8828 340.731 60.5284C341.903 63.174 343.536 65.1715 345.631 66.521C347.726 67.8704 350.15 68.5451 352.902 68.5451C354.447 68.5451 355.876 68.3409 357.19 67.9325C358.522 67.5241 359.703 66.9293 360.732 66.1481C361.762 65.3491 362.615 64.3814 363.289 63.245C363.982 62.1087 364.461 60.8125 364.727 59.3565L376.393 59.4098C376.091 61.9134 375.336 64.3281 374.129 66.6541C372.939 68.9624 371.333 71.0309 369.308 72.8597C367.302 74.6708 364.905 76.109 362.117 77.1744C359.347 78.2219 356.214 78.7457 352.716 78.7457C347.851 78.7457 343.501 77.6449 339.665 75.4432C335.848 73.2415 332.829 70.0543 330.61 65.8817C328.408 61.7092 327.307 56.6577 327.307 50.7273C327.307 44.7791 328.426 39.7188 330.663 35.5462C332.9 31.3736 335.937 28.1953 339.772 26.0114C343.607 23.8097 347.922 22.7088 352.716 22.7088C355.876 22.7088 358.806 23.1527 361.505 24.0405C364.221 24.9283 366.627 26.2244 368.722 27.929C370.818 29.6158 372.522 31.6843 373.836 34.1346C375.168 36.5849 376.02 39.3903 376.393 42.5508ZM388.413 78V23.4545H425.167V32.9627H399.945V45.9599H423.276V55.468H399.945V68.4918H425.273V78H388.413ZM4.74077 179V124.455H16.2731V148.505H16.9922L36.6211 124.455H50.4439L30.2024 148.877L50.6836 179H36.8874L21.946 156.575L16.2731 163.499V179H4.74077ZM105.823 124.455V179H95.862L72.1316 144.669H71.7321V179H60.1998V124.455H70.3205L93.8645 158.759H94.3439V124.455H105.823ZM169.225 151.727C169.225 157.675 168.098 162.736 165.843 166.908C163.606 171.081 160.552 174.268 156.681 176.47C152.828 178.654 148.496 179.746 143.684 179.746C138.837 179.746 134.486 178.645 130.633 176.443C126.78 174.241 123.735 171.054 121.498 166.882C119.261 162.709 118.142 157.658 118.142 151.727C118.142 145.779 119.261 140.719 121.498 136.546C123.735 132.374 126.78 129.195 130.633 127.011C134.486 124.81 138.837 123.709 143.684 123.709C148.496 123.709 152.828 124.81 156.681 127.011C160.552 129.195 163.606 132.374 165.843 136.546C168.098 140.719 169.225 145.779 169.225 151.727ZM157.533 151.727C157.533 147.874 156.956 144.625 155.802 141.979C154.666 139.334 153.059 137.327 150.981 135.96C148.904 134.593 146.472 133.909 143.684 133.909C140.896 133.909 138.464 134.593 136.386 135.96C134.309 137.327 132.693 139.334 131.539 141.979C130.403 144.625 129.834 147.874 129.834 151.727C129.834 155.58 130.403 158.83 131.539 161.475C132.693 164.121 134.309 166.127 136.386 167.494C138.464 168.862 140.896 169.545 143.684 169.545C146.472 169.545 148.904 168.862 150.981 167.494C153.059 166.127 154.666 164.121 155.802 161.475C156.956 158.83 157.533 155.58 157.533 151.727ZM191.745 179L176.138 124.455H188.736L197.765 162.354H198.217L208.178 124.455H218.965L228.899 162.434H229.379L238.407 124.455H251.005L235.398 179H224.158L213.771 143.338H213.345L202.985 179H191.745ZM290.004 140.142C289.791 137.993 288.877 136.324 287.261 135.135C285.645 133.945 283.453 133.35 280.683 133.35C278.801 133.35 277.211 133.616 275.915 134.149C274.619 134.664 273.625 135.383 272.932 136.306C272.258 137.23 271.92 138.277 271.92 139.449C271.885 140.426 272.089 141.278 272.533 142.006C272.994 142.734 273.625 143.364 274.424 143.897C275.223 144.412 276.146 144.865 277.194 145.255C278.241 145.628 279.36 145.948 280.55 146.214L285.45 147.386C287.829 147.919 290.013 148.629 292.002 149.517C293.991 150.404 295.713 151.496 297.169 152.793C298.625 154.089 299.752 155.616 300.551 157.374C301.368 159.131 301.785 161.147 301.803 163.419C301.785 166.757 300.933 169.652 299.246 172.102C297.577 174.534 295.162 176.425 292.002 177.775C288.859 179.107 285.068 179.772 280.629 179.772C276.226 179.772 272.391 179.098 269.124 177.748C265.874 176.399 263.335 174.401 261.507 171.756C259.695 169.092 258.746 165.799 258.657 161.875H269.816C269.941 163.703 270.464 165.23 271.388 166.456C272.329 167.663 273.58 168.577 275.143 169.199C276.723 169.803 278.508 170.104 280.496 170.104C282.449 170.104 284.145 169.82 285.583 169.252C287.039 168.684 288.167 167.894 288.966 166.882C289.765 165.87 290.164 164.707 290.164 163.393C290.164 162.168 289.8 161.138 289.072 160.303C288.362 159.469 287.314 158.759 285.93 158.173C284.562 157.587 282.884 157.054 280.896 156.575L274.956 155.083C270.358 153.964 266.727 152.216 264.063 149.836C261.4 147.457 260.077 144.252 260.095 140.222C260.077 136.919 260.956 134.034 262.732 131.566C264.525 129.098 266.984 127.171 270.109 125.786C273.234 124.401 276.785 123.709 280.763 123.709C284.811 123.709 288.344 124.401 291.363 125.786C294.399 127.171 296.76 129.098 298.447 131.566C300.134 134.034 301.004 136.892 301.057 140.142H290.004ZM50.364 225.455V280H40.4031L16.6726 245.669H16.2731V280H4.74077V225.455H14.8615L38.4055 259.759H38.8849V225.455H50.364ZM113.766 252.727C113.766 258.675 112.639 263.736 110.384 267.908C108.147 272.081 105.093 275.268 101.222 277.47C97.3691 279.654 93.0367 280.746 88.2249 280.746C83.3776 280.746 79.0274 279.645 75.1744 277.443C71.3215 275.241 68.2764 272.054 66.0392 267.882C63.8019 263.709 62.6833 258.658 62.6833 252.727C62.6833 246.779 63.8019 241.719 66.0392 237.546C68.2764 233.374 71.3215 230.195 75.1744 228.011C79.0274 225.81 83.3776 224.709 88.2249 224.709C93.0367 224.709 97.3691 225.81 101.222 228.011C105.093 230.195 108.147 233.374 110.384 237.546C112.639 241.719 113.766 246.779 113.766 252.727ZM102.074 252.727C102.074 248.874 101.497 245.625 100.343 242.979C99.2068 240.334 97.5999 238.327 95.5225 236.96C93.445 235.593 91.0125 234.909 88.2249 234.909C85.4372 234.909 83.0047 235.593 80.9273 236.96C78.8499 238.327 77.2341 240.334 76.08 242.979C74.9436 245.625 74.3754 248.874 74.3754 252.727C74.3754 256.58 74.9436 259.83 76.08 262.475C77.2341 265.121 78.8499 267.127 80.9273 268.494C83.0047 269.862 85.4372 270.545 88.2249 270.545C91.0125 270.545 93.445 269.862 95.5225 268.494C97.5999 267.127 99.2068 265.121 100.343 262.475C101.497 259.83 102.074 256.58 102.074 252.727ZM4.74077 381V326.455H26.5803C30.593 326.455 33.94 327.049 36.6211 328.239C39.3022 329.429 41.3175 331.08 42.6669 333.193C44.0163 335.288 44.6911 337.703 44.6911 340.437C44.6911 342.568 44.2649 344.441 43.4126 346.057C42.5604 347.655 41.3885 348.969 39.897 349.999C38.4233 351.011 36.7365 351.73 34.8366 352.156V352.689C36.9141 352.777 38.8583 353.363 40.6694 354.446C42.4982 355.529 43.9808 357.048 45.1172 359.001C46.2536 360.936 46.8217 363.244 46.8217 365.925C46.8217 368.82 46.1026 371.403 44.6644 373.676C43.244 375.931 41.1399 377.715 38.3523 379.029C35.5646 380.343 32.1289 381 28.0451 381H4.74077ZM16.2731 371.572H25.6747C28.8885 371.572 31.2322 370.959 32.706 369.734C34.1797 368.491 34.9165 366.84 34.9165 364.78C34.9165 363.271 34.5526 361.939 33.8246 360.785C33.0966 359.631 32.0579 358.725 30.7085 358.069C29.3768 357.412 27.7876 357.083 25.9411 357.083H16.2731V371.572ZM16.2731 349.279H24.8224C26.4027 349.279 27.8054 349.004 29.0305 348.454C30.2734 347.886 31.25 347.087 31.9602 346.057C32.6882 345.027 33.0522 343.793 33.0522 342.355C33.0522 340.384 32.3509 338.795 30.9482 337.587C29.5632 336.38 27.5923 335.776 25.0355 335.776H16.2731V349.279ZM108.2 353.727C108.2 359.675 107.073 364.736 104.818 368.908C102.58 373.081 99.5264 376.268 95.6556 378.47C91.8026 380.654 87.4703 381.746 82.6585 381.746C77.8112 381.746 73.461 380.645 69.608 378.443C65.7551 376.241 62.71 373.054 60.4727 368.882C58.2355 364.709 57.1169 359.658 57.1169 353.727C57.1169 347.779 58.2355 342.719 60.4727 338.546C62.71 334.374 65.7551 331.195 69.608 329.011C73.461 326.81 77.8112 325.709 82.6585 325.709C87.4703 325.709 91.8026 326.81 95.6556 329.011C99.5264 331.195 102.58 334.374 104.818 338.546C107.073 342.719 108.2 347.779 108.2 353.727ZM96.5079 353.727C96.5079 349.874 95.9308 346.625 94.7767 343.979C93.6404 341.334 92.0335 339.327 89.9561 337.96C87.8786 336.593 85.4461 335.909 82.6585 335.909C79.8708 335.909 77.4383 336.593 75.3609 337.96C73.2835 339.327 71.6677 341.334 70.5136 343.979C69.3772 346.625 68.809 349.874 68.809 353.727C68.809 357.58 69.3772 360.83 70.5136 363.475C71.6677 366.121 73.2835 368.127 75.3609 369.494C77.4383 370.862 79.8708 371.545 82.6585 371.545C85.4461 371.545 87.8786 370.862 89.9561 369.494C92.0335 368.127 93.6404 366.121 94.7767 363.475C95.9308 360.83 96.5079 357.58 96.5079 353.727ZM154.184 326.455H165.716V361.877C165.716 365.854 164.767 369.335 162.867 372.317C160.985 375.3 158.348 377.626 154.957 379.295C151.565 380.947 147.615 381.772 143.105 381.772C138.577 381.772 134.617 380.947 131.226 379.295C127.835 377.626 125.198 375.3 123.316 372.317C121.434 369.335 120.493 365.854 120.493 361.877V326.455H132.025V360.892C132.025 362.969 132.478 364.816 133.383 366.431C134.307 368.047 135.603 369.317 137.272 370.24C138.941 371.163 140.885 371.625 143.105 371.625C145.342 371.625 147.286 371.163 148.937 370.24C150.606 369.317 151.894 368.047 152.799 366.431C153.722 364.816 154.184 362.969 154.184 360.892V326.455ZM224.578 326.455V381H214.617L190.886 346.669H190.487V381H178.955V326.455H189.075L212.619 360.759H213.099V326.455H224.578ZM257.192 381H237.856V326.455H257.352C262.838 326.455 267.561 327.547 271.521 329.73C275.48 331.897 278.525 335.013 280.656 339.079C282.805 343.145 283.879 348.01 283.879 353.674C283.879 359.356 282.805 364.239 280.656 368.322C278.525 372.406 275.463 375.54 271.468 377.724C267.49 379.908 262.732 381 257.192 381ZM249.388 371.119H256.713C260.122 371.119 262.989 370.515 265.315 369.308C267.659 368.083 269.417 366.192 270.589 363.635C271.778 361.06 272.373 357.74 272.373 353.674C272.373 349.643 271.778 346.35 270.589 343.793C269.417 341.236 267.668 339.354 265.342 338.147C263.016 336.939 260.148 336.336 256.739 336.336H249.388V371.119ZM302.497 381H290.139L308.969 326.455H323.83L342.634 381H330.276L316.613 338.919H316.187L302.497 381ZM301.725 359.56H330.915V368.562H301.725V359.56ZM352.949 381V326.455H374.469C378.588 326.455 382.104 327.191 385.016 328.665C387.945 330.121 390.174 332.19 391.701 334.871C393.245 337.534 394.018 340.668 394.018 344.272C394.018 347.895 393.236 351.011 391.674 353.621C390.111 356.213 387.848 358.202 384.882 359.587C381.935 360.972 378.366 361.664 374.176 361.664H359.767V352.396H372.311C374.513 352.396 376.342 352.094 377.798 351.49C379.254 350.886 380.337 349.981 381.047 348.773C381.775 347.566 382.139 346.066 382.139 344.272C382.139 342.461 381.775 340.934 381.047 339.691C380.337 338.449 379.245 337.507 377.771 336.868C376.315 336.211 374.478 335.883 372.258 335.883H364.481V381H352.949ZM382.405 356.178L395.962 381H383.231L369.968 356.178H382.405ZM417.45 326.455V381H405.918V326.455H417.45ZM430.688 381V326.455H467.442V335.963H442.22V348.96H465.551V358.468H442.22V371.492H467.549V381H430.688ZM509.951 342.142C509.738 339.993 508.823 338.324 507.207 337.135C505.592 335.945 503.399 335.35 500.629 335.35C498.747 335.35 497.158 335.616 495.862 336.149C494.565 336.664 493.571 337.383 492.879 338.306C492.204 339.23 491.867 340.277 491.867 341.449C491.831 342.426 492.035 343.278 492.479 344.006C492.941 344.734 493.571 345.364 494.37 345.897C495.169 346.412 496.092 346.865 497.14 347.255C498.188 347.628 499.306 347.948 500.496 348.214L505.396 349.386C507.776 349.919 509.96 350.629 511.948 351.517C513.937 352.404 515.659 353.496 517.115 354.793C518.571 356.089 519.699 357.616 520.498 359.374C521.314 361.131 521.732 363.147 521.749 365.419C521.732 368.757 520.879 371.652 519.193 374.102C517.524 376.534 515.109 378.425 511.948 379.775C508.805 381.107 505.015 381.772 500.576 381.772C496.172 381.772 492.337 381.098 489.07 379.748C485.821 378.399 483.282 376.401 481.453 373.756C479.642 371.092 478.692 367.799 478.603 363.875H489.763C489.887 365.703 490.411 367.23 491.334 368.456C492.275 369.663 493.527 370.577 495.089 371.199C496.669 371.803 498.454 372.104 500.443 372.104C502.396 372.104 504.091 371.82 505.53 371.252C506.986 370.684 508.113 369.894 508.912 368.882C509.711 367.87 510.111 366.707 510.111 365.393C510.111 364.168 509.747 363.138 509.019 362.303C508.308 361.469 507.261 360.759 505.876 360.173C504.509 359.587 502.831 359.054 500.842 358.575L494.903 357.083C490.304 355.964 486.673 354.216 484.01 351.836C481.346 349.457 480.024 346.252 480.041 342.222C480.024 338.919 480.902 336.034 482.678 333.566C484.471 331.098 486.93 329.171 490.055 327.786C493.18 326.401 496.732 325.709 500.709 325.709C504.757 325.709 508.291 326.401 511.309 327.786C514.345 329.171 516.707 331.098 518.394 333.566C520.08 336.034 520.95 338.892 521.004 342.142H509.951Z" fill="#FCC80B"/>
</svg>
