<svg fill="#105d7a" version="1.1" id="Layer_1" xmlns="http://www.w3.org/2000/svg"
    xmlns:xlink="http://www.w3.org/1999/xlink" viewBox="0 0 253.504 253.504" xml:space="preserve">
    <g id="SVGRepo_bgCarrier" stroke-width="0"></g>
    <g id="SVGRepo_tracerCarrier" stroke-linecap="round" stroke-linejoin="round"></g>
    <g id="SVGRepo_iconCarrier">
        <g>
            <g>
                <g>
                    <path
                        d="M231.52,93.786H57.272v-0.444c-0.04,0.044-0.072,0.092-0.112,0.136c-0.508-3.032-4.728-5.028-10.2-6l-4.636-44.4 c0-0.924,0.1-1.808,0.192-2.612c0.208-1.824,0.404-3.548-0.684-4.76c-0.684-0.768-1.72-1.14-3.156-1.14 c-1.44,0-2.472,0.372-3.16,1.14c-1.084,1.216-0.888,2.936-0.68,4.76c0.088,0.804,0.192,1.688,0.2,2.468l-4.64,44.536 c-5.188,0.924-9.28,2.764-10.124,5.536c-0.036-0.14-0.092-0.272-0.128-0.416l-0.068,0.068v14.1h-1.888 C7.74,106.758,0,128.634,0,134.418v73.372c0,6.252,7.988,11.148,18.188,11.148h40.964c10.2,0,18.188-4.896,18.188-11.148v-6.032 h154.18c12.12,0,21.984-9.86,21.984-21.984v-64C253.504,103.65,243.64,93.786,231.52,93.786z M37.86,43.078 c0-1.04-0.108-2.028-0.212-2.932c-0.104-0.912-0.26-2.284-0.02-2.552c0.06-0.068,0.352-0.192,1.044-0.192 c0.688,0,0.984,0.124,1.044,0.192c0.24,0.268,0.084,1.644-0.02,2.556c-0.1,0.904-0.212,1.892-0.204,3.076l4.856,46.492 c0,0.94,0,3.8-5.676,3.8c-5.68,0-5.68-2.86-5.688-3.656L37.86,43.078z M30.216,90.33c0.3,3.824,3.324,6.024,8.456,6.024 c5.08,0,8.088-2.156,8.436-6.028c4.568,0.956,7.328,2.548,7.328,3.752c0,1.832-6.284,4.596-15.76,4.596 s-15.764-2.764-15.764-4.596C22.908,92.874,25.664,91.29,30.216,90.33z M35.372,107.31c1.072,0.072,2.168,0.12,3.3,0.12 c1.204,0,2.372-0.048,3.5-0.128l-3.544,6.336c-2.476,0-4.668-0.156-6.576-0.396L35.372,107.31z M30.852,113.058 c-2.108-0.332-3.812-0.76-5.088-1.216l2.976-5.316c0.032-0.06,0.012-0.124,0.02-0.188c1.608,0.396,3.432,0.672,5.372,0.86 L30.852,113.058z M43.56,107.158c2.296-0.236,4.376-0.632,6.176-1.16l-3.688,7.136c-1.764,0.256-3.804,0.42-6.096,0.472 L43.56,107.158z M51.056,105.91c0.056-0.104,0.04-0.216,0.028-0.324c1.372-0.496,2.476-1.084,3.352-1.724v6.204 c0,0.684-2.436,2.004-6.992,2.836L51.056,105.91z M22.908,98.146c3.46,2.2,9.604,3.36,15.764,3.36c6.16,0,12.304-1.16,15.76-3.36 v4.288c-2.036,2.064-7.824,3.864-15.76,3.864c-7.94,0-13.728-1.8-15.764-3.864V98.146z M22.908,103.858 c1.164,0.852,2.8,1.588,4.808,2.168l-3.016,5.392c-1.148-0.516-1.792-1.02-1.792-1.356V103.858z M73.376,207.79h-0.004 c0,3.396-5.84,7.18-14.22,7.18H18.188c-8.38,0-14.22-3.784-14.22-7.18v-73.372c0-5.004,7.228-23.688,14.22-23.688h2.016 c0.008-0.04,0.008-0.084,0.02-0.124c0.788,4.012,9.884,5.872,18.452,5.872c8.476,0,17.456-1.824,18.412-5.752h2.068 c6.992,0,14.22,18.684,14.22,23.688V207.79z M74.124,122.622h40.136c-1.996,7.036-9.24,12.664-18.728,15.096 c-0.032,0.008-0.064,0-0.096,0.012c-0.028,0.008-0.048,0.032-0.08,0.044c-3.224,0.812-6.704,1.256-10.328,1.256 c-2.672,0-5.22-0.32-7.688-0.784v-3.832C77.34,132.17,76.164,127.498,74.124,122.622z M249.536,179.77 c0,9.932-8.084,18.016-18.016,18.016H77.34v-8.596h154.18c7.576,0,14.208-3.98,18.016-9.932V179.77z M231.52,186.354H77.34 v-45.196c2.028,0.352,4.12,0.568,6.268,0.636v13.252c0,0.784,0.636,1.416,1.416,1.416c0.78,0,1.416-0.636,1.416-1.416v-13.228 c2.944-0.088,5.788-0.452,8.488-1.06l4.212,12.864c0.196,0.596,0.752,0.976,1.348,0.976c0.144,0,0.292-0.024,0.44-0.072 c0.744-0.244,1.148-1.044,0.908-1.788l-4.156-12.696c2.8-0.836,5.4-1.94,7.744-3.272c0.068,0.156,0.064,0.336,0.192,0.46 l9.612,9.616c0.276,0.276,0.64,0.416,1.004,0.416s0.728-0.14,1.004-0.416c0.552-0.552,0.552-1.452,0-2.004l-9.512-9.512 c2.272-1.56,4.228-3.352,5.788-5.332l11.504,6.772c0.228,0.132,0.472,0.196,0.72,0.196c0.484,0,0.956-0.248,1.224-0.7 c0.396-0.672,0.172-1.544-0.504-1.94l-11.32-6.664c1.012-1.72,1.708-3.56,2.112-5.476h48.904c0.4,1.796,1.06,3.52,2.004,5.144 l-13.776,7.064c-0.696,0.356-0.968,1.212-0.612,1.908c0.248,0.492,0.752,0.772,1.26,0.772c0.22,0,0.44-0.052,0.648-0.156 l14.092-7.224c1.568,2.012,3.548,3.828,5.852,5.412l-9.512,9.512c-0.552,0.552-0.552,1.452,0,2.004 c0.276,0.276,0.64,0.416,1.004,0.416c0.364,0,0.728-0.14,1.004-0.416l9.98-9.976c2.296,1.288,4.84,2.356,7.568,3.172 l-5.268,12.284c-0.308,0.72,0.024,1.552,0.744,1.86c0.184,0.08,0.372,0.116,0.56,0.116c0.552,0,1.072-0.324,1.3-0.86 l5.332-12.432c0.036-0.084,0.036-0.168,0.052-0.256c2.708,0.612,5.564,0.976,8.516,1.068v13.228c0,0.784,0.636,1.416,1.416,1.416 c0.78,0,1.416-0.636,1.416-1.416v-13.228c2.944-0.088,5.788-0.452,8.488-1.06l4.212,12.864c0.196,0.596,0.752,0.976,1.348,0.976 c0.144,0,0.292-0.024,0.44-0.072c0.744-0.244,1.148-1.044,0.908-1.788l-4.156-12.696c2.8-0.836,5.4-1.94,7.744-3.272 c0.068,0.156,0.064,0.336,0.192,0.46l9.612,9.616c0.276,0.276,0.64,0.416,1.004,0.416c0.364,0,0.728-0.14,1.004-0.416 c0.552-0.552,0.552-1.452,0-2.004l-9.512-9.512c2.272-1.56,4.232-3.352,5.788-5.336l11.504,6.772 c0.228,0.132,0.472,0.196,0.72,0.196c0.484,0,0.956-0.248,1.224-0.7c0.396-0.672,0.172-1.544-0.504-1.94l-11.32-6.664 c0.972-1.652,1.648-3.416,2.06-5.248h19.048v49.928h0C247.568,180.266,240.264,186.354,231.52,186.354z M169.092,122.398h58.456 c-1.996,7.032-9.24,12.664-18.728,15.096c-0.032,0.008-0.064,0-0.096,0.012c-0.028,0.008-0.048,0.032-0.08,0.044 c-3.224,0.812-6.704,1.256-10.328,1.256c-7.38,0-14.144-1.848-19.376-4.908c-0.02-0.02-0.012-0.052-0.032-0.072 c-0.06-0.06-0.144-0.04-0.212-0.088C173.872,130.846,170.376,126.926,169.092,122.398z M249.536,119.354H72.624 c-3.264-6.564-7.988-12.596-13.472-12.596h-1.884v-9H231.52c8.564,0,15.72,6.02,17.54,14.04h-33.92v1.924h34.188 c0.08,0.68,0.208,1.348,0.208,2.048V119.354z">
                    </path>
                    <rect x="166.896" y="111.798" width="41.788" height="1.924"></rect>
                    <path
                        d="M18.724,133.894v0.004l-1.132,1.136v60.156l1.132,1.136H58.62l1.132-1.136v-60.16l-1.132-1.136H18.724z M57.484,194.054 H19.856v-57.888h37.628V194.054z">
                    </path>
                </g>
            </g>
        </g>
    </g>
</svg>