<svg fill="#105d7a" height="200px" width="200px" version="1.1" id="Layer_1" xmlns="http://www.w3.org/2000/svg"
    xmlns:xlink="http://www.w3.org/1999/xlink" viewBox="0 0 246.392 246.392" xml:space="preserve" stroke="#105d7a">
    <g id="SVGRepo_bgCarrier" stroke-width="0"></g>
    <g id="SVGRepo_tracerCarrier" stroke-linecap="round" stroke-linejoin="round"></g>
    <g id="SVGRepo_iconCarrier">
        <g>
            <g>
                <g>
                    <path
                        d="M147.046,158.924c-0.932-1.36-2.084-2.708-3.364-3.968c0.152-0.424,0.308-0.848,0.308-1.32v-43.188 c-0.032,0.04-0.068,0.072-0.1,0.112c0.016-0.168,0.1-0.316,0.1-0.488c0-10.928-34.216-11.104-35.512-0.592 c-0.04-0.016-0.084-0.02-0.12-0.036v44.196c0,0.512,0.156,0.98,0.336,1.436c-1.34,1.62-2.628,3.292-3.868,5.012v-52.664 c0-16.24-7.108-50.348-23.912-63.948c0.644-0.688,1.056-1.488,1.056-2.456V7.16c-0.008,0.012-0.02,0.02-0.032,0.028 c0-0.048,0.032-0.088,0.032-0.136C81.97,2.208,73.438,0,65.514,0C57.85,0,49.702,2.084,49.158,6.592 c-0.032-0.096-0.076-0.188-0.104-0.28V41.02c0,0.88,0.408,1.616,0.992,2.288c-17.612,13.884-23.844,49.816-23.844,64.116v125.924 c0,8.564,19.776,13.044,39.312,13.044c11.54,0,23.12-1.58,30.696-4.628c1.94,1.3,16.072,4.628,29.928,4.628 c13.548,0,29.616-0.964,30.588-5.48l0.116-0.4c3.804-12.952,9.912-35.696,8.064-42.528 C161.19,184.204,154.846,170.328,147.046,158.924z M126.178,105.556c8.96,0,13.848,2.98,13.848,4.512 c0,1.532-4.888,4.512-13.848,4.512c-8.96,0-13.848-2.984-13.848-4.512C112.33,108.54,117.214,105.556,126.178,105.556z M112.33,122.796c3.348,2.016,8.692,3.076,13.848,3.076s10.5-1.064,13.848-3.076v30.82c-0.22,0.944-4.808,3.428-13.848,3.428 c-9.044,0-13.632-2.484-13.848-3.412V122.796z M126.178,123.036c-7.344,0-12.296-2-13.848-3.888v-3.6 c3.436,1.964,8.636,3,13.848,3c5.212,0,10.412-1.036,13.848-3v3.6C138.478,121.04,133.522,123.036,126.178,123.036z M65.518,3.972c7.912,0,12.124,2.2,12.48,3.084c-0.356,0.884-4.576,3.084-12.48,3.084c-8.016,0-12.244-2.256-12.496-3.048 C53.274,6.228,57.498,3.972,65.518,3.972z M53.022,11.8c3.22,1.544,7.932,2.3,12.492,2.3s9.268-0.756,12.488-2.3v27.724 l0.072,1.2c-0.596,0.904-5.304,2.52-12.56,2.52S53.55,41.628,53.022,41.02V11.8z M65.518,242.424 c-21.576,0-35.344-5.376-35.344-9.076V107.424c0-15.988,6.968-50.336,23.548-61.868c3.248,1.16,7.684,1.66,11.796,1.66 c1.056,0,7.26-0.068,11.74-1.604c16.432,11.704,23.604,46.368,23.604,61.816v58.612c-5.924,9.604-10.464,20.468-13.48,32.524 c-1.544,6.176,3.416,29.62,7.1,39.604C88.438,240.496,78.41,242.424,65.518,242.424z M153.042,239.392 c-0.04,0.132-0.072,0.24-0.096,0.332c-1.788,1.008-10.844,2.7-26.8,2.7c-13.436,0-24.472-2.92-27.236-3.724 c-3.292-6.816-9.02-33.808-7.676-39.176c4.036-16.152,10.86-30.084,20.212-41.528c3.424,2.044,9.196,3.02,14.732,3.02 c5.628,0,11.484-1.016,14.884-3.128c0.904,0.908,1.804,1.94,2.716,3.272c7.552,11.052,13.696,24.496,17.308,37.856 C162.214,203.196,159.13,218.668,153.042,239.392z">
                    </path>
                    <path
                        d="M152.494,192.64l-0.652-0.752c-7.5-4.064-16.376-6.216-25.664-6.216c-9.332,0-18.244,2.168-25.76,6.264l-0.656,0.768 c-1.056,2.956-1.968,5.964-2.712,8.944c-1.332,5.324,3.772,27.748,6.444,32.304c0.68,0.884,11.72,3.608,22.656,3.608 c8.336,0,22.16-0.536,22.948-4.06l0.088-0.316c2.864-9.74,7.456-26.844,6.072-31.968 C154.514,198.444,153.578,195.556,152.494,192.64z M146.47,232.392c-0.032,0.112-0.06,0.204-0.084,0.28 c-1.296,0.764-8.116,2.056-20.24,2.056c-10.2,0-18.524-2.224-20.556-2.816c-2.476-5.096-6.808-25.52-5.796-29.576 c0.676-2.716,1.5-5.464,2.448-8.164c7.004-3.708,15.264-5.664,23.928-5.664c8.624,0,16.86,1.94,23.848,5.62 c0.976,2.66,1.816,5.292,2.5,7.828C153.378,205.12,151.054,216.78,146.47,232.392z">
                    </path>
                    <path
                        d="M157.042,156.944c0.7,3.172,4.844,4.416,9.936,4.416c1.46,0,3-0.108,4.556-0.296l10.028,45.16l0.204,0.132l0.564,17.696 c0.612,2.768,3.464,4.588,6.784,4.588c0.664,0,1.348-0.072,2.04-0.228c4.124-0.916,6.884-4.364,6.06-7.948l-6.784-15.308 l-0.132-0.656l0.16-0.252l-10.028-45.184c6.68-2.188,12.304-5.764,11.4-9.844l-9.5-42.8c-0.012,0.024-0.02,0.044-0.032,0.068 c-0.656-2.416-3.116-4.124-7.028-4.804c-3.436-0.592-7.74-0.384-12.108,0.584c-8.388,1.864-16.216,6.44-15.564,11.676 c-0.036-0.048-0.092-0.076-0.128-0.124L157.042,156.944z M174.33,160.588c0.568-0.104,1.14-0.168,1.696-0.292 c0.56-0.124,1.112-0.284,1.668-0.432l0.572,2.576l-3.724-0.88L174.33,160.588z M175.094,164.024l3.724,0.88l0.748,3.376l-3.748-1 L175.094,164.024z M194.534,221.344c0.392,1.764-1.436,3.736-3.996,4.304c-2.564,0.568-5.052-0.448-5.408-1.932l-0.384-16.744 l3.112-0.692L194.534,221.344z M187.382,203.48l-3.36,0.748l-0.792-3.576l3.72,0.88L187.382,203.48z M186.402,199.072l-3.72-0.88 l-0.888-3.992l3.8,1.236L186.402,199.072z M185.022,192.864l-3.8-1.236l-0.808-3.644l3.768,1.08L185.022,192.864z M183.622,186.544l-3.768-1.08l-0.696-3.128l3.724,0.88L183.622,186.544z M182.338,180.756l-3.724-0.88l-0.888-3.992l3.8,1.236 L182.338,180.756z M180.958,174.548l-3.8-1.236l-0.784-3.54l3.748,1L180.958,174.548z M181.262,119.956l6.684,30.112 c-0.004,0.968-3.944,4.392-12.776,6.352c-8.836,1.964-13.848,0.524-14.256-0.328l-6.688-30.124 c1.8,0.608,3.992,0.908,6.376,0.908c2.516,0,5.22-0.316,7.812-0.892C173.866,124.776,178.594,122.508,181.262,119.956z M180.482,116.436c-0.052,0.1-0.072,0.192-0.14,0.296c-1.364,2.148-5.772,4.988-12.544,6.492 c-7.164,1.592-12.436,0.712-14.36-0.8l-0.772-3.484c1.78,0.548,3.884,0.82,6.16,0.82c2.564,0,5.32-0.324,8.004-0.92 c4.376-0.972,8.36-2.6,11.22-4.592c0.636-0.44,1.14-0.904,1.644-1.368L180.482,116.436z M164.014,106.148 c2.464-0.548,4.884-0.828,7.072-0.828c1.252,0,2.432,0.092,3.504,0.276c2.504,0.432,3.776,1.292,3.92,1.956 c0.148,0.664-0.64,1.98-2.728,3.432c-2.444,1.7-5.928,3.112-9.812,3.976c-8.74,1.936-14.164,0.092-14.496-1.404 C151.142,112.06,155.266,108.092,164.014,106.148z">
                    </path>
                    <path
                        d="M66.818,64.276c-11.648,0-21.124,10.7-21.124,23.848s9.476,23.848,21.124,23.848c11.648,0,21.124-10.7,21.124-23.848 S78.466,64.276,66.818,64.276z M66.818,109.14c-10.084,0-18.288-9.424-18.288-21.012s8.204-21.012,18.288-21.012 s18.288,9.424,18.288,21.012C85.106,99.712,76.902,109.14,66.818,109.14z">
                    </path>
                    <path
                        d="M192.754,234.732c-27.44,0-27.44,2.804-27.44,3.856s0,3.856,27.44,3.856c27.436,0,27.436-2.804,27.436-3.856 S220.194,234.732,192.754,234.732z M192.754,239.612c-9.552,0-16.884-0.476-21.096-1.02c4.216-0.548,11.548-1.02,21.096-1.02 c9.548,0,16.88,0.476,21.092,1.02C209.634,239.136,202.302,239.612,192.754,239.612z">
                    </path>
                </g>
            </g>
        </g>
    </g>
</svg>